<svg version="1.1" id="Layer_1" xmlns="http://www.w3.org/2000/svg" xmlns:xlink="http://www.w3.org/1999/xlink" x="0px" y="0px"
	 width="100%" viewBox="0 0 592 592" enable-background="new 0 0 592 592" xml:space="preserve">
<path fill="#000000" opacity="1.000000" stroke="none" 
	d="
M105.665497,360.563110 
	C67.448532,350.549683 43.196560,326.754333 33.470459,288.938721 
	C26.542295,262.001678 31.702044,236.827454 46.908894,212.645493 
	C48.991837,215.629684 48.269783,218.075806 48.671345,220.222565 
	C51.518486,235.443451 61.639557,244.946243 74.002922,252.634903 
	C87.950920,261.309052 103.596146,266.286987 118.555771,272.755585 
	C122.540848,274.478760 126.451439,276.355896 129.860031,279.076874 
	C134.284210,282.608582 135.386673,286.109833 132.554749,290.819366 
	C128.156296,298.134064 129.592010,304.387695 134.782318,310.421082 
	C137.280014,313.324432 139.678879,316.314728 142.226944,319.172516 
	C152.634995,330.845673 150.551239,347.493805 144.638809,359.532227 
	C143.732132,361.378326 142.183563,362.025055 140.231598,362.306183 
	C128.733002,363.962341 117.357628,363.318787 105.665497,360.563110 
z"/>
<path fill="#000000" opacity="1.000000" stroke="none" 
	d="
M350.584686,313.310913 
	C344.092529,325.216858 333.223419,329.741394 321.154785,331.138123 
	C299.603424,333.632324 277.903839,331.822479 256.272491,332.231628 
	C252.884308,332.295685 251.995087,330.426361 252.006790,327.506866 
	C252.032852,321.010498 251.994110,314.513916 251.992355,308.017426 
	C251.984497,278.699768 251.970825,249.382126 251.981812,220.064468 
	C251.984375,213.225388 252.248795,212.888565 258.932587,212.967102 
	C277.575104,213.186142 296.221191,212.303040 314.863800,213.615677 
	C330.997131,214.751648 343.824249,224.137527 346.735870,238.343353 
	C348.880676,248.807922 346.999329,258.567505 339.039368,266.464355 
	C338.333252,267.164856 337.652618,267.891571 336.977173,268.621857 
	C336.876678,268.730530 336.870636,268.926514 336.596222,269.785034 
	C354.078156,279.707153 357.333679,294.781067 350.584686,313.310913 
M281.469391,303.781372 
	C281.798004,304.835571 282.515167,305.570892 283.605072,305.549500 
	C294.358643,305.338348 305.185760,306.841309 315.848511,304.691223 
	C321.561462,303.539215 324.861542,299.364471 324.587189,294.760193 
	C324.307037,290.058411 320.178040,285.978394 314.466003,285.425385 
	C304.705292,284.480408 294.898956,285.055267 285.111481,285.009521 
	C282.437531,284.997040 281.189270,286.264679 281.244049,288.981750 
	C281.337646,293.626770 281.320557,298.274048 281.469391,303.781372 
M306.701935,239.634293 
	C303.222748,239.548935 299.739685,239.313293 296.265045,239.403473 
	C278.541321,239.863495 281.560638,235.670013 281.257263,255.117859 
	C281.202576,258.625153 282.738556,259.787567 286.066986,259.696350 
	C291.704773,259.541718 297.351959,259.735901 302.990112,259.588196 
	C306.300903,259.501495 309.600372,258.965790 312.638153,257.519470 
	C316.316895,255.767960 318.049133,252.859955 317.806671,248.713028 
	C317.573151,244.718552 315.435303,242.280334 311.849426,240.971146 
	C310.458038,240.463135 308.969604,240.220840 306.701935,239.634293 
z"/>
<path fill="#000000" opacity="1.000000" stroke="none" 
	d="
M147.516251,199.446899 
	C157.369537,195.276688 166.930130,191.379440 176.337158,187.141281 
	C179.319901,185.797440 181.450897,185.995148 184.054123,187.943695 
	C207.316010,205.355667 220.425018,228.343552 223.453629,257.345001 
	C228.218445,302.972107 199.589752,342.977478 161.405197,356.907837 
	C159.279434,357.683380 157.190292,358.823944 154.689697,358.479370 
	C154.135376,355.820831 155.964035,354.299927 157.098724,352.625977 
	C167.868515,336.737701 180.678040,322.468628 192.883789,307.719513 
	C194.685837,305.541992 196.545197,303.378632 198.068939,301.009918 
	C203.862518,292.003540 202.216309,285.680084 192.714966,280.583588 
	C185.912247,276.934601 178.461899,275.111328 171.015915,273.304596 
	C155.365784,269.507111 139.367401,267.039093 124.270050,261.123444 
	C119.755844,259.354614 115.433769,257.208435 111.568512,254.248428 
	C100.123978,245.484131 99.179550,232.648788 109.257851,222.370392 
	C115.038582,216.474899 122.026573,212.221161 129.225647,208.366852 
	C135.090698,205.226776 141.176331,202.498703 147.516251,199.446899 
M136.064941,247.568542 
	C138.561874,247.576096 141.100891,247.871735 143.544525,247.514587 
	C146.289276,247.113434 147.259247,245.489746 145.413956,242.912827 
	C141.950943,238.076828 130.745773,234.700531 125.366661,236.910645 
	C121.844055,238.357986 121.482666,240.217148 124.312943,242.768875 
	C127.408951,245.560150 131.407806,246.301483 136.064941,247.568542 
M160.488480,247.849991 
	C158.280838,247.127579 156.131561,245.403122 153.613281,247.213989 
	C154.481918,250.196838 156.726242,251.292404 159.050140,252.190186 
	C160.439835,252.727036 162.201172,253.182678 163.090958,251.594666 
	C164.138855,249.724472 162.190521,249.114349 160.488480,247.849991 
z"/>
<path fill="#000000" opacity="1.000000" stroke="none" 
	d="
M457.829651,213.720367 
	C466.368103,215.071808 474.259766,217.110336 481.437897,221.187988 
	C502.705170,233.269287 512.402283,252.159744 511.035675,275.996063 
	C509.637238,300.386230 497.039459,317.834839 474.156158,327.291290 
	C465.745605,330.766937 456.864258,332.131989 447.824280,332.221527 
	C434.163208,332.356873 420.498260,332.145355 406.838440,332.334320 
	C402.753021,332.390808 401.481018,331.173279 401.487061,326.929901 
	C401.526520,299.278748 401.213745,271.627258 401.127930,243.975555 
	C401.102081,235.650955 401.680084,227.319839 401.499054,219.002213 
	C401.400177,214.460144 402.816467,212.811386 407.441223,212.905670 
	C424.086334,213.244934 440.751617,212.306503 457.829651,213.720367 
M441.528809,240.323822 
	C439.530457,240.325119 437.526703,240.420746 435.535034,240.306061 
	C432.375549,240.124161 431.013733,241.443817 431.025116,244.675064 
	C431.090698,263.325928 431.082581,281.977234 431.030609,300.628204 
	C431.022339,303.602509 432.245789,304.832703 435.220551,304.760437 
	C440.046967,304.643097 444.878967,304.777954 449.707367,304.712799 
	C463.210114,304.530579 474.443024,296.717834 478.516296,284.734741 
	C483.260406,270.778137 479.490753,255.784576 469.335571,247.372284 
	C461.438293,240.830353 452.167816,239.932144 441.528809,240.323822 
z"/>
<path fill="#000000" opacity="1.000000" stroke="none" 
	d="
M368.083130,212.774872 
	C370.724518,212.773727 372.891907,212.684494 375.049835,212.789459 
	C384.719177,213.259796 390.340271,219.087509 390.346985,228.719971 
	C390.369629,261.166199 390.275604,293.612854 390.443909,326.058197 
	C390.468231,330.737488 389.252075,332.686279 384.308044,332.362732 
	C378.508942,331.983246 372.654846,332.039581 366.846436,332.335358 
	C362.281067,332.567810 360.760284,330.940857 360.788696,326.327850 
	C360.958862,298.708038 360.871857,271.086670 360.874817,243.465805 
	C360.875671,235.479050 360.873108,227.492218 360.901245,219.505539 
	C360.924530,212.906403 360.946472,212.903580 368.083130,212.774872 
z"/>
<path fill="#000000" opacity="1.000000" stroke="none" 
	d="
M330.579529,416.118256 
	C326.147552,416.660889 322.915161,415.343903 320.888123,411.751587 
	C319.111481,408.603119 319.181244,405.347260 321.034393,402.236084 
	C324.327911,396.707001 330.683289,397.008759 336.669525,403.201782 
	C339.013184,399.643188 342.088715,397.477051 346.577942,398.654999 
	C348.013855,399.031769 349.931274,399.189392 349.772827,401.102539 
	C349.569275,403.560089 347.690094,403.117126 345.971252,402.650879 
	C345.032837,402.396301 344.004974,402.141876 343.202606,403.230865 
	C343.455261,405.169739 345.332062,404.997314 346.540253,405.591003 
	C349.250610,406.922852 351.708008,408.439819 350.604431,411.989563 
	C349.551361,415.376678 346.764679,416.455627 343.505463,416.196259 
	C342.057617,416.081055 340.606934,415.480347 339.251831,414.885254 
	C338.167175,414.408905 337.181732,413.561493 337.795135,412.144623 
	C338.383087,410.786621 339.491730,410.889221 340.747559,411.223267 
	C342.205109,411.610931 343.667816,413.063843 345.551544,411.363190 
	C343.857239,407.980713 339.564911,408.654541 337.429901,405.278687 
	C335.204437,411.600220 329.391388,407.570160 325.812561,410.024628 
	C326.726746,412.206818 328.212463,412.345337 329.999847,411.871399 
	C331.623718,411.440765 333.825165,409.628693 334.666779,412.250458 
	C335.494019,414.827362 332.603821,415.104736 330.579529,416.118256 
M330.577850,405.053558 
	C329.346619,400.323669 327.501801,402.440796 325.097321,404.058411 
	C326.894440,406.203278 328.527924,405.575409 330.577850,405.053558 
z"/>
<path fill="#000000" opacity="1.000000" stroke="none" 
	d="
M271.202332,377.053711 
	C270.497375,381.678894 267.566650,383.058319 263.743622,383.321503 
	C251.964386,384.132416 251.964432,384.135010 251.989853,372.364960 
	C251.991287,371.701965 252.000580,371.038940 252.001465,370.375946 
	C252.014099,360.891724 256.327332,357.961395 265.489929,361.166687 
	C268.103760,362.081116 270.568207,364.196289 269.758240,366.492218 
	C268.361694,370.450745 270.134888,373.375061 271.202332,377.053711 
M262.910736,374.286987 
	C262.092072,374.261047 261.269989,374.175201 260.455475,374.221863 
	C258.876862,374.312286 256.950897,373.919281 256.679291,376.308197 
	C256.472931,378.123230 257.550140,379.105072 259.194183,379.341553 
	C261.686920,379.700104 264.377441,379.701813 265.816864,377.343536 
	C266.886963,375.590393 265.109772,374.844696 262.910736,374.286987 
M262.055084,365.236633 
	C261.391327,365.206879 260.726929,365.142212 260.063934,365.154236 
	C258.411621,365.184143 257.055817,365.696472 256.918701,367.606842 
	C256.835815,368.761108 257.501831,369.558563 258.661713,369.608978 
	C260.596436,369.693146 262.821838,370.420197 264.191193,368.437256 
	C265.201569,366.974091 264.190857,365.982849 262.055084,365.236633 
z"/>
<path fill="#000000" opacity="1.000000" stroke="none" 
	d="
M482.959747,406.281067 
	C482.787445,408.856659 482.612610,411.008881 482.414490,413.158936 
	C482.302460,414.374298 482.016541,415.612030 480.533081,415.662689 
	C478.891144,415.718781 478.180054,414.531952 478.083221,413.077179 
	C477.928711,410.755890 477.949951,408.423431 477.837494,406.098572 
	C477.760437,404.505707 477.264923,402.921844 475.475922,402.758514 
	C473.439636,402.572632 472.511810,404.104675 472.349762,405.910583 
	C472.142059,408.225403 472.209229,410.563538 472.076111,412.886963 
	C471.993683,414.325653 471.435394,415.565094 469.753387,415.585846 
	C467.908905,415.608612 467.743500,414.200500 467.692657,412.806702 
	C467.607849,410.482178 467.732117,408.128937 467.398895,405.841583 
	C467.153229,404.155029 466.130096,402.569702 464.082703,402.803345 
	C462.373444,402.998322 461.609161,404.486420 461.474548,406.038940 
	C461.273865,408.353790 461.341339,410.691010 461.263000,413.017609 
	C461.213440,414.489777 460.722137,415.704071 458.983856,415.654297 
	C457.279785,415.605499 456.798462,414.378815 456.759094,412.918365 
	C456.709778,411.089355 456.700195,409.258820 456.698547,407.428955 
	C456.690613,398.596771 459.626404,396.401978 468.495453,398.721985 
	C469.939362,399.099701 471.174530,399.500092 472.796692,399.101685 
	C479.702271,397.405426 481.680847,398.814117 482.959747,406.281067 
z"/>
<path fill="#000000" opacity="1.000000" stroke="none" 
	d="
M312.148895,394.413330 
	C317.401550,397.276764 319.012451,401.550446 318.146637,406.814667 
	C317.345428,411.686340 313.891754,414.586151 307.988983,415.666656 
	C306.684662,415.905457 305.346527,415.954010 304.027740,416.120209 
	C299.403503,416.703033 297.184906,415.036346 297.616882,410.031616 
	C297.959442,406.062805 297.892120,402.027313 297.629456,398.046326 
	C297.361206,393.981262 299.212433,392.720947 302.945496,392.893555 
	C305.957153,393.032776 308.915161,393.316589 312.148895,394.413330 
M302.341583,406.254822 
	C302.545654,407.980347 301.662170,410.215637 303.718781,411.170593 
	C306.391541,412.411591 308.967163,411.459015 311.024170,409.586853 
	C313.611786,407.231720 314.481415,404.310272 312.555389,401.129913 
	C310.876312,398.357330 308.289368,396.969940 305.016907,397.464691 
	C301.230621,398.037140 302.666382,401.161530 302.351746,403.394775 
	C302.260498,404.042511 302.339203,404.714172 302.341583,406.254822 
z"/>
<path fill="#000000" opacity="1.000000" stroke="none" 
	d="
M446.681244,376.334656 
	C446.596771,373.582153 446.906311,370.608246 443.669891,370.608948 
	C440.636139,370.609650 440.503967,373.479095 440.375854,375.843384 
	C440.294922,377.336914 440.361908,378.838379 440.284454,380.332214 
	C440.212677,381.716217 439.968719,383.089996 438.122772,383.030304 
	C436.376434,382.973816 435.936615,381.658295 435.909302,380.265778 
	C435.834290,376.443085 435.834808,372.617889 435.876770,368.794434 
	C435.893463,367.272705 436.858673,365.848572 438.266937,366.209625 
	C441.815613,367.119598 445.519836,364.397339 448.943298,366.893463 
	C450.429047,367.976746 451.754883,366.719879 453.139923,366.281525 
	C457.606201,364.868073 460.944031,366.532318 461.743683,371.051880 
	C462.285858,374.116455 462.042023,377.333313 462.008362,380.480560 
	C461.993073,381.909821 461.350220,383.153290 459.620392,383.038422 
	C457.780914,382.916229 457.765594,381.422607 457.709961,380.088776 
	C457.619873,377.929749 457.735229,375.752838 457.502594,373.611877 
	C457.307892,371.819580 456.306366,370.408447 454.258331,370.534943 
	C452.500397,370.643524 451.633392,371.962982 451.461395,373.557373 
	C451.265961,375.369019 451.405548,377.214264 451.279510,379.036621 
	C451.161072,380.749146 451.730774,383.118805 448.880157,383.029633 
	C446.467133,382.954102 446.844391,380.855957 446.713287,379.263794 
	C446.645203,378.437256 446.689545,377.601440 446.681244,376.334656 
z"/>
<path fill="#000000" opacity="1.000000" stroke="none" 
	d="
M261.622803,398.732758 
	C264.872833,398.931152 263.720703,396.578552 264.066772,395.220642 
	C264.456818,393.690155 264.769745,392.153870 266.800659,392.391815 
	C268.505890,392.591583 268.767548,394.002411 268.778290,395.382935 
	C268.822327,401.028320 268.898224,406.675446 268.796692,412.318939 
	C268.752472,414.775970 267.945435,416.761383 264.799988,415.342194 
	C263.983337,414.973724 263.211365,414.953003 262.413696,415.339142 
	C258.514893,417.226440 255.198090,416.269836 252.730759,412.923431 
	C250.234360,409.537567 250.162811,405.783325 252.220688,402.119446 
	C254.251709,398.503448 257.574341,397.995789 261.622803,398.732758 
M255.859818,405.324127 
	C254.725525,408.513580 256.157867,410.553467 259.036957,411.524719 
	C261.019623,412.193512 262.661499,411.157562 263.425476,409.209686 
	C264.281830,407.026123 264.118164,404.851868 262.144989,403.331421 
	C259.735504,401.474762 257.815369,402.581818 255.859818,405.324127 
z"/>
<path fill="#000000" opacity="1.000000" stroke="none" 
	d="
M519.834412,369.823029 
	C518.481506,365.892670 521.683655,366.259979 523.408508,365.943054 
	C526.825684,365.315155 530.223755,365.846313 532.028809,369.345123 
	C533.945679,373.060669 533.312805,377.142365 533.094055,381.119049 
	C533.068604,381.580902 532.822388,382.118866 532.505615,382.461761 
	C530.813599,384.293182 520.041138,383.596191 518.507507,381.591949 
	C516.278625,378.679077 517.459961,374.272308 521.037476,372.930206 
	C522.849304,372.250519 524.876953,372.146027 526.992371,371.746460 
	C525.075867,369.128998 522.185974,371.162048 519.834412,369.823029 
M526.065613,376.243530 
	C524.478577,376.369354 522.605042,376.080261 522.608154,378.931946 
	C524.395996,379.996552 526.164551,380.273804 527.688660,378.405304 
	C528.560486,377.336517 527.879761,376.622620 526.065613,376.243530 
z"/>
<path fill="#000000" opacity="1.000000" stroke="none" 
	d="
M485.780304,412.116821 
	C483.041901,404.889435 485.584717,399.207550 491.647919,398.328888 
	C494.635254,397.895996 497.298981,398.637970 499.142487,401.137848 
	C500.519653,403.005402 501.958313,405.174042 500.895447,407.528870 
	C499.896515,409.741974 497.458160,408.977509 495.545166,409.114197 
	C493.809113,409.238190 492.068939,409.304443 489.973755,409.414978 
	C491.500488,412.571594 493.488068,412.407410 495.642700,411.580536 
	C497.076874,411.030151 498.690399,410.283508 499.363678,412.324585 
	C499.979431,414.191345 498.296295,414.957642 496.948700,415.500671 
	C492.555267,417.271027 488.866913,416.216217 485.780304,412.116821 
M491.893799,405.584229 
	C493.127533,405.423340 494.617523,405.757446 495.050140,403.996582 
	C492.226837,402.213867 492.045868,402.114532 490.928711,403.066528 
	C489.855713,403.980927 489.537872,404.969360 491.893799,405.584229 
z"/>
<path fill="#000000" opacity="1.000000" stroke="none" 
	d="
M283.699341,383.027771 
	C281.870850,383.124084 280.396454,383.353638 278.913452,383.489136 
	C275.254120,383.823456 272.510834,382.488892 272.100769,378.619843 
	C271.727386,375.096954 273.835358,373.147980 277.250732,372.408234 
	C278.630798,372.109314 280.256409,372.626740 281.602966,371.161530 
	C279.944702,369.678802 278.119385,370.642609 276.443024,370.555328 
	C275.186584,370.489929 274.139465,369.983398 274.027802,368.539154 
	C273.930420,367.279480 274.920105,366.917725 275.860321,366.526093 
	C280.483215,364.600342 287.700592,365.957947 287.527100,372.850250 
	C287.460358,375.501953 287.530731,378.156860 287.479431,380.809204 
	C287.434143,383.151794 285.958282,383.484131 283.699341,383.027771 
M282.058746,378.769775 
	C281.172638,375.397217 280.178741,375.275665 276.919830,378.303345 
	C278.199890,380.110474 279.805847,380.004883 282.058746,378.769775 
z"/>
<path fill="#000000" opacity="1.000000" stroke="none" 
	d="
M275.179901,415.219421 
	C270.458588,411.008881 269.415375,406.999146 271.634735,402.704102 
	C273.597321,398.906036 276.780334,397.871094 280.830414,398.500122 
	C284.272003,399.034637 286.049652,401.221344 286.954895,404.285736 
	C287.854187,407.329895 286.860077,409.162781 283.417603,409.140289 
	C281.131653,409.125366 278.845490,409.137482 275.521637,409.137482 
	C277.622101,412.269989 279.505402,412.546021 281.862640,411.497223 
	C283.304260,410.855835 284.948059,410.299622 285.637390,412.245270 
	C286.306641,414.134216 284.502930,414.783783 283.220245,415.429749 
	C280.688080,416.705078 278.097717,416.637421 275.179901,415.219421 
M279.305389,402.387268 
	C277.486755,402.412354 276.154419,402.932587 276.264862,405.290955 
	C278.355530,405.615692 280.230560,406.161102 281.860962,404.733398 
	C281.707306,403.324066 280.900879,402.813232 279.305389,402.387268 
z"/>
<path fill="#000000" opacity="1.000000" stroke="none" 
	d="
M356.377258,399.152954 
	C361.323944,397.651001 365.357819,398.046783 367.648285,402.928253 
	C369.486664,406.846191 368.195831,408.856171 363.918121,409.119873 
	C361.987854,409.238892 359.958557,408.655884 357.868927,409.970703 
	C359.013947,412.708435 360.935974,412.354156 363.035950,411.516632 
	C364.449982,410.952637 366.081970,410.239624 366.774384,412.273773 
	C367.425720,414.187103 365.660583,414.849365 364.367828,415.450745 
	C360.845276,417.089447 357.486938,416.558014 354.723328,413.901764 
	C351.696747,410.992645 350.832642,407.467987 352.639496,403.474701 
	C353.408386,401.775391 354.337372,400.251068 356.377258,399.152954 
M358.478180,402.879242 
	C357.798767,403.623993 357.012665,404.670807 358.259491,405.223816 
	C359.808044,405.910583 361.647858,406.255646 363.038605,404.306732 
	C362.187805,402.493713 360.788452,402.151215 358.478180,402.879242 
z"/>
<path fill="#000000" opacity="1.000000" stroke="none" 
	d="
M410.522217,416.042358 
	C405.609192,414.116394 403.203308,410.861267 403.710449,405.910126 
	C404.108978,402.019104 406.500580,399.655212 410.211761,398.641602 
	C413.850830,397.647614 417.236084,398.211395 419.714020,401.177399 
	C422.083466,404.013550 422.996918,407.340729 421.169525,410.872162 
	C419.023682,415.019135 415.551483,416.759613 410.522217,416.042358 
M414.536285,402.972809 
	C411.520203,401.627930 409.727356,403.218018 408.691711,405.736420 
	C407.751831,408.021912 408.657715,410.011658 410.819733,411.166870 
	C412.777405,412.212921 414.683807,411.923828 416.143524,410.125977 
	C418.256989,407.523041 417.606323,405.279755 414.536285,402.972809 
z"/>
<path fill="#000000" opacity="1.000000" stroke="none" 
	d="
M418.340973,375.716919 
	C420.609009,371.728607 424.560211,372.820038 428.276245,372.161285 
	C426.345947,369.660248 424.263794,370.418335 422.411163,370.357605 
	C421.198730,370.317810 419.997009,370.285858 419.894653,368.664215 
	C419.818817,367.462006 420.662109,367.008820 421.607300,366.529358 
	C427.193207,363.695923 433.133423,367.046997 433.333282,373.243530 
	C433.433929,376.363800 433.350891,379.490021 433.350891,382.476898 
	C420.434326,384.794464 417.462280,383.459595 418.340973,375.716919 
M426.942413,376.306274 
	C425.207458,376.296906 423.174011,375.727875 422.834808,378.428223 
	C427.005951,380.481140 427.707184,380.187988 426.942413,376.306274 
z"/>
<path fill="#000000" opacity="1.000000" stroke="none" 
	d="
M538.606323,398.551697 
	C543.580994,397.923370 547.451782,399.161652 549.089478,403.790314 
	C550.523071,407.842072 549.921814,411.778503 546.049866,414.459869 
	C542.359314,417.015594 538.586609,417.028748 534.930298,414.296295 
	C531.901489,412.032806 531.234985,408.860931 531.790466,405.372070 
	C532.374268,401.705872 534.567444,399.426636 538.606323,398.551697 
M540.561768,411.744812 
	C543.939209,411.540802 545.094604,409.459473 544.837158,406.423309 
	C544.647095,404.181519 543.153442,402.855011 541.014893,402.541718 
	C538.726624,402.206482 537.181519,403.522125 536.588196,405.594757 
	C535.751099,408.519379 536.628723,410.769287 540.561768,411.744812 
z"/>
<path fill="#000000" opacity="1.000000" stroke="none" 
	d="
M402.516205,367.225830 
	C404.044739,368.414642 404.826447,369.647095 405.385132,371.081573 
	C407.030243,375.305328 406.224060,376.492310 401.669006,376.445984 
	C400.006531,376.429077 398.342560,376.400574 396.682007,376.457794 
	C396.227600,376.473419 395.783203,376.780304 395.323517,376.957703 
	C396.969452,379.945282 396.980621,379.993011 400.455627,379.179382 
	C402.037781,378.808960 404.003052,377.635925 404.473572,380.144745 
	C404.850128,382.152710 402.839447,382.883789 401.215973,383.218445 
	C397.258331,384.034271 393.368073,383.855194 390.992706,380.021118 
	C388.706818,376.331329 388.654236,372.180511 391.397583,368.814941 
	C394.216400,365.356812 398.109039,364.742401 402.516205,367.225830 
M400.144958,371.850647 
	C398.352936,368.679413 396.683136,369.461700 394.787231,371.909607 
	C397.446838,372.838409 397.446838,372.838409 400.144958,371.850647 
z"/>
<path fill="#000000" opacity="1.000000" stroke="none" 
	d="
M567.324280,367.416290 
	C571.074402,370.541962 572.350525,374.011993 570.464539,378.301208 
	C568.675598,382.369385 565.416992,383.718872 561.157104,383.515717 
	C557.136108,383.323944 554.638428,381.239502 553.302673,377.645935 
	C552.001343,374.145050 552.982117,370.900757 555.503296,368.453003 
	C558.859497,365.194580 562.870056,364.926575 567.324280,367.416290 
M560.293640,379.211365 
	C565.104126,379.411926 567.796936,376.533783 566.112244,372.978333 
	C565.337219,371.342743 564.049744,370.394135 562.213562,370.308472 
	C560.107056,370.210175 558.738586,371.397247 557.888489,373.134064 
	C556.716187,375.529022 558.043945,377.253510 560.293640,379.211365 
z"/>
<path fill="#000000" opacity="1.000000" stroke="none" 
	d="
M474.419525,383.438293 
	C470.069580,384.001740 466.828033,382.926910 464.831116,379.207520 
	C463.112823,376.007080 463.291504,372.812073 465.119080,369.751617 
	C467.875854,365.135132 474.282867,364.334473 477.921478,368.168884 
	C479.694855,370.037659 480.969452,372.377777 480.039429,374.939789 
	C479.114655,377.487396 476.610443,376.067261 474.788300,376.303497 
	C473.192291,376.510376 471.480347,375.962677 469.738098,377.231384 
	C470.221191,379.849121 472.119720,379.809937 474.103058,379.459259 
	C475.746033,379.168762 477.996765,377.295013 478.695343,379.955872 
	C479.351746,382.455994 476.703644,382.880402 474.419525,383.438293 
M473.408112,370.133545 
	C471.047363,369.241516 469.825897,370.107574 469.319580,372.532471 
	C474.152893,373.159729 474.152893,373.159729 473.408112,370.133545 
z"/>
<path fill="#000000" opacity="1.000000" stroke="none" 
	d="
M326.363770,368.363220 
	C330.517578,365.204620 334.586090,364.694000 338.519836,367.701630 
	C341.638641,370.086151 343.047882,373.382568 341.782562,377.346283 
	C340.692657,380.760559 338.498749,383.025116 334.739319,383.416016 
	C330.918060,383.813324 327.440735,383.346588 325.214233,379.685730 
	C322.849762,375.798035 323.424377,372.137695 326.363770,368.363220 
M337.179413,373.181580 
	C335.120331,369.976288 332.543915,368.928833 329.585083,371.874329 
	C328.100555,373.352112 327.857086,375.407806 329.201813,377.290283 
	C330.309052,378.840302 331.783661,380.037323 333.772919,379.455963 
	C336.467010,378.668671 337.689423,376.678558 337.179413,373.181580 
z"/>
<path fill="#000000" opacity="1.000000" stroke="none" 
	d="
M301.632080,375.560486 
	C301.386139,372.900391 300.950562,370.439667 298.165863,370.550018 
	C294.957642,370.677124 295.434784,373.604706 294.943054,375.819824 
	C294.380310,378.354828 296.716095,383.083435 292.228973,382.811737 
	C288.559631,382.589508 290.682800,378.242737 290.412415,375.683990 
	C290.377869,375.356934 290.423828,375.021698 290.427551,374.690186 
	C290.530273,365.547333 290.531250,365.512085 299.578552,365.784454 
	C302.762634,365.880280 304.769989,367.523804 305.585907,370.707336 
	C306.386261,373.830139 306.131805,376.968048 306.004730,380.105164 
	C305.941528,381.665375 305.471527,383.235565 303.447815,383.024933 
	C301.673462,382.840210 301.720795,381.288055 301.675293,379.960999 
	C301.629883,378.635651 301.650940,377.307983 301.632080,375.560486 
z"/>
<path fill="#000000" opacity="1.000000" stroke="none" 
	d="
M361.045776,381.535583 
	C360.859375,377.273773 360.820587,373.454590 360.749329,369.635986 
	C360.703308,367.169342 361.739044,365.680420 364.327057,366.232086 
	C366.072235,366.604126 367.594604,365.998291 369.220978,365.839905 
	C373.346039,365.438263 376.034637,367.577026 376.269562,371.633057 
	C376.442078,374.612244 376.313110,377.611053 376.261383,380.600098 
	C376.239960,381.838593 375.854248,382.956757 374.361633,383.054443 
	C372.657898,383.165924 371.986115,382.081818 371.909363,380.585083 
	C371.798798,378.429657 371.805603,376.268463 371.730957,374.110840 
	C371.669647,372.338257 371.263336,370.664795 369.141144,370.477234 
	C366.889374,370.278229 365.745605,371.788757 365.496033,373.758423 
	C365.226135,375.888550 365.460785,378.078400 365.269043,380.223724 
	C365.006256,383.163940 363.781708,384.283813 361.045776,381.535583 
z"/>
<path fill="#000000" opacity="1.000000" stroke="none" 
	d="
M502.798157,411.608887 
	C502.778412,409.994049 502.764893,408.833435 502.766632,407.672852 
	C502.780884,398.079285 503.201874,397.642365 512.717102,398.299805 
	C515.386841,398.484253 517.790405,399.699341 518.092651,402.573273 
	C518.472168,406.180206 518.278259,409.852051 518.246704,413.495178 
	C518.235657,414.768463 517.667969,415.789612 516.143860,415.651489 
	C514.766052,415.526611 514.100830,414.572632 514.021118,413.307953 
	C513.875183,410.994141 513.881104,408.671112 513.770203,406.354492 
	C513.685303,404.581757 513.160889,402.891022 511.113708,402.747131 
	C509.162628,402.609924 508.042694,404.180389 507.687134,405.793274 
	C507.266144,407.703033 507.461243,409.742523 507.310211,411.719757 
	C507.191925,413.268280 507.787659,415.424988 505.334259,415.565430 
	C503.028015,415.697479 502.933746,413.760498 502.798157,411.608887 
z"/>
<path fill="#000000" opacity="1.000000" stroke="none" 
	d="
M551.272949,379.768646 
	C551.138245,381.888672 550.627625,383.264801 548.615723,383.041077 
	C546.836731,382.843262 546.787659,381.351624 546.732788,380.014130 
	C546.644165,377.854279 546.719421,375.684662 546.556763,373.531891 
	C546.433044,371.894226 545.528625,370.647675 543.782532,370.510651 
	C541.749512,370.351044 540.741394,371.693695 540.425964,373.485352 
	C540.197510,374.782959 540.426575,376.160645 540.202454,377.459656 
	C539.851868,379.492340 541.399780,383.032654 537.796753,382.872589 
	C534.418945,382.722534 536.063049,379.260284 535.662842,377.212677 
	C535.506104,376.411224 535.634888,375.553986 535.633972,374.722137 
	C535.624084,365.961456 536.833496,364.848328 545.499268,365.806641 
	C549.050659,366.199341 550.721924,368.608673 551.136108,371.832794 
	C551.451843,374.290588 551.261230,376.813416 551.272949,379.768646 
z"/>
<path fill="#000000" opacity="1.000000" stroke="none" 
	d="
M375.063049,413.452606 
	C372.809204,416.857513 371.297577,416.454742 370.739532,412.893372 
	C370.459351,411.105469 370.609772,409.247620 370.593872,407.421143 
	C370.516479,398.518982 370.519409,398.500214 379.354401,398.289246 
	C382.777618,398.207489 385.336914,399.755798 385.844025,403.187866 
	C386.324615,406.440521 386.142181,409.799988 386.132599,413.112122 
	C386.128326,414.581726 385.418274,415.760437 383.726044,415.638672 
	C381.988586,415.513733 381.740143,414.140076 381.709961,412.739166 
	C381.667053,410.747131 381.696594,408.753052 381.628815,406.762115 
	C381.553894,404.561432 380.752502,402.617706 378.279510,402.664032 
	C376.073853,402.705383 375.351959,404.559631 375.275970,406.557892 
	C375.193970,408.714264 375.179169,410.873138 375.063049,413.452606 
z"/>
<path fill="#000000" opacity="1.000000" stroke="none" 
	d="
M307.897522,372.516846 
	C310.936462,366.348145 315.725800,364.216034 320.421875,366.597504 
	C321.605469,367.197723 323.152130,367.820526 322.730164,369.402069 
	C322.256226,371.178406 320.734558,371.316864 319.084198,370.769897 
	C315.297302,369.514801 312.766266,370.662872 312.440796,374.843170 
	C312.188202,378.087494 315.068695,380.024231 318.547638,379.019409 
	C320.199066,378.542389 322.059479,377.574188 322.733002,379.780396 
	C323.465668,382.180298 321.165741,382.763733 319.470276,383.254486 
	C312.491058,385.274567 307.549011,380.859955 307.897522,372.516846 
z"/>
<path fill="#000000" opacity="1.000000" stroke="none" 
	d="
M508.469727,383.486938 
	C501.859863,381.549103 499.388763,376.984375 501.561035,371.383118 
	C503.384277,366.681915 508.943542,364.408051 513.453125,366.544189 
	C514.790649,367.177765 516.454224,367.770477 515.746887,369.732941 
	C515.181458,371.301819 513.780701,371.338776 512.402527,370.813690 
	C509.691223,369.780762 507.520691,370.339508 505.988739,372.889801 
	C505.002899,374.530975 505.342529,376.065918 506.410675,377.523438 
	C508.060852,379.775177 510.096313,380.091156 512.526428,378.822632 
	C513.781738,378.167358 515.200317,377.821259 515.853210,379.551361 
	C516.560120,381.424591 515.134338,382.438080 513.731750,382.887451 
	C512.193726,383.380219 510.485260,383.340759 508.469727,383.486938 
z"/>
<path fill="#000000" opacity="1.000000" stroke="none" 
	d="
M398.430969,413.393005 
	C396.564117,416.647858 394.396240,417.293823 392.753418,414.016022 
	C390.465027,409.450226 388.715912,404.614136 386.407928,399.111511 
	C393.931854,398.191376 392.045685,405.477783 395.403900,407.553314 
	C398.632202,405.454895 396.864014,398.750183 403.410583,398.696533 
	C403.437195,404.410004 399.966919,408.399872 398.430969,413.393005 
z"/>
<path fill="#000000" opacity="1.000000" stroke="none" 
	d="
M431.060028,399.316040 
	C433.761322,398.142700 435.036926,399.318604 435.865295,401.503052 
	C436.678345,403.646942 437.618988,405.742462 438.598724,408.086823 
	C442.160553,405.582275 440.335571,398.294769 447.997498,398.837555 
	C445.593536,404.555298 443.724213,409.496552 441.441132,414.238617 
	C440.154907,416.910034 437.687683,416.869873 436.506927,414.306641 
	C434.309784,409.536987 431.482971,404.958008 431.060028,399.316040 
z"/>
<path fill="#000000" opacity="1.000000" stroke="none" 
	d="
M521.100220,398.126404 
	C521.960510,396.367645 521.753052,394.276245 523.955078,394.033752 
	C526.085999,393.799072 526.181519,395.554291 526.541992,396.973297 
	C527.111877,399.216705 530.507263,398.013611 530.902954,400.891296 
	C529.134155,402.719513 525.286316,403.403259 526.275269,407.555023 
	C526.708252,409.372528 526.540100,411.226929 528.900879,411.709686 
	C530.229797,411.981476 531.017456,412.744446 530.584961,414.168518 
	C530.212036,415.396454 529.191040,415.961823 527.971985,416.155090 
	C526.009888,416.466156 523.896179,416.046112 523.219238,414.274292 
	C521.289429,409.223358 521.112915,403.819672 521.100220,398.126404 
z"/>
<path fill="#000000" opacity="1.000000" stroke="none" 
	d="
M384.601807,371.808838 
	C384.757416,374.983917 382.616516,378.757141 387.543427,379.750824 
	C388.514648,379.946686 388.630585,380.918457 388.374359,381.781891 
	C388.116333,382.651581 387.417084,383.006897 386.562531,383.260529 
	C382.924011,384.340149 380.210968,382.367432 379.776031,378.185242 
	C379.458466,375.131989 379.880981,372.151825 378.229462,369.086060 
	C376.992523,366.789856 379.192474,363.733673 381.003540,362.303772 
	C383.371094,360.434540 384.079254,363.386169 384.942383,365.052673 
	C385.012787,365.188599 385.159729,365.322662 385.302032,365.378143 
	C392.214996,368.071472 387.655426,369.685242 384.601807,371.808838 
z"/>
<path fill="#000000" opacity="1.000000" stroke="none" 
	d="
M484.927063,383.102417 
	C481.646027,382.675446 482.248169,380.332123 482.065125,378.483948 
	C481.919220,377.010651 481.974731,375.514252 481.990875,374.028625 
	C482.076752,366.131958 483.622437,364.727661 490.965820,366.054565 
	C493.111725,366.442322 493.194305,368.870422 492.157288,369.365814 
	C486.481537,372.077179 487.354095,377.431244 486.403717,382.091675 
	C486.327393,382.465942 485.714020,382.730652 484.927063,383.102417 
z"/>
<path fill="#000000" opacity="1.000000" stroke="none" 
	d="
M424.260681,393.901855 
	C427.231903,391.239441 428.335785,392.612244 428.370148,395.527100 
	C428.438599,401.333618 428.366913,407.142273 428.305756,412.949554 
	C428.291229,414.329712 428.050476,415.760956 426.162781,415.595856 
	C424.488983,415.449463 424.015411,414.125031 424.013092,412.725372 
	C424.002838,406.579926 424.067719,400.434418 424.260681,393.901855 
z"/>
<path fill="#000000" opacity="1.000000" stroke="none" 
	d="
M416.394531,366.140289 
	C418.977112,367.479797 418.750122,369.286926 416.882751,370.363831 
	C413.176514,372.501190 412.156586,375.652802 412.286224,379.592926 
	C412.333466,381.029358 412.461914,382.884674 410.346558,383.030090 
	C407.968506,383.193573 407.854767,381.325653 407.792755,379.610168 
	C407.738678,378.114563 407.752289,376.616333 407.745728,375.119232 
	C407.713165,367.678802 407.715088,367.683960 414.617584,366.618042 
	C415.102783,366.543121 415.563507,366.309784 416.394531,366.140289 
z"/>
<path fill="#000000" opacity="1.000000" stroke="none" 
	d="
M357.329346,368.091949 
	C357.318665,372.404907 357.335785,376.229767 357.281647,380.053589 
	C357.262787,381.385529 357.209778,382.888245 355.400330,383.048462 
	C353.390198,383.226440 352.828094,381.822845 352.811432,380.181671 
	C352.757446,374.861481 352.746216,369.540466 352.777496,364.220093 
	C352.786469,362.692505 352.959778,361.075256 355.028320,360.998077 
	C357.220978,360.916260 357.200958,362.612305 357.286346,364.112457 
	C357.352448,365.273163 357.318573,366.439545 357.329346,368.091949 
z"/>
<path fill="#000000" opacity="1.000000" stroke="none" 
	d="
M495.241882,382.804871 
	C493.161163,377.879486 494.275787,373.033386 494.149261,368.256104 
	C494.121674,367.214203 494.793488,366.366211 495.911224,366.123230 
	C497.046234,365.876434 498.076447,366.382690 498.304840,367.405823 
	C499.403412,372.327087 499.493652,377.294312 498.192871,382.190613 
	C497.898102,383.300110 496.629883,383.208710 495.241882,382.804871 
z"/>
<path fill="#000000" opacity="1.000000" stroke="none" 
	d="
M449.553436,408.926605 
	C449.409698,406.218597 449.206635,403.923523 449.165680,401.625610 
	C449.137756,400.060486 449.507111,398.516876 451.521698,398.558716 
	C453.508820,398.599976 453.824219,400.168823 453.847107,401.713531 
	C453.898407,405.168060 453.931000,408.626434 453.818329,412.078247 
	C453.766205,413.675507 453.734894,415.749512 451.386749,415.602600 
	C448.984802,415.452332 449.436493,413.426056 449.485565,411.805054 
	C449.510498,410.982788 449.537262,410.160583 449.553436,408.926605 
z"/>
<path fill="#000000" opacity="1.000000" stroke="none" 
	d="
M495.361938,360.104340 
	C497.967285,359.758484 499.267609,360.629120 498.674255,363.022491 
	C498.345886,364.346832 497.012878,364.640320 495.882233,364.271332 
	C493.473907,363.485321 493.450684,361.995178 495.361938,360.104340 
z"/>
</svg>