<svg version="1.1" id="Layer_1" xmlns="http://www.w3.org/2000/svg" xmlns:xlink="http://www.w3.org/1999/xlink" x="0px" y="0px"
	 width="100%" viewBox="0 0 1125 210" enable-background="new 0 0 1125 210" xml:space="preserve">
<path fill="#FEFEFE" opacity="1.000000" stroke="none" 
	d="
M437.000000,1.000001 
	C666.620544,1.000000 896.241150,1.000000 1125.930908,1.000000 
	C1125.930908,70.939789 1125.930908,140.879654 1125.930908,210.909760 
	C751.000000,210.909760 376.000000,210.909760 1.000004,210.908081 
	C1.000000,179.579376 1.000000,148.252319 1.372713,116.610268 
	C4.104487,131.369659 8.008744,145.902405 16.890806,158.631424 
	C33.383240,182.266953 57.490540,192.211075 84.905197,193.715866 
	C112.964638,195.256058 141.147659,194.594650 169.277206,194.670944 
	C170.793060,194.675064 173.066879,192.911560 173.703079,191.422134 
	C176.437515,185.020386 178.669418,178.405136 181.124298,171.882675 
	C191.767044,143.605621 202.423782,115.333855 213.363037,87.256203 
	C226.496796,121.690498 239.394012,155.909790 252.111252,190.195847 
	C253.403915,193.680878 254.988403,195.017624 258.849731,194.986816 
	C283.164459,194.792786 307.481506,194.893860 331.797791,194.878815 
	C333.402771,194.877823 335.007721,194.722977 337.078552,194.615509 
	C337.078552,173.605515 337.078552,153.029419 337.078552,131.738892 
	C359.910858,131.738892 382.260132,131.738892 404.500122,131.738892 
	C404.500122,114.447655 404.500122,97.882759 404.500122,80.814194 
	C381.863403,80.814194 359.628906,80.814194 336.999634,80.814194 
	C336.999634,74.007545 337.396088,67.675102 336.878815,61.418205 
	C336.435577,56.057007 338.527802,55.105747 343.371216,55.153408 
	C366.519409,55.381191 389.671387,55.300446 412.820892,55.150688 
	C414.591431,55.139233 417.476624,54.167439 417.949341,52.922665 
	C424.493683,35.688824 430.706238,18.328997 437.000000,1.000001 
M579.131897,197.105820 
	C579.619385,195.523773 580.454773,193.957489 580.527161,192.356659 
	C580.722961,188.029480 580.594238,183.687622 580.594238,178.821518 
	C584.788818,181.514496 584.067749,187.500092 590.248962,187.371414 
	C596.154480,187.248459 595.122620,180.917984 599.501465,179.005692 
	C599.501465,185.203522 599.501465,190.955551 599.501465,196.842422 
	C603.204590,196.842422 606.425049,196.842422 609.725098,196.842422 
	C609.725098,182.643646 609.725098,168.764755 609.725098,154.928986 
	C600.157532,153.546875 600.174255,153.555466 596.104736,161.478882 
	C594.245361,165.099258 592.305420,168.678223 589.988525,173.057526 
	C587.661438,168.639877 585.729919,165.044861 583.863892,161.416138 
	C579.743408,153.403259 579.756897,153.396317 570.367432,154.959366 
	C570.367432,168.951874 570.367432,182.959534 570.367432,197.141098 
	C573.232300,197.141098 575.722107,197.141098 579.131897,197.105820 
M925.989014,164.537720 
	C925.989014,175.302032 925.989014,186.066360 925.989014,196.775787 
	C929.811523,196.775787 933.023315,196.775787 936.752075,196.775787 
	C936.752075,190.367050 936.752075,184.330734 936.752075,178.294418 
	C940.742615,182.481201 943.707153,186.981857 946.629578,191.509644 
	C950.849792,198.048111 950.956177,198.105301 959.270386,196.565033 
	C959.270386,182.713913 959.270386,168.830811 959.270386,154.747742 
	C955.707581,154.747742 952.487549,154.747742 948.867554,154.747742 
	C948.867554,161.482407 948.867554,167.866318 948.867554,175.707779 
	C944.980591,169.655640 941.858765,164.833176 938.776184,159.985748 
	C934.749390,153.653549 933.856506,153.291107 925.988708,155.165146 
	C925.988708,157.918274 925.988708,160.736938 925.989014,164.537720 
M654.993408,176.499908 
	C654.993408,183.267700 654.993408,190.035492 654.993408,196.798248 
	C658.782593,196.798248 661.993591,196.798248 665.594971,196.798248 
	C665.594971,192.639465 665.478821,188.834076 665.659668,185.042847 
	C665.720703,183.762802 666.534485,182.518692 667.004272,181.258133 
	C668.145447,182.229324 669.676575,182.985718 670.352783,184.213058 
	C672.189270,187.546661 673.538574,191.147537 675.352112,194.495621 
	C675.955383,195.609375 677.310120,196.900192 678.444580,197.029724 
	C681.511902,197.379883 684.645508,197.149628 688.605591,197.149628 
	C685.441833,190.858749 682.644531,185.296631 679.670410,179.382843 
	C680.268799,178.955994 680.821594,178.589935 681.343994,178.184753 
	C685.919617,174.635773 687.474609,169.985199 685.906921,164.480499 
	C684.292908,158.812851 680.408264,155.244293 674.510681,154.874451 
	C668.119812,154.473724 661.684387,154.783661 654.993958,154.783661 
	C654.993958,161.885162 654.993958,168.692596 654.993408,176.499908 
M629.022278,185.424896 
	C629.099609,183.813599 629.176941,182.202316 629.276794,180.122711 
	C634.505737,180.122711 639.424622,180.122711 644.596313,180.122711 
	C644.596313,176.907639 644.596313,174.182907 644.596313,170.869232 
	C639.280762,170.869232 634.228271,170.869232 629.408691,170.869232 
	C629.408691,168.204575 629.408691,166.136047 629.408691,163.677536 
	C635.558044,163.677536 641.324951,163.677536 647.604492,163.677536 
	C647.604492,161.161499 647.844788,158.999176 647.496887,156.936005 
	C647.337708,155.992325 646.034668,154.532364 645.226196,154.516235 
	C636.462830,154.341309 627.694702,154.406952 618.677612,154.406952 
	C618.677612,168.949249 618.677612,182.838303 618.677612,196.842621 
	C628.375061,196.842621 637.762695,196.842621 647.278992,196.842621 
	C647.278992,193.758789 647.278992,191.019714 647.278992,187.981522 
	C642.304810,187.981522 637.652954,188.101608 633.014404,187.906296 
	C631.671204,187.849747 630.366028,186.888519 629.022278,185.424896 
M860.531067,167.929367 
	C859.398499,164.809143 858.082275,161.740524 857.187195,158.553604 
	C856.361755,155.614624 855.074341,154.205368 851.689209,154.262589 
	C848.459534,154.317215 847.033081,155.477722 846.011047,158.414200 
	C842.027161,169.860458 837.804688,181.223541 833.705872,192.630081 
	C833.235107,193.940079 832.983643,195.328857 832.524353,197.087814 
	C837.625793,196.648407 843.415466,199.755737 844.919678,192.067825 
	C845.001648,191.648727 845.883484,191.104660 846.399902,191.097183 
	C850.052551,191.044220 853.845398,190.556412 857.296387,191.409439 
	C858.788330,191.778259 859.575500,194.998215 860.709656,196.969727 
	C863.994385,196.969727 867.286011,196.969727 871.058044,196.969727 
	C867.572693,187.313904 864.204346,177.982208 860.531067,167.929367 
M756.087402,166.582779 
	C752.509827,176.535934 748.932251,186.489105 745.096436,197.160690 
	C750.294922,196.416962 756.088562,200.110916 757.751282,192.324539 
	C757.856750,191.830429 758.614624,191.126938 759.084534,191.114716 
	C762.736572,191.019577 766.520996,190.518692 769.988342,191.327560 
	C771.533875,191.688126 772.443359,194.775436 773.811829,196.888092 
	C776.807312,196.888092 780.208801,196.888092 784.063843,196.888092 
	C779.330811,183.887619 774.634277,171.318771 770.227417,158.649155 
	C769.130554,155.495453 767.709778,154.266907 764.244873,154.263519 
	C760.695984,154.260056 759.727661,156.083588 758.924194,158.841202 
	C758.229675,161.224640 757.229980,163.519135 756.087402,166.582779 
M999.576843,187.950409 
	C996.063171,178.290619 992.483032,168.654175 989.076721,158.956680 
	C988.067566,156.083511 987.105347,154.222488 983.332214,154.254822 
	C979.600159,154.286835 978.546326,156.038910 977.609619,158.983505 
	C976.254395,163.243500 974.544922,167.389923 973.023560,171.598160 
	C970.009033,179.936829 967.019775,188.284637 963.829468,197.158768 
	C967.015869,197.158768 969.533325,197.428925 971.949097,197.050125 
	C973.247009,196.846603 975.174255,195.721588 975.424377,194.678375 
	C976.243713,191.260849 978.294128,190.742157 981.285583,190.964539 
	C984.081299,191.172348 986.904602,191.008987 989.570251,191.008987 
	C992.729004,198.033905 992.729004,198.033905 1002.490479,196.645523 
	C1001.604675,193.937790 1000.745850,191.312439 999.576843,187.950409 
M549.216125,191.008347 
	C551.792236,190.537125 552.915039,191.775894 553.916138,194.106003 
	C554.492920,195.448654 556.415344,196.688477 557.944275,197.033264 
	C560.132446,197.526688 562.514893,197.158966 565.611145,197.158966 
	C560.495850,183.007141 555.711182,169.461014 550.647766,156.019897 
	C549.623413,153.300873 542.439331,153.598648 541.403931,156.369339 
	C536.429932,169.680252 531.656860,183.066269 526.789062,196.490067 
	C534.471741,197.973892 534.731750,197.835663 539.293701,192.077988 
	C539.791809,191.449310 540.946045,191.116791 541.823914,191.057037 
	C543.975220,190.910645 546.142883,191.004059 549.216125,191.008347 
M718.123718,157.503784 
	C716.802490,158.976685 714.904846,160.232910 714.256226,161.958618 
	C710.747314,171.294174 710.460571,180.898911 714.410583,190.058228 
	C716.979248,196.014328 725.289734,198.634109 732.617432,196.951492 
	C739.062073,195.471649 743.272583,190.598175 743.638123,183.981506 
	C739.234131,184.165375 734.755188,182.383926 731.091187,187.177292 
	C729.061768,189.832260 723.632812,187.861877 723.294800,184.403351 
	C722.749573,178.825394 722.729065,173.124161 723.229858,167.541656 
	C723.555420,163.913742 729.254456,161.924591 731.359375,164.767487 
	C735.010254,169.698120 739.492859,167.534500 743.815186,167.839966 
	C743.838196,156.766907 729.261902,150.170929 718.123718,157.503784 
M441.325226,88.673584 
	C441.325226,100.747414 441.325226,112.821251 441.325226,125.325401 
	C446.498138,125.325401 450.962463,125.353416 455.426117,125.311836 
	C457.253021,125.294823 459.097290,125.259583 460.901276,125.004181 
	C466.978027,124.143875 471.249695,119.791328 470.573395,113.779755 
	C470.152863,110.041733 467.746887,106.527077 466.014008,102.391891 
	C469.464020,99.653099 471.366089,95.207596 469.231781,89.613945 
	C466.943298,83.616356 461.808746,82.491302 456.253723,82.351143 
	C451.477722,82.230637 446.696228,82.326164 441.589661,82.326164 
	C441.483276,84.500015 441.404175,86.116333 441.325226,88.673584 
M872.014954,154.416275 
	C866.182068,156.330658 870.453857,160.491928 869.069092,163.973480 
	C873.080078,163.973480 876.187561,163.973480 879.943237,163.973480 
	C879.943237,175.194351 879.943237,186.058670 879.943237,196.814529 
	C883.678955,196.814529 886.753174,196.814529 890.294922,196.814529 
	C890.294922,185.739044 890.294922,175.004120 890.294922,163.729401 
	C894.008911,163.729401 897.243408,163.729401 900.555420,163.729401 
	C900.555420,160.432190 900.555420,157.696518 900.555420,154.407410 
	C891.150696,154.407410 882.038696,154.407410 872.014954,154.416275 
M522.901611,105.517509 
	C522.901611,101.305305 522.901611,97.093109 522.901611,92.880905 
	C530.403625,102.625153 536.896606,112.614258 543.666077,122.412331 
	C544.742065,123.969757 547.061890,124.667831 549.895691,126.446869 
	C549.895691,112.351318 549.994873,100.223198 549.795837,88.099968 
	C549.763550,86.131180 551.789795,82.370354 547.368835,82.454857 
	C543.420288,82.530342 545.233215,85.968521 545.192322,87.873375 
	C545.001892,96.742096 545.108032,105.617180 545.108032,115.905525 
	C543.204895,113.251305 542.135254,111.846466 541.156982,110.380638 
	C535.619568,102.083580 530.079041,93.788383 524.596924,85.454849 
	C523.015930,83.051567 521.410095,81.137543 518.110779,83.274834 
	C518.110779,96.079712 518.193176,108.881378 518.061279,121.680847 
	C518.020935,125.594711 519.741821,125.671974 522.901123,124.533554 
	C522.901123,118.446526 522.901123,112.478729 522.901611,105.517509 
M902.363098,106.311951 
	C907.235535,105.334595 910.050232,107.423294 911.782593,111.988083 
	C913.129700,115.537712 915.291321,118.769333 916.873535,122.241356 
	C918.230042,125.217888 920.128967,126.082848 923.476440,124.530823 
	C920.330627,118.390572 917.264709,112.406219 914.129883,106.287346 
	C914.888489,105.829208 915.429077,105.470436 915.997925,105.164215 
	C921.623962,102.135536 923.816345,98.020027 922.898254,92.187965 
	C922.048950,86.792542 918.607361,83.312340 912.282837,82.778313 
	C906.387756,82.280563 900.417664,82.671967 894.284180,82.671967 
	C894.284180,96.898293 894.284180,110.921829 894.284180,124.948441 
	C898.518494,124.884117 898.576782,124.885170 898.638306,121.473557 
	C898.707214,117.649559 898.430542,113.802452 898.782410,110.009743 
	C898.902710,108.712250 900.468140,107.548805 902.363098,106.311951 
M801.849060,189.449646 
	C801.849060,191.883865 801.849060,194.318085 801.849060,196.884766 
	C811.535095,196.884766 820.597839,196.884766 829.893127,196.884766 
	C829.893127,193.888733 829.893127,191.165161 829.893127,187.881073 
	C823.926880,187.881073 818.204529,187.881073 811.948975,187.881073 
	C811.948975,176.455734 811.948975,165.580338 811.948975,154.758514 
	C808.311584,154.758514 805.238708,154.758514 801.848450,154.758514 
	C801.848450,166.215714 801.848450,177.339767 801.849060,189.449646 
M441.327728,177.499359 
	C441.327728,183.939346 441.327728,190.379333 441.327728,196.932083 
	C447.892181,196.932083 453.892883,197.406754 459.779724,196.791718 
	C465.118805,196.233902 469.452148,192.978073 469.949219,187.333755 
	C470.600281,179.940842 470.619873,172.435364 470.172180,165.022934 
	C469.880341,160.190613 466.620178,156.316833 461.842987,155.518417 
	C455.248169,154.416183 448.465759,154.436539 441.329437,153.946259 
	C441.329437,162.226730 441.329437,169.363220 441.327728,177.499359 
M954.851013,83.300911 
	C947.794373,82.858879 940.737671,82.416855 933.113464,81.939285 
	C933.113464,96.172401 933.035034,109.425682 933.271729,122.673340 
	C933.289551,123.666275 935.559265,124.618965 936.782227,125.590355 
	C937.190491,125.203331 937.598694,124.816307 938.006958,124.429283 
	C938.006958,118.512093 938.006958,112.594894 938.006958,106.766083 
	C947.546143,105.322563 947.543579,105.323860 951.435059,112.964203 
	C952.941406,115.921608 954.620789,118.803276 955.932251,121.844131 
	C957.293213,124.999474 959.277161,126.014183 962.713623,124.597954 
	C959.606506,118.455482 956.567200,112.447060 953.557800,106.497696 
	C964.683350,99.172775 965.363525,89.560135 954.851013,83.300911 
M683.877686,98.836899 
	C682.237000,83.960304 671.440247,78.222733 654.456726,83.153687 
	C654.456726,97.072182 654.456726,110.970749 654.456726,125.049225 
	C660.287598,125.049225 665.779053,125.320351 671.232300,124.979721 
	C677.855774,124.566002 682.013245,120.796188 683.010559,114.166374 
	C683.723328,109.428169 683.624329,104.567879 683.877686,98.836899 
M792.664551,105.935005 
	C797.153931,105.907074 801.644653,105.802605 806.132324,105.877441 
	C809.254333,105.929497 809.840149,104.593422 808.690430,101.568573 
	C802.873535,101.568573 797.112793,101.568573 791.064819,101.568573 
	C791.064819,96.459984 791.064819,91.771278 791.064819,86.669975 
	C797.576111,86.669975 803.703735,86.754417 809.824158,86.581444 
	C810.772217,86.554642 811.687012,85.349106 812.617188,84.688660 
	C811.817566,83.907852 811.032104,82.466232 810.216064,82.448700 
	C802.281555,82.278259 794.341858,82.346230 786.265137,82.346230 
	C786.265137,96.939278 786.265137,110.959702 786.265137,125.325287 
	C794.044189,125.325287 801.511780,125.420708 808.972046,125.230797 
	C810.206360,125.199387 811.409058,123.920189 812.626343,123.217651 
	C811.417297,122.508865 810.228760,121.232338 808.995728,121.187737 
	C803.065430,120.973236 797.123108,121.091286 790.242065,121.091286 
	C790.769897,115.669418 791.236511,110.876236 792.664551,105.935005 
M996.458130,86.036530 
	C990.976440,81.741371 985.052124,80.971146 978.740662,83.948296 
	C972.393921,86.942017 970.973206,92.579002 970.975220,98.893890 
	C970.976624,103.215446 970.829407,107.553879 971.149475,111.854935 
	C971.771362,120.211304 977.672791,125.559761 985.938782,125.599800 
	C994.178528,125.639717 1000.267517,120.263443 1000.823120,111.958939 
	C1001.177246,106.664490 1001.358765,101.272064 1000.730164,96.029984 
	C1000.339233,92.769638 998.291016,89.708000 996.458130,86.036530 
M601.362122,119.959023 
	C601.948364,120.547432 602.491638,121.187447 603.127563,121.716064 
	C608.047852,125.806282 613.627930,126.518402 619.459900,124.344376 
	C625.164246,122.217903 628.193115,117.905144 628.216248,111.727257 
	C628.237915,105.936584 628.461548,100.120094 628.009094,94.361107 
	C627.471863,87.523193 622.425598,83.141449 614.961060,82.244049 
	C608.746094,81.496872 601.509766,84.960350 600.001038,90.608215 
	C597.453247,100.146210 596.921021,109.884148 601.362122,119.959023 
M767.295227,83.922287 
	C760.290894,83.213463 753.286560,82.504631 746.138306,81.781242 
	C746.138306,96.951408 746.138306,110.856728 746.138306,124.971832 
	C752.079163,124.971832 757.728821,125.280502 763.317383,124.830467 
	C765.793640,124.631065 768.550171,123.382591 770.483948,121.774155 
	C778.174988,115.377098 776.972473,90.767929 768.880371,84.703316 
	C768.615540,84.504784 768.308838,84.362137 767.295227,83.922287 
M1094.736084,82.559860 
	C1085.166748,81.288162 1077.700317,86.249390 1077.089966,94.810867 
	C1076.654663,100.916313 1076.676880,107.104164 1077.121826,113.209564 
	C1077.640259,120.324089 1083.332275,125.039658 1091.061035,125.533165 
	C1098.349976,125.998581 1105.099609,121.495094 1106.020752,114.522217 
	C1106.839111,108.328979 1106.738403,101.964401 1106.505371,95.695465 
	C1106.246338,88.730629 1102.347534,84.387947 1094.736084,82.559860 
M906.980347,168.506775 
	C906.980347,177.932068 906.980347,187.357361 906.980347,196.836060 
	C910.748779,196.836060 913.961426,196.836060 917.047241,196.836060 
	C917.291382,196.194595 917.507080,195.890884 917.508423,195.586243 
	C917.555481,184.784439 917.592773,173.982559 917.609070,163.180664 
	C917.623291,153.721863 917.611084,153.717804 908.075317,154.557907 
	C907.786560,154.583344 907.523010,154.895248 906.980164,155.246933 
	C906.980164,159.220261 906.980164,163.365768 906.980347,168.506775 
M704.614441,169.508560 
	C704.615112,167.347855 704.615479,165.187164 704.616577,163.026459 
	C704.621277,153.542404 704.620850,153.538010 694.932556,154.594528 
	C694.672485,154.622910 694.450806,155.003281 694.306091,155.133835 
	C694.306091,169.115509 694.306091,183.004395 694.306091,196.980484 
	C697.754211,196.980484 700.872253,196.980484 704.613037,196.980484 
	C704.613037,188.033951 704.613037,179.269974 704.614441,169.508560 
M869.434265,82.380539 
	C868.367615,83.437233 866.862976,84.306549 866.315735,85.585487 
	C864.618896,89.551163 863.298828,93.677269 861.809448,97.732613 
	C858.520264,106.688499 855.216980,115.639183 851.919495,124.591988 
	C852.399475,125.028610 852.879517,125.465233 853.359558,125.901855 
	C854.815979,124.702415 857.295349,123.687286 857.550476,122.271400 
	C858.614685,116.364578 861.979980,114.721504 867.420227,115.606003 
	C868.880615,115.843445 870.457642,115.883461 871.902100,115.604622 
	C877.140991,114.593361 880.008118,116.752586 880.909851,121.886528 
	C881.534424,125.442322 883.598572,125.873535 886.759399,124.516129 
	C881.862732,111.199211 877.069214,98.097168 872.190674,85.026825 
	C871.826233,84.050522 870.853516,83.301277 869.434265,82.380539 
M498.083160,89.321014 
	C497.794128,88.541458 497.650757,87.659035 497.187195,87.002762 
	C496.062012,85.409805 494.787872,83.922050 493.573761,82.391884 
	C492.366241,83.969009 490.727600,85.375999 490.026306,87.152924 
	C487.099792,94.568115 484.455933,102.094841 481.706726,109.580032 
	C479.859711,114.608772 478.009827,119.636459 476.161255,124.664619 
	C476.610260,125.050529 477.059296,125.436440 477.508301,125.822350 
	C478.958679,124.757126 481.470276,123.867744 481.680786,122.597099 
	C482.746826,116.163414 486.572815,114.691917 492.282745,115.614075 
	C493.580933,115.823738 494.971649,115.824898 496.268799,115.611671 
	C501.140076,114.810875 504.239624,116.340225 505.012878,121.586044 
	C505.502350,124.906479 507.420502,126.087189 511.012726,124.554710 
	C506.782196,113.049210 502.555237,101.553375 498.083160,89.321014 
M822.310303,117.726448 
	C821.113831,118.331245 819.917297,118.936050 818.270264,119.768585 
	C824.365112,125.466049 830.730591,126.250687 837.550903,124.989967 
	C843.911804,123.814163 847.905334,119.222237 847.871399,113.377937 
	C847.836304,107.323837 844.074646,103.306839 837.323425,102.100159 
	C834.547119,101.603935 831.429077,101.705170 829.101196,100.401375 
	C826.971069,99.208298 824.259827,96.383987 824.397888,94.465088 
	C824.583008,91.892975 826.889221,87.863861 828.956665,87.389565 
	C832.659058,86.540199 836.857239,87.953262 840.860413,88.262001 
	C842.389648,88.379951 843.952515,88.061974 845.500061,87.942657 
	C840.172791,82.197380 834.363464,81.150215 828.025391,82.952591 
	C822.634521,84.485603 819.314758,88.979309 819.397583,94.386879 
	C819.481384,99.859627 822.378418,103.447609 828.207642,104.929749 
	C831.097961,105.664627 834.081421,106.031540 837.021118,106.573891 
	C841.007874,107.309402 843.226135,109.545105 843.097107,113.763649 
	C842.969849,117.924385 840.521423,120.195770 836.731262,120.927910 
	C831.850281,121.870766 827.104492,121.489700 822.310303,117.726448 
M714.421692,125.189705 
	C716.540466,125.189705 718.659180,125.189705 720.612854,125.189705 
	C721.964355,121.370987 720.056641,121.067505 717.533936,121.095497 
	C711.593872,121.161430 705.652588,121.116638 699.465088,121.116638 
	C699.465088,115.845535 699.465088,111.119987 699.465088,105.880852 
	C704.688660,105.880852 709.645630,106.045670 714.577637,105.767769 
	C715.848816,105.696136 717.041626,104.232643 718.270508,103.408546 
	C717.995667,102.830536 717.720825,102.252533 717.445984,101.674530 
	C711.535950,101.674530 705.625916,101.674530 699.549866,101.674530 
	C699.549866,96.461853 699.549866,91.752037 699.549866,86.645905 
	C705.870667,86.645905 711.841736,86.583969 717.810547,86.672585 
	C720.703857,86.715530 721.935242,85.783676 720.707275,82.788055 
	C712.164673,82.788055 703.644226,82.788055 695.171204,82.788055 
	C695.171204,97.106392 695.171204,110.984421 695.171204,125.190491 
	C701.504822,125.190491 707.470337,125.190491 714.421692,125.189705 
M502.307617,158.650711 
	C504.537262,158.001007 509.055542,160.593796 507.825439,154.776962 
	C499.159241,154.776962 490.634094,154.776962 482.164795,154.776962 
	C482.164795,169.093262 482.164795,182.977722 482.164795,196.905411 
	C490.955475,196.905411 499.370789,196.905411 507.788208,196.905411 
	C507.699738,193.233047 507.700439,193.159317 504.518585,193.129639 
	C498.579224,193.074219 492.638947,193.113724 486.480530,193.113724 
	C486.480530,187.825699 486.480530,183.099640 486.480530,177.887253 
	C491.714020,177.887253 496.668884,177.866150 501.623413,177.895721 
	C504.291290,177.911652 505.887787,177.210144 504.194916,173.663071 
	C498.517700,173.663071 492.605408,173.663071 486.565674,173.663071 
	C486.565674,168.448700 486.565674,163.741760 486.565674,158.650940 
	C491.742981,158.650940 496.549103,158.650940 502.307617,158.650711 
M562.730957,88.394485 
	C558.617432,96.787766 559.737305,105.636742 560.903992,114.334335 
	C561.839111,121.306061 568.550354,125.971924 575.791931,125.557289 
	C583.484802,125.116829 588.494385,120.587341 588.881104,112.597153 
	C587.068481,113.353455 585.252380,114.331810 584.317932,115.852097 
	C581.617371,120.245728 577.875610,121.975731 572.922119,121.060333 
	C567.974731,120.146057 565.401489,116.794304 565.114319,112.018105 
	C564.795044,106.708488 564.838379,101.356438 565.083862,96.039474 
	C565.317383,90.982033 568.073792,87.721153 573.139893,86.601379 
	C577.749268,85.582565 581.936523,87.394829 584.137207,92.223473 
	C585.529663,95.278687 587.185486,95.482681 589.811523,94.549286 
	C586.288635,81.314018 573.064575,78.047607 562.730957,88.394485 
M1063.441162,121.100243 
	C1059.360352,121.100243 1055.279541,121.100243 1050.721436,121.100243 
	C1050.721436,107.837692 1050.721436,95.292862 1050.721436,82.420967 
	C1048.973511,82.528679 1047.738892,82.604759 1046.370605,82.689079 
	C1046.370605,96.904037 1046.370605,110.777695 1046.370605,125.183960 
	C1054.566895,125.183960 1062.498047,125.237541 1070.425659,125.095154 
	C1071.160522,125.081955 1071.872925,123.823715 1072.595703,123.143532 
	C1071.862061,122.467262 1071.197388,121.328636 1070.380981,121.206978 
	C1068.429565,120.916122 1066.406616,121.104301 1063.441162,121.100243 
M1018.562195,125.163513 
	C1024.996704,125.163513 1031.431274,125.163513 1037.865845,125.163513 
	C1037.980957,124.310593 1038.096069,123.457664 1038.211182,122.604744 
	C1031.509155,119.004517 1023.371033,122.743484 1016.166138,120.487328 
	C1016.166138,109.146049 1016.252319,98.001343 1016.062866,86.861298 
	C1016.037720,85.379623 1014.612793,83.921745 1013.836060,82.452881 
	C1013.164429,83.862801 1011.931458,85.264435 1011.910461,86.683952 
	C1011.750488,97.509163 1011.827209,108.337875 1011.830078,119.165497 
	C1011.830566,121.080391 1011.830078,122.995293 1011.830078,125.162796 
	C1014.278320,125.162796 1015.929993,125.162796 1018.562195,125.163513 
M639.006592,144.555466 
	C639.904846,143.042831 640.803101,141.530197 641.811829,139.831512 
	C631.616699,139.027481 631.768982,136.928970 629.754211,149.834885 
	C634.671143,151.997482 636.565063,148.447647 639.006592,144.555466 
z"/>
<path fill="#999AAC" opacity="1.000000" stroke="none" 
	d="
M436.531342,1.000001 
	C430.706238,18.328997 424.493683,35.688824 417.949341,52.922665 
	C417.476624,54.167439 414.591431,55.139233 412.820892,55.150688 
	C389.671387,55.300446 366.519409,55.381191 343.371216,55.153408 
	C338.527802,55.105747 336.435577,56.057007 336.878815,61.418205 
	C337.396088,67.675102 336.999634,74.007545 336.999634,80.814194 
	C359.628906,80.814194 381.863403,80.814194 404.500122,80.814194 
	C404.500122,97.882759 404.500122,114.447655 404.500122,131.738892 
	C382.260132,131.738892 359.910858,131.738892 337.078552,131.738892 
	C337.078552,153.029419 337.078552,173.605515 337.078552,194.615509 
	C335.007721,194.722977 333.402771,194.877823 331.797791,194.878815 
	C307.481506,194.893860 283.164459,194.792786 258.849731,194.986816 
	C254.988403,195.017624 253.403915,193.680878 252.111252,190.195847 
	C239.394012,155.909790 226.496796,121.690498 213.334839,86.865158 
	C206.370956,68.276810 199.675064,50.293011 193.093216,32.267567 
	C189.300201,21.879829 185.691605,11.424760 182.000000,0.999999 
	C202.687561,1.000000 223.375122,1.000000 244.679504,1.330187 
	C256.615112,32.141872 267.933868,62.623371 279.252655,93.104874 
	C279.501770,93.018890 279.750885,92.932915 280.000000,92.846939 
	C280.000000,62.231293 280.000000,31.615646 280.000000,1.000000 
	C332.020905,1.000000 384.041779,1.000000 436.531342,1.000001 
z"/>
<path fill="#373A3F" opacity="1.000000" stroke="none" 
	d="
M181.750000,0.999999 
	C185.691605,11.424760 189.300201,21.879829 193.093216,32.267567 
	C199.675064,50.293011 206.370956,68.276810 213.047226,86.669113 
	C202.423782,115.333855 191.767044,143.605621 181.124298,171.882675 
	C178.669418,178.405136 176.437515,185.020386 173.703079,191.422134 
	C173.066879,192.911560 170.793060,194.675064 169.277206,194.670944 
	C141.147659,194.594650 112.964638,195.256058 84.905197,193.715866 
	C57.490540,192.211075 33.383240,182.266953 16.890806,158.631424 
	C8.008744,145.902405 4.104487,131.369659 1.372713,116.147629 
	C1.000000,104.312439 1.000000,92.624878 1.370584,80.327271 
	C2.111257,77.760002 2.521377,75.809387 2.845509,73.844582 
	C8.964031,36.755630 30.750786,13.229030 67.238297,4.451693 
	C72.781532,3.118227 78.410622,2.141649 84.000000,0.999999 
	C106.354225,1.000000 128.708450,1.000000 151.463837,1.363382 
	C145.812393,18.074406 139.670105,34.389858 133.779587,50.795700 
	C132.538651,54.251869 130.977493,55.654686 127.075836,55.596130 
	C116.262550,55.433861 105.420799,55.485020 94.626747,56.095882 
	C75.514793,57.177490 64.875786,66.174492 62.548077,84.596634 
	C61.336040,94.189056 61.665680,104.260208 63.116131,113.839981 
	C65.411354,128.999176 74.292419,137.294220 89.437469,138.780045 
	C102.796577,140.090683 116.296951,139.961487 129.596161,140.462830 
	C130.529419,138.214264 131.217560,136.705276 131.790466,135.153748 
	C141.684006,108.360390 151.592529,81.572495 161.435608,54.760586 
	C168.007568,36.858932 174.481949,18.921448 181.000000,1.000000 
	C181.000000,1.000000 181.500000,1.000000 181.750000,0.999999 
z"/>
<path fill="#FEFEFE" opacity="1.000000" stroke="none" 
	d="
M180.531342,1.000000 
	C174.481949,18.921448 168.007568,36.858932 161.435608,54.760586 
	C151.592529,81.572495 141.684006,108.360390 131.790466,135.153748 
	C131.217560,136.705276 130.529419,138.214264 129.596161,140.462830 
	C116.296951,139.961487 102.796577,140.090683 89.437469,138.780045 
	C74.292419,137.294220 65.411354,128.999176 63.116131,113.839981 
	C61.665680,104.260208 61.336040,94.189056 62.548077,84.596634 
	C64.875786,66.174492 75.514793,57.177490 94.626747,56.095882 
	C105.420799,55.485020 116.262550,55.433861 127.075836,55.596130 
	C130.977493,55.654686 132.538651,54.251869 133.779587,50.795700 
	C139.670105,34.389858 145.812393,18.074406 151.932495,1.363382 
	C161.354233,1.000000 170.708450,1.000000 180.531342,1.000000 
z"/>
<path fill="#FDFDFD" opacity="1.000000" stroke="none" 
	d="
M83.531342,0.999999 
	C78.410622,2.141649 72.781532,3.118227 67.238297,4.451693 
	C30.750786,13.229030 8.964031,36.755630 2.845509,73.844582 
	C2.521377,75.809387 2.111257,77.760002 1.370584,79.858612 
	C1.000000,53.737965 1.000000,27.475927 1.000000,1.000000 
	C28.353857,1.000000 55.708271,1.000000 83.531342,0.999999 
z"/>
<path fill="#FEFEFE" opacity="1.000000" stroke="none" 
	d="
M279.531342,1.000000 
	C280.000000,31.615646 280.000000,62.231293 280.000000,92.846939 
	C279.750885,92.932915 279.501770,93.018890 279.252655,93.104874 
	C267.933868,62.623371 256.615112,32.141872 245.148163,1.330187 
	C256.354218,1.000000 267.708466,1.000000 279.531342,1.000000 
z"/>
<path fill="#646872" opacity="1.000000" stroke="none" 
	d="
M578.671936,197.123459 
	C575.722107,197.141098 573.232300,197.141098 570.367432,197.141098 
	C570.367432,182.959534 570.367432,168.951874 570.367432,154.959366 
	C579.756897,153.396317 579.743408,153.403259 583.863892,161.416138 
	C585.729919,165.044861 587.661438,168.639877 589.988525,173.057526 
	C592.305420,168.678223 594.245361,165.099258 596.104736,161.478882 
	C600.174255,153.555466 600.157532,153.546875 609.725098,154.928986 
	C609.725098,168.764755 609.725098,182.643646 609.725098,196.842422 
	C606.425049,196.842422 603.204590,196.842422 599.501465,196.842422 
	C599.501465,190.955551 599.501465,185.203522 599.501465,179.005692 
	C595.122620,180.917984 596.154480,187.248459 590.248962,187.371414 
	C584.067749,187.500092 584.788818,181.514496 580.594238,178.821518 
	C580.594238,183.687622 580.722961,188.029480 580.527161,192.356659 
	C580.454773,193.957489 579.619385,195.523773 578.671936,197.123459 
z"/>
<path fill="#666A74" opacity="1.000000" stroke="none" 
	d="
M925.988892,164.046661 
	C925.988708,160.736938 925.988708,157.918274 925.988708,155.165146 
	C933.856506,153.291107 934.749390,153.653549 938.776184,159.985748 
	C941.858765,164.833176 944.980591,169.655640 948.867554,175.707779 
	C948.867554,167.866318 948.867554,161.482407 948.867554,154.747742 
	C952.487549,154.747742 955.707581,154.747742 959.270386,154.747742 
	C959.270386,168.830811 959.270386,182.713913 959.270386,196.565033 
	C950.956177,198.105301 950.849792,198.048111 946.629578,191.509644 
	C943.707153,186.981857 940.742615,182.481201 936.752075,178.294418 
	C936.752075,184.330734 936.752075,190.367050 936.752075,196.775787 
	C933.023315,196.775787 929.811523,196.775787 925.989014,196.775787 
	C925.989014,186.066360 925.989014,175.302032 925.988892,164.046661 
z"/>
<path fill="#656973" opacity="1.000000" stroke="none" 
	d="
M654.993652,175.999969 
	C654.993958,168.692596 654.993958,161.885162 654.993958,154.783661 
	C661.684387,154.783661 668.119812,154.473724 674.510681,154.874451 
	C680.408264,155.244293 684.292908,158.812851 685.906921,164.480499 
	C687.474609,169.985199 685.919617,174.635773 681.343994,178.184753 
	C680.821594,178.589935 680.268799,178.955994 679.670410,179.382843 
	C682.644531,185.296631 685.441833,190.858749 688.605591,197.149628 
	C684.645508,197.149628 681.511902,197.379883 678.444580,197.029724 
	C677.310120,196.900192 675.955383,195.609375 675.352112,194.495621 
	C673.538574,191.147537 672.189270,187.546661 670.352783,184.213058 
	C669.676575,182.985718 668.145447,182.229324 667.004272,181.258148 
	C666.534485,182.518692 665.720703,183.762802 665.659668,185.042847 
	C665.478821,188.834076 665.594971,192.639465 665.594971,196.798248 
	C661.993591,196.798248 658.782593,196.798248 654.993408,196.798248 
	C654.993408,190.035492 654.993408,183.267700 654.993652,175.999969 
M674.921265,165.436905 
	C671.906799,164.812912 668.892395,164.188919 665.824280,163.553818 
	C665.824280,167.282608 665.824280,169.805817 665.824280,172.267456 
	C674.509460,173.156418 676.345886,171.901947 674.921265,165.436905 
z"/>
<path fill="#696C76" opacity="1.000000" stroke="none" 
	d="
M629.032837,185.883453 
	C630.366028,186.888519 631.671204,187.849747 633.014404,187.906296 
	C637.652954,188.101608 642.304810,187.981522 647.278992,187.981522 
	C647.278992,191.019714 647.278992,193.758789 647.278992,196.842621 
	C637.762695,196.842621 628.375061,196.842621 618.677612,196.842621 
	C618.677612,182.838303 618.677612,168.949249 618.677612,154.406952 
	C627.694702,154.406952 636.462830,154.341309 645.226196,154.516235 
	C646.034668,154.532364 647.337708,155.992325 647.496887,156.936005 
	C647.844788,158.999176 647.604492,161.161499 647.604492,163.677536 
	C641.324951,163.677536 635.558044,163.677536 629.408691,163.677536 
	C629.408691,166.136047 629.408691,168.204575 629.408691,170.869232 
	C634.228271,170.869232 639.280762,170.869232 644.596313,170.869232 
	C644.596313,174.182907 644.596313,176.907639 644.596313,180.122711 
	C639.424622,180.122711 634.505737,180.122711 629.276794,180.122711 
	C629.176941,182.202316 629.099609,183.813599 629.032837,185.883453 
z"/>
<path fill="#666A74" opacity="1.000000" stroke="none" 
	d="
M860.683533,168.289948 
	C864.204346,177.982208 867.572693,187.313904 871.058044,196.969727 
	C867.286011,196.969727 863.994385,196.969727 860.709656,196.969727 
	C859.575500,194.998215 858.788330,191.778259 857.296387,191.409439 
	C853.845398,190.556412 850.052551,191.044220 846.399902,191.097183 
	C845.883484,191.104660 845.001648,191.648727 844.919678,192.067825 
	C843.415466,199.755737 837.625793,196.648407 832.524353,197.087814 
	C832.983643,195.328857 833.235107,193.940079 833.705872,192.630081 
	C837.804688,181.223541 842.027161,169.860458 846.011047,158.414200 
	C847.033081,155.477722 848.459534,154.317215 851.689209,154.262589 
	C855.074341,154.205368 856.361755,155.614624 857.187195,158.553604 
	C858.082275,161.740524 859.398499,164.809143 860.683533,168.289948 
M849.641479,182.065460 
	C851.375671,182.065460 853.109863,182.065460 855.458618,182.065460 
	C854.217224,178.332718 853.210693,175.306137 852.204102,172.279556 
	C851.830078,172.292496 851.455994,172.305450 851.081909,172.318405 
	C850.337219,175.433044 849.592590,178.547684 849.641479,182.065460 
z"/>
<path fill="#656973" opacity="1.000000" stroke="none" 
	d="
M756.226318,166.217865 
	C757.229980,163.519135 758.229675,161.224640 758.924194,158.841202 
	C759.727661,156.083588 760.695984,154.260056 764.244873,154.263519 
	C767.709778,154.266907 769.130554,155.495453 770.227417,158.649155 
	C774.634277,171.318771 779.330811,183.887619 784.063843,196.888092 
	C780.208801,196.888092 776.807312,196.888092 773.811829,196.888092 
	C772.443359,194.775436 771.533875,191.688126 769.988342,191.327560 
	C766.520996,190.518692 762.736572,191.019577 759.084534,191.114716 
	C758.614624,191.126938 757.856750,191.830429 757.751282,192.324539 
	C756.088562,200.110916 750.294922,196.416962 745.096436,197.160690 
	C748.932251,186.489105 752.509827,176.535934 756.226318,166.217865 
M762.058655,179.097931 
	C761.765686,185.198639 765.790039,180.968567 768.543884,182.333344 
	C767.221619,178.347809 766.219177,175.326462 764.844421,171.182739 
	C763.704163,174.373703 763.003601,176.334213 762.058655,179.097931 
z"/>
<path fill="#656973" opacity="1.000000" stroke="none" 
	d="
M999.731934,188.318756 
	C1000.745850,191.312439 1001.604675,193.937790 1002.490479,196.645523 
	C992.729004,198.033905 992.729004,198.033905 989.570251,191.008987 
	C986.904602,191.008987 984.081299,191.172348 981.285583,190.964539 
	C978.294128,190.742157 976.243713,191.260849 975.424377,194.678375 
	C975.174255,195.721588 973.247009,196.846603 971.949097,197.050125 
	C969.533325,197.428925 967.015869,197.158768 963.829468,197.158768 
	C967.019775,188.284637 970.009033,179.936829 973.023560,171.598160 
	C974.544922,167.389923 976.254395,163.243500 977.609619,158.983505 
	C978.546326,156.038910 979.600159,154.286835 983.332214,154.254822 
	C987.105347,154.222488 988.067566,156.083511 989.076721,158.956680 
	C992.483032,168.654175 996.063171,178.290619 999.731934,188.318756 
M985.870239,177.771881 
	C985.173828,175.760880 984.477417,173.749863 983.527039,171.005371 
	C982.188110,175.067596 981.099060,178.371536 979.968689,181.800934 
	C982.696167,181.800934 984.718323,181.800934 986.954346,181.800934 
	C986.586548,180.433441 986.331421,179.484985 985.870239,177.771881 
z"/>
<path fill="#656973" opacity="1.000000" stroke="none" 
	d="
M548.760010,191.004669 
	C546.142883,191.004059 543.975220,190.910645 541.823914,191.057037 
	C540.946045,191.116791 539.791809,191.449310 539.293701,192.077988 
	C534.731750,197.835663 534.471741,197.973892 526.789062,196.490067 
	C531.656860,183.066269 536.429932,169.680252 541.403931,156.369339 
	C542.439331,153.598648 549.623413,153.300873 550.647766,156.019897 
	C555.711182,169.461014 560.495850,183.007141 565.611145,197.158966 
	C562.514893,197.158966 560.132446,197.526688 557.944275,197.033264 
	C556.415344,196.688477 554.492920,195.448654 553.916138,194.106003 
	C552.915039,191.775894 551.792236,190.537125 548.760010,191.004669 
M545.529419,182.188797 
	C546.813293,182.108444 548.097168,182.028107 549.828064,181.919785 
	C548.722107,178.381546 547.717896,175.168732 546.397888,170.945755 
	C545.097595,174.642715 544.057129,177.223373 543.352905,179.892792 
	C543.194763,180.492142 544.212708,181.401749 545.529419,182.188797 
z"/>
<path fill="#656973" opacity="1.000000" stroke="none" 
	d="
M718.420654,157.278900 
	C729.261902,150.170929 743.838196,156.766907 743.815186,167.839966 
	C739.492859,167.534500 735.010254,169.698120 731.359375,164.767487 
	C729.254456,161.924591 723.555420,163.913742 723.229858,167.541656 
	C722.729065,173.124161 722.749573,178.825394 723.294800,184.403351 
	C723.632812,187.861877 729.061768,189.832260 731.091187,187.177292 
	C734.755188,182.383926 739.234131,184.165375 743.638123,183.981506 
	C743.272583,190.598175 739.062073,195.471649 732.617432,196.951492 
	C725.289734,198.634109 716.979248,196.014328 714.410583,190.058228 
	C710.460571,180.898911 710.747314,171.294174 714.256226,161.958618 
	C714.904846,160.232910 716.802490,158.976685 718.420654,157.278900 
z"/>
<path fill="#72757E" opacity="1.000000" stroke="none" 
	d="
M441.325134,88.203125 
	C441.404175,86.116333 441.483276,84.500015 441.589661,82.326164 
	C446.696228,82.326164 451.477722,82.230637 456.253723,82.351143 
	C461.808746,82.491302 466.943298,83.616356 469.231781,89.613945 
	C471.366089,95.207596 469.464020,99.653099 466.014008,102.391891 
	C467.746887,106.527077 470.152863,110.041733 470.573395,113.779755 
	C471.249695,119.791328 466.978027,124.143875 460.901276,125.004181 
	C459.097290,125.259583 457.253021,125.294823 455.426117,125.311836 
	C450.962463,125.353416 446.498138,125.325401 441.325226,125.325401 
	C441.325226,112.821251 441.325226,100.747414 441.325134,88.203125 
M454.397125,105.677940 
	C451.779053,105.677940 449.161011,105.677940 446.392944,105.677940 
	C446.392944,111.086777 446.392944,115.972389 446.392944,120.982513 
	C450.901031,120.982513 455.075897,121.251419 459.199585,120.907326 
	C463.371521,120.559204 465.918091,117.995964 466.015442,113.679436 
	C466.109619,109.504768 464.142181,106.656479 459.826996,105.918816 
	C458.361938,105.668365 456.840302,105.748810 454.397125,105.677940 
M464.908600,91.097542 
	C460.127350,83.434891 452.781769,87.929123 446.311462,86.593765 
	C446.311462,91.765938 446.311462,96.309395 446.311462,100.859367 
	C447.021881,101.047157 447.479889,101.266457 447.941406,101.274124 
	C450.751617,101.320831 453.563568,101.372559 456.373230,101.323570 
	C463.429535,101.200554 465.426788,99.023376 464.908600,91.097542 
z"/>
<path fill="#656973" opacity="1.000000" stroke="none" 
	d="
M872.470825,154.411835 
	C882.038696,154.407410 891.150696,154.407410 900.555420,154.407410 
	C900.555420,157.696518 900.555420,160.432190 900.555420,163.729401 
	C897.243408,163.729401 894.008911,163.729401 890.294922,163.729401 
	C890.294922,175.004120 890.294922,185.739044 890.294922,196.814529 
	C886.753174,196.814529 883.678955,196.814529 879.943237,196.814529 
	C879.943237,186.058670 879.943237,175.194351 879.943237,163.973480 
	C876.187561,163.973480 873.080078,163.973480 869.069092,163.973480 
	C870.453857,160.491928 866.182068,156.330658 872.470825,154.411835 
z"/>
<path fill="#6F737C" opacity="1.000000" stroke="none" 
	d="
M522.901367,106.014221 
	C522.901123,112.478729 522.901123,118.446526 522.901123,124.533554 
	C519.741821,125.671974 518.020935,125.594711 518.061279,121.680847 
	C518.193176,108.881378 518.110779,96.079712 518.110779,83.274834 
	C521.410095,81.137543 523.015930,83.051567 524.596924,85.454849 
	C530.079041,93.788383 535.619568,102.083580 541.156982,110.380638 
	C542.135254,111.846466 543.204895,113.251305 545.108032,115.905525 
	C545.108032,105.617180 545.001892,96.742096 545.192322,87.873375 
	C545.233215,85.968521 543.420288,82.530342 547.368835,82.454857 
	C551.789795,82.370354 549.763550,86.131180 549.795837,88.099968 
	C549.994873,100.223198 549.895691,112.351318 549.895691,126.446869 
	C547.061890,124.667831 544.742065,123.969757 543.666077,122.412331 
	C536.896606,112.614258 530.403625,102.625153 522.901611,92.880905 
	C522.901611,97.093109 522.901611,101.305305 522.901367,106.014221 
z"/>
<path fill="#6F737B" opacity="1.000000" stroke="none" 
	d="
M901.868225,106.318031 
	C900.468140,107.548805 898.902710,108.712250 898.782410,110.009743 
	C898.430542,113.802452 898.707214,117.649559 898.638306,121.473557 
	C898.576782,124.885170 898.518494,124.884117 894.284180,124.948441 
	C894.284180,110.921829 894.284180,96.898293 894.284180,82.671967 
	C900.417664,82.671967 906.387756,82.280563 912.282837,82.778313 
	C918.607361,83.312340 922.048950,86.792542 922.898254,92.187965 
	C923.816345,98.020027 921.623962,102.135536 915.997925,105.164215 
	C915.429077,105.470436 914.888489,105.829208 914.129883,106.287346 
	C917.264709,112.406219 920.330627,118.390572 923.476440,124.530823 
	C920.128967,126.082848 918.230042,125.217888 916.873535,122.241356 
	C915.291321,118.769333 913.129700,115.537712 911.782593,111.988083 
	C910.050232,107.423294 907.235535,105.334595 901.868225,106.318031 
M913.680542,87.192879 
	C908.781494,87.192879 903.882446,87.192879 899.018921,87.192879 
	C899.018921,92.252296 899.018921,96.984322 899.018921,102.106316 
	C902.856201,102.106316 906.326965,102.101898 909.797729,102.107529 
	C913.371765,102.113327 916.648376,101.226364 917.813965,97.485214 
	C919.035095,93.566071 918.611023,89.837929 913.680542,87.192879 
z"/>
<path fill="#626671" opacity="1.000000" stroke="none" 
	d="
M801.848755,188.956741 
	C801.848450,177.339767 801.848450,166.215714 801.848450,154.758514 
	C805.238708,154.758514 808.311584,154.758514 811.948975,154.758514 
	C811.948975,165.580338 811.948975,176.455734 811.948975,187.881073 
	C818.204529,187.881073 823.926880,187.881073 829.893127,187.881073 
	C829.893127,191.165161 829.893127,193.888733 829.893127,196.884766 
	C820.597839,196.884766 811.535095,196.884766 801.849060,196.884766 
	C801.849060,194.318085 801.849060,191.883865 801.848755,188.956741 
z"/>
<path fill="#72757E" opacity="1.000000" stroke="none" 
	d="
M441.328583,176.999527 
	C441.329437,169.363220 441.329437,162.226730 441.329437,153.946259 
	C448.465759,154.436539 455.248169,154.416183 461.842987,155.518417 
	C466.620178,156.316833 469.880341,160.190613 470.172180,165.022934 
	C470.619873,172.435364 470.600281,179.940842 469.949219,187.333755 
	C469.452148,192.978073 465.118805,196.233902 459.779724,196.791718 
	C453.892883,197.406754 447.892181,196.932083 441.327728,196.932083 
	C441.327728,190.379333 441.327728,183.939346 441.328583,176.999527 
M464.891052,187.982056 
	C465.369537,184.052231 466.217651,180.126526 466.261597,176.191864 
	C466.439087,160.293930 463.446869,157.603683 447.518585,158.775162 
	C447.210815,158.797791 446.915009,158.983170 446.342163,159.191193 
	C446.342163,170.310287 446.342163,181.519974 446.342163,193.141342 
	C452.846924,192.463379 459.744690,195.277878 464.891052,187.982056 
z"/>
<path fill="#6F737B" opacity="1.000000" stroke="none" 
	d="
M955.206909,83.473251 
	C965.363525,89.560135 964.683350,99.172775 953.557800,106.497696 
	C956.567200,112.447060 959.606506,118.455482 962.713623,124.597954 
	C959.277161,126.014183 957.293213,124.999474 955.932251,121.844131 
	C954.620789,118.803276 952.941406,115.921608 951.435059,112.964203 
	C947.543579,105.323860 947.546143,105.322563 938.006958,106.766083 
	C938.006958,112.594894 938.006958,118.512093 938.006958,124.429283 
	C937.598694,124.816307 937.190491,125.203331 936.782227,125.590355 
	C935.559265,124.618965 933.289551,123.666275 933.271729,122.673340 
	C933.035034,109.425682 933.113464,96.172401 933.113464,81.939285 
	C940.737671,82.416855 947.794373,82.858879 955.206909,83.473251 
M949.181885,86.652237 
	C945.582581,86.652237 941.983215,86.652237 938.240723,86.652237 
	C938.240723,92.089760 938.240723,96.947403 938.240723,102.117691 
	C942.072571,102.117691 945.539185,102.177612 949.002930,102.103790 
	C954.330566,101.990257 957.313232,99.595619 957.765747,95.199120 
	C958.236023,90.629753 955.680115,87.804665 949.181885,86.652237 
z"/>
<path fill="#70737C" opacity="1.000000" stroke="none" 
	d="
M683.882568,99.299484 
	C683.624329,104.567879 683.723328,109.428169 683.010559,114.166374 
	C682.013245,120.796188 677.855774,124.566002 671.232300,124.979721 
	C665.779053,125.320351 660.287598,125.049225 654.456726,125.049225 
	C654.456726,110.970749 654.456726,97.072182 654.456726,83.153687 
	C671.440247,78.222733 682.237000,83.960304 683.882568,99.299484 
M677.350525,116.556747 
	C677.740967,109.025253 678.732666,101.449371 678.181641,93.987396 
	C677.999451,91.520134 674.199707,88.190422 671.410950,87.323463 
	C667.700073,86.169838 663.360535,87.038704 659.304443,87.038704 
	C659.304443,98.564499 659.304443,109.743652 659.304443,121.238533 
	C665.621887,120.435555 672.190369,123.103821 677.350525,116.556747 
z"/>
<path fill="#72757E" opacity="1.000000" stroke="none" 
	d="
M792.183838,106.009033 
	C791.236511,110.876236 790.769897,115.669418 790.242065,121.091286 
	C797.123108,121.091286 803.065430,120.973236 808.995728,121.187737 
	C810.228760,121.232338 811.417297,122.508865 812.626343,123.217644 
	C811.409058,123.920189 810.206360,125.199387 808.972046,125.230797 
	C801.511780,125.420708 794.044189,125.325287 786.265137,125.325287 
	C786.265137,110.959702 786.265137,96.939278 786.265137,82.346230 
	C794.341858,82.346230 802.281555,82.278259 810.216064,82.448700 
	C811.032104,82.466232 811.817566,83.907852 812.617188,84.688660 
	C811.687012,85.349106 810.772217,86.554642 809.824158,86.581444 
	C803.703735,86.754417 797.576111,86.669975 791.064819,86.669975 
	C791.064819,91.771278 791.064819,96.459984 791.064819,101.568573 
	C797.112793,101.568573 802.873535,101.568573 808.690430,101.568573 
	C809.840149,104.593422 809.254333,105.929497 806.132324,105.877441 
	C801.644653,105.802605 797.153931,105.907074 792.183838,106.009033 
z"/>
<path fill="#6E717A" opacity="1.000000" stroke="none" 
	d="
M996.722351,86.296860 
	C998.291016,89.708000 1000.339233,92.769638 1000.730164,96.029984 
	C1001.358765,101.272064 1001.177246,106.664490 1000.823120,111.958939 
	C1000.267517,120.263443 994.178528,125.639717 985.938782,125.599800 
	C977.672791,125.559761 971.771362,120.211304 971.149475,111.854935 
	C970.829407,107.553879 970.976624,103.215446 970.975220,98.893890 
	C970.973206,92.579002 972.393921,86.942017 978.740662,83.948296 
	C985.052124,80.971146 990.976440,81.741371 996.722351,86.296860 
M991.844666,119.677719 
	C993.243774,117.327232 995.592957,115.076126 995.851257,112.606308 
	C996.453552,106.848549 996.344177,100.966454 995.967468,95.170845 
	C995.622986,89.870605 990.923218,86.101166 985.734497,86.231094 
	C980.736450,86.356239 976.440247,90.038528 976.020325,95.197411 
	C975.616272,100.161263 975.539978,105.187500 975.796326,110.161758 
	C976.283203,119.609268 982.127686,123.267960 991.844666,119.677719 
z"/>
<path fill="#6D7079" opacity="1.000000" stroke="none" 
	d="
M601.147705,119.647682 
	C596.921021,109.884148 597.453247,100.146210 600.001038,90.608215 
	C601.509766,84.960350 608.746094,81.496872 614.961060,82.244049 
	C622.425598,83.141449 627.471863,87.523193 628.009094,94.361107 
	C628.461548,100.120094 628.237915,105.936584 628.216248,111.727257 
	C628.193115,117.905144 625.164246,122.217903 619.459900,124.344376 
	C613.627930,126.518402 608.047852,125.806282 603.127563,121.716064 
	C602.491638,121.187447 601.948364,120.547432 601.147705,119.647682 
M604.576843,91.436951 
	C604.100952,97.997307 603.169250,104.565277 603.278809,111.115837 
	C603.385864,117.516426 607.496704,121.213593 613.216675,121.352821 
	C619.162903,121.497559 623.285889,117.751434 623.780518,111.184311 
	C624.128479,106.564713 624.023254,101.893379 623.840088,97.256218 
	C623.650635,92.458733 621.870544,88.525223 616.829651,86.920799 
	C611.967468,85.373238 608.063721,86.812592 604.576843,91.436951 
z"/>
<path fill="#696D76" opacity="1.000000" stroke="none" 
	d="
M767.658447,84.057869 
	C768.308838,84.362137 768.615540,84.504784 768.880371,84.703316 
	C776.972473,90.767929 778.174988,115.377098 770.483948,121.774155 
	C768.550171,123.382591 765.793640,124.631065 763.317383,124.830467 
	C757.728821,125.280502 752.079163,124.971832 746.138306,124.971832 
	C746.138306,110.856728 746.138306,96.951408 746.138306,81.781242 
	C753.286560,82.504631 760.290894,83.213463 767.658447,84.057869 
M750.163330,109.478836 
	C750.163330,113.239410 750.163330,116.999977 750.163330,121.014664 
	C754.434692,121.014664 758.077454,121.239227 761.680603,120.957466 
	C766.123840,120.610016 769.507690,118.099327 769.861877,113.641144 
	C770.382202,107.089745 770.329224,100.447304 769.903381,93.883675 
	C769.656616,90.079292 766.738770,87.513039 762.975647,87.089714 
	C758.936646,86.635361 754.807068,86.987144 750.163269,86.987144 
	C750.163269,94.295464 750.163269,101.390945 750.163330,109.478836 
z"/>
<path fill="#6B6E77" opacity="1.000000" stroke="none" 
	d="
M1095.123291,82.671738 
	C1102.347534,84.387947 1106.246338,88.730629 1106.505371,95.695465 
	C1106.738403,101.964401 1106.839111,108.328979 1106.020752,114.522217 
	C1105.099609,121.495094 1098.349976,125.998581 1091.061035,125.533165 
	C1083.332275,125.039658 1077.640259,120.324089 1077.121826,113.209564 
	C1076.676880,107.104164 1076.654663,100.916313 1077.089966,94.810867 
	C1077.700317,86.249390 1085.166748,81.288162 1095.123291,82.671738 
M1089.285767,86.664757 
	C1084.502808,87.877007 1081.833130,90.999908 1081.658447,95.869194 
	C1081.462891,101.318794 1081.236450,106.823006 1081.775635,112.228432 
	C1082.384399,118.332176 1086.477661,121.544838 1092.125610,121.351089 
	C1097.755737,121.157936 1101.546387,117.547897 1101.924194,111.516678 
	C1102.214478,106.884041 1102.195557,102.215027 1102.016113,97.573730 
	C1101.708008,89.611969 1098.129883,86.390938 1089.285767,86.664757 
z"/>
<path fill="#696D76" opacity="1.000000" stroke="none" 
	d="
M906.980225,168.009033 
	C906.980164,163.365768 906.980164,159.220261 906.980164,155.246933 
	C907.523010,154.895248 907.786560,154.583344 908.075317,154.557907 
	C917.611084,153.717804 917.623291,153.721863 917.609070,163.180664 
	C917.592773,173.982559 917.555481,184.784439 917.508423,195.586243 
	C917.507080,195.890884 917.291382,196.194595 917.047241,196.836060 
	C913.961426,196.836060 910.748779,196.836060 906.980347,196.836060 
	C906.980347,187.357361 906.980347,177.932068 906.980225,168.009033 
z"/>
<path fill="#696D76" opacity="1.000000" stroke="none" 
	d="
M704.613770,170.007294 
	C704.613037,179.269974 704.613037,188.033951 704.613037,196.980484 
	C700.872253,196.980484 697.754211,196.980484 694.306091,196.980484 
	C694.306091,183.004395 694.306091,169.115509 694.306091,155.133835 
	C694.450806,155.003281 694.672485,154.622910 694.932556,154.594528 
	C704.620850,153.538010 704.621277,153.542404 704.616577,163.026459 
	C704.615479,165.187164 704.615112,167.347855 704.613770,170.007294 
z"/>
<path fill="#6D7079" opacity="1.000000" stroke="none" 
	d="
M869.798950,82.413506 
	C870.853516,83.301277 871.826233,84.050522 872.190674,85.026825 
	C877.069214,98.097168 881.862732,111.199211 886.759399,124.516129 
	C883.598572,125.873535 881.534424,125.442322 880.909851,121.886528 
	C880.008118,116.752586 877.140991,114.593361 871.902100,115.604622 
	C870.457642,115.883461 868.880615,115.843445 867.420227,115.606003 
	C861.979980,114.721504 858.614685,116.364578 857.550476,122.271400 
	C857.295349,123.687286 854.815979,124.702415 853.359558,125.901855 
	C852.879517,125.465233 852.399475,125.028610 851.919495,124.591988 
	C855.216980,115.639183 858.520264,106.688499 861.809448,97.732613 
	C863.298828,93.677269 864.618896,89.551163 866.315735,85.585487 
	C866.862976,84.306549 868.367615,83.437233 869.798950,82.413506 
M867.561218,94.181396 
	C865.616150,99.740959 863.671021,105.300514 861.643066,111.097015 
	C867.152039,111.097015 871.972961,111.097015 877.208313,111.097015 
	C874.592529,103.741180 872.191406,96.988815 869.507141,89.440376 
	C868.718323,91.365166 868.284546,92.423706 867.561218,94.181396 
z"/>
<path fill="#6D7079" opacity="1.000000" stroke="none" 
	d="
M498.205688,89.689270 
	C502.555237,101.553375 506.782196,113.049210 511.012726,124.554710 
	C507.420502,126.087189 505.502350,124.906479 505.012878,121.586044 
	C504.239624,116.340225 501.140076,114.810875 496.268799,115.611671 
	C494.971649,115.824898 493.580933,115.823738 492.282745,115.614075 
	C486.572815,114.691917 482.746826,116.163414 481.680786,122.597099 
	C481.470276,123.867744 478.958679,124.757126 477.508301,125.822350 
	C477.059296,125.436440 476.610260,125.050529 476.161255,124.664619 
	C478.009827,119.636459 479.859711,114.608772 481.706726,109.580032 
	C484.455933,102.094841 487.099792,94.568115 490.026306,87.152924 
	C490.727600,85.375999 492.366241,83.969009 493.573730,82.391891 
	C494.787872,83.922050 496.062012,85.409805 497.187195,87.002762 
	C497.650757,87.659035 497.794128,88.541458 498.205688,89.689270 
M492.218811,92.937180 
	C490.117950,98.978577 488.017059,105.019966 485.842010,111.274612 
	C491.274536,111.274612 496.009003,111.274612 501.494690,111.274612 
	C498.880493,103.890175 496.458099,97.047607 493.741730,89.374542 
	C493.047943,91.044685 492.794128,91.655724 492.218811,92.937180 
z"/>
<path fill="#6D7079" opacity="1.000000" stroke="none" 
	d="
M822.670410,117.935295 
	C827.104492,121.489700 831.850281,121.870766 836.731262,120.927910 
	C840.521423,120.195770 842.969849,117.924385 843.097107,113.763649 
	C843.226135,109.545105 841.007874,107.309402 837.021118,106.573891 
	C834.081421,106.031540 831.097961,105.664627 828.207642,104.929749 
	C822.378418,103.447609 819.481384,99.859627 819.397583,94.386879 
	C819.314758,88.979309 822.634521,84.485603 828.025391,82.952591 
	C834.363464,81.150215 840.172791,82.197380 845.500061,87.942657 
	C843.952515,88.061974 842.389648,88.379951 840.860413,88.262001 
	C836.857239,87.953262 832.659058,86.540199 828.956665,87.389565 
	C826.889221,87.863861 824.583008,91.892975 824.397888,94.465088 
	C824.259827,96.383987 826.971069,99.208298 829.101196,100.401375 
	C831.429077,101.705170 834.547119,101.603935 837.323425,102.100159 
	C844.074646,103.306839 847.836304,107.323837 847.871399,113.377937 
	C847.905334,119.222237 843.911804,123.814163 837.550903,124.989967 
	C830.730591,126.250687 824.365112,125.466049 818.270264,119.768585 
	C819.917297,118.936050 821.113831,118.331245 822.670410,117.935295 
z"/>
<path fill="#6E717A" opacity="1.000000" stroke="none" 
	d="
M713.928833,125.190094 
	C707.470337,125.190491 701.504822,125.190491 695.171204,125.190491 
	C695.171204,110.984421 695.171204,97.106392 695.171204,82.788055 
	C703.644226,82.788055 712.164673,82.788055 720.707275,82.788055 
	C721.935242,85.783676 720.703857,86.715530 717.810547,86.672585 
	C711.841736,86.583969 705.870667,86.645905 699.549866,86.645905 
	C699.549866,91.752037 699.549866,96.461853 699.549866,101.674530 
	C705.625916,101.674530 711.535950,101.674530 717.445984,101.674530 
	C717.720825,102.252533 717.995667,102.830536 718.270508,103.408546 
	C717.041626,104.232643 715.848816,105.696136 714.577637,105.767769 
	C709.645630,106.045670 704.688660,105.880852 699.465088,105.880852 
	C699.465088,111.119987 699.465088,115.845535 699.465088,121.116638 
	C705.652588,121.116638 711.593872,121.161430 717.533936,121.095497 
	C720.056641,121.067505 721.964355,121.370987 720.612854,125.189705 
	C718.659180,125.189705 716.540466,125.189705 713.928833,125.190094 
z"/>
<path fill="#6E717A" opacity="1.000000" stroke="none" 
	d="
M501.831421,158.650818 
	C496.549103,158.650940 491.742981,158.650940 486.565674,158.650940 
	C486.565674,163.741760 486.565674,168.448700 486.565674,173.663071 
	C492.605408,173.663071 498.517700,173.663071 504.194916,173.663071 
	C505.887787,177.210144 504.291290,177.911652 501.623413,177.895721 
	C496.668884,177.866150 491.714020,177.887253 486.480530,177.887253 
	C486.480530,183.099640 486.480530,187.825699 486.480530,193.113724 
	C492.638947,193.113724 498.579224,193.074219 504.518585,193.129639 
	C507.700439,193.159317 507.699738,193.233047 507.788208,196.905411 
	C499.370789,196.905411 490.955475,196.905411 482.164795,196.905411 
	C482.164795,182.977722 482.164795,169.093262 482.164795,154.776962 
	C490.634094,154.776962 499.159241,154.776962 507.825439,154.776962 
	C509.055542,160.593796 504.537262,158.001007 501.831421,158.650818 
z"/>
<path fill="#6D7079" opacity="1.000000" stroke="none" 
	d="
M562.934570,88.077637 
	C573.064575,78.047607 586.288635,81.314018 589.811523,94.549286 
	C587.185486,95.482681 585.529663,95.278687 584.137207,92.223473 
	C581.936523,87.394829 577.749268,85.582565 573.139893,86.601379 
	C568.073792,87.721153 565.317383,90.982033 565.083862,96.039474 
	C564.838379,101.356438 564.795044,106.708488 565.114319,112.018105 
	C565.401489,116.794304 567.974731,120.146057 572.922119,121.060333 
	C577.875610,121.975731 581.617371,120.245728 584.317932,115.852097 
	C585.252380,114.331810 587.068481,113.353455 588.881104,112.597153 
	C588.494385,120.587341 583.484802,125.116829 575.791931,125.557289 
	C568.550354,125.971924 561.839111,121.306061 560.903992,114.334335 
	C559.737305,105.636742 558.617432,96.787766 562.934570,88.077637 
z"/>
<path fill="#71757C" opacity="1.000000" stroke="none" 
	d="
M1063.926880,121.099655 
	C1066.406616,121.104301 1068.429565,120.916122 1070.380981,121.206978 
	C1071.197388,121.328636 1071.862061,122.467262 1072.595703,123.143555 
	C1071.872925,123.823715 1071.160522,125.081955 1070.425659,125.095154 
	C1062.498047,125.237541 1054.566895,125.183960 1046.370605,125.183960 
	C1046.370605,110.777695 1046.370605,96.904037 1046.370605,82.689079 
	C1047.738892,82.604759 1048.973511,82.528679 1050.721436,82.420967 
	C1050.721436,95.292862 1050.721436,107.837692 1050.721436,121.100243 
	C1055.279541,121.100243 1059.360352,121.100243 1063.926880,121.099655 
z"/>
<path fill="#666A74" opacity="1.000000" stroke="none" 
	d="
M1018.071899,125.163155 
	C1015.929993,125.162796 1014.278320,125.162796 1011.830078,125.162796 
	C1011.830078,122.995293 1011.830566,121.080391 1011.830078,119.165497 
	C1011.827209,108.337875 1011.750488,97.509163 1011.910461,86.683952 
	C1011.931458,85.264435 1013.164429,83.862801 1013.836060,82.452866 
	C1014.612793,83.921745 1016.037720,85.379623 1016.062866,86.861298 
	C1016.252319,98.001343 1016.166138,109.146049 1016.166138,120.487328 
	C1023.371033,122.743484 1031.509155,119.004517 1038.211182,122.604744 
	C1038.096069,123.457664 1037.980957,124.310593 1037.865845,125.163513 
	C1031.431274,125.163513 1024.996704,125.163513 1018.071899,125.163155 
z"/>
<path fill="#71757C" opacity="1.000000" stroke="none" 
	d="
M638.800415,144.853241 
	C636.565063,148.447647 634.671143,151.997482 629.754211,149.834885 
	C631.768982,136.928970 631.616699,139.027481 641.811829,139.831512 
	C640.803101,141.530197 639.904846,143.042831 638.800415,144.853241 
z"/>
<path fill="#F4F4F5" opacity="1.000000" stroke="none" 
	d="
M675.147217,165.773285 
	C676.345886,171.901947 674.509460,173.156418 665.824280,172.267456 
	C665.824280,169.805817 665.824280,167.282608 665.824280,163.553818 
	C668.892395,164.188919 671.906799,164.812912 675.147217,165.773285 
z"/>
<path fill="#F4F4F5" opacity="1.000000" stroke="none" 
	d="
M849.244690,181.863892 
	C849.592590,178.547684 850.337219,175.433044 851.081909,172.318405 
	C851.455994,172.305450 851.830078,172.292496 852.204102,172.279556 
	C853.210693,175.306137 854.217224,178.332718 855.458618,182.065460 
	C853.109863,182.065460 851.375671,182.065460 849.244690,181.863892 
z"/>
<path fill="#F4F4F5" opacity="1.000000" stroke="none" 
	d="
M762.180847,178.696320 
	C763.003601,176.334213 763.704163,174.373703 764.844421,171.182739 
	C766.219177,175.326462 767.221619,178.347809 768.543884,182.333344 
	C765.790039,180.968567 761.765686,185.198639 762.180847,178.696320 
z"/>
<path fill="#F4F4F5" opacity="1.000000" stroke="none" 
	d="
M985.973267,178.154205 
	C986.331421,179.484985 986.586548,180.433441 986.954346,181.800934 
	C984.718323,181.800934 982.696167,181.800934 979.968689,181.800934 
	C981.099060,178.371536 982.188110,175.067596 983.527039,171.005371 
	C984.477417,173.749863 985.173828,175.760880 985.973267,178.154205 
z"/>
<path fill="#F4F4F5" opacity="1.000000" stroke="none" 
	d="
M545.109314,182.178650 
	C544.212708,181.401749 543.194763,180.492142 543.352905,179.892792 
	C544.057129,177.223373 545.097595,174.642715 546.397888,170.945755 
	C547.717896,175.168732 548.722107,178.381546 549.828064,181.919785 
	C548.097168,182.028107 546.813293,182.108444 545.109314,182.178650 
z"/>
<path fill="#FEFEFE" opacity="1.000000" stroke="none" 
	d="
M454.870819,105.677994 
	C456.840302,105.748810 458.361938,105.668365 459.826996,105.918816 
	C464.142181,106.656479 466.109619,109.504768 466.015442,113.679436 
	C465.918091,117.995964 463.371521,120.559204 459.199585,120.907326 
	C455.075897,121.251419 450.901031,120.982513 446.392944,120.982513 
	C446.392944,115.972389 446.392944,111.086777 446.392944,105.677940 
	C449.161011,105.677940 451.779053,105.677940 454.870819,105.677994 
z"/>
<path fill="#FDFDFD" opacity="1.000000" stroke="none" 
	d="
M465.000336,91.510834 
	C465.426788,99.023376 463.429535,101.200554 456.373230,101.323570 
	C453.563568,101.372559 450.751617,101.320831 447.941406,101.274124 
	C447.479889,101.266457 447.021881,101.047157 446.311462,100.859367 
	C446.311462,96.309395 446.311462,91.765938 446.311462,86.593765 
	C452.781769,87.929123 460.127350,83.434891 465.000336,91.510834 
z"/>
<path fill="#FDFDFD" opacity="1.000000" stroke="none" 
	d="
M914.070068,87.375198 
	C918.611023,89.837929 919.035095,93.566071 917.813965,97.485214 
	C916.648376,101.226364 913.371765,102.113327 909.797729,102.107529 
	C906.326965,102.101898 902.856201,102.106316 899.018921,102.106316 
	C899.018921,96.984322 899.018921,92.252296 899.018921,87.192879 
	C903.882446,87.192879 908.781494,87.192879 914.070068,87.375198 
z"/>
<path fill="#FEFEFE" opacity="1.000000" stroke="none" 
	d="
M464.714417,188.347626 
	C459.744690,195.277878 452.846924,192.463379 446.342163,193.141342 
	C446.342163,181.519974 446.342163,170.310287 446.342163,159.191193 
	C446.915009,158.983170 447.210815,158.797791 447.518585,158.775162 
	C463.446869,157.603683 466.439087,160.293930 466.261597,176.191864 
	C466.217651,180.126526 465.369537,184.052231 464.714417,188.347626 
z"/>
<path fill="#FBFBFC" opacity="1.000000" stroke="none" 
	d="
M949.632874,86.680298 
	C955.680115,87.804665 958.236023,90.629753 957.765747,95.199120 
	C957.313232,99.595619 954.330566,101.990257 949.002930,102.103790 
	C945.539185,102.177612 942.072571,102.117691 938.240723,102.117691 
	C938.240723,96.947403 938.240723,92.089760 938.240723,86.652237 
	C941.983215,86.652237 945.582581,86.652237 949.632874,86.680298 
z"/>
<path fill="#FEFEFE" opacity="1.000000" stroke="none" 
	d="
M677.144287,116.898109 
	C672.190369,123.103821 665.621887,120.435555 659.304443,121.238533 
	C659.304443,109.743652 659.304443,98.564499 659.304443,87.038704 
	C663.360535,87.038704 667.700073,86.169838 671.410950,87.323463 
	C674.199707,88.190422 677.999451,91.520134 678.181641,93.987396 
	C678.732666,101.449371 677.740967,109.025253 677.144287,116.898109 
z"/>
<path fill="#FDFDFD" opacity="1.000000" stroke="none" 
	d="
M991.491455,119.870667 
	C982.127686,123.267960 976.283203,119.609268 975.796326,110.161758 
	C975.539978,105.187500 975.616272,100.161263 976.020325,95.197411 
	C976.440247,90.038528 980.736450,86.356239 985.734497,86.231094 
	C990.923218,86.101166 995.622986,89.870605 995.967468,95.170845 
	C996.344177,100.966454 996.453552,106.848549 995.851257,112.606308 
	C995.592957,115.076126 993.243774,117.327232 991.491455,119.870667 
z"/>
<path fill="#FDFDFD" opacity="1.000000" stroke="none" 
	d="
M604.774658,91.095497 
	C608.063721,86.812592 611.967468,85.373238 616.829651,86.920799 
	C621.870544,88.525223 623.650635,92.458733 623.840088,97.256218 
	C624.023254,101.893379 624.128479,106.564713 623.780518,111.184311 
	C623.285889,117.751434 619.162903,121.497559 613.216675,121.352821 
	C607.496704,121.213593 603.385864,117.516426 603.278809,111.115837 
	C603.169250,104.565277 604.100952,97.997307 604.774658,91.095497 
z"/>
<path fill="#FBFBFC" opacity="1.000000" stroke="none" 
	d="
M750.163330,108.982635 
	C750.163269,101.390945 750.163269,94.295464 750.163269,86.987144 
	C754.807068,86.987144 758.936646,86.635361 762.975647,87.089714 
	C766.738770,87.513039 769.656616,90.079292 769.903381,93.883675 
	C770.329224,100.447304 770.382202,107.089745 769.861877,113.641144 
	C769.507690,118.099327 766.123840,120.610016 761.680603,120.957466 
	C758.077454,121.239227 754.434692,121.014664 750.163330,121.014664 
	C750.163330,116.999977 750.163330,113.239410 750.163330,108.982635 
z"/>
<path fill="#FCFCFC" opacity="1.000000" stroke="none" 
	d="
M1089.648682,86.539719 
	C1098.129883,86.390938 1101.708008,89.611969 1102.016113,97.573730 
	C1102.195557,102.215027 1102.214478,106.884041 1101.924194,111.516678 
	C1101.546387,117.547897 1097.755737,121.157936 1092.125610,121.351089 
	C1086.477661,121.544838 1082.384399,118.332176 1081.775635,112.228432 
	C1081.236450,106.823006 1081.462891,101.318794 1081.658447,95.869194 
	C1081.833130,90.999908 1084.502808,87.877007 1089.648682,86.539719 
z"/>
<path fill="#F4F4F5" opacity="1.000000" stroke="none" 
	d="
M867.705933,93.831825 
	C868.284546,92.423706 868.718323,91.365166 869.507141,89.440376 
	C872.191406,96.988815 874.592529,103.741180 877.208313,111.097015 
	C871.972961,111.097015 867.152039,111.097015 861.643066,111.097015 
	C863.671021,105.300514 865.616150,99.740959 867.705933,93.831825 
z"/>
<path fill="#F4F4F5" opacity="1.000000" stroke="none" 
	d="
M492.379547,92.601974 
	C492.794128,91.655724 493.047943,91.044685 493.741730,89.374542 
	C496.458099,97.047607 498.880493,103.890175 501.494690,111.274612 
	C496.009003,111.274612 491.274536,111.274612 485.842010,111.274612 
	C488.017059,105.019966 490.117950,98.978577 492.379547,92.601974 
z"/>
</svg>