<svg version="1.1" id="Layer_1" xmlns="http://www.w3.org/2000/svg" xmlns:xlink="http://www.w3.org/1999/xlink" x="0px" y="0px"
	 width="100%" viewBox="0 0 2048 512" enable-background="new 0 0 2048 512" xml:space="preserve">
<path fill="#FEFEFE" opacity="1.000000" stroke="none" 
	d="
M1486.000000,513.000000 
	C990.666687,513.000000 495.833344,513.000000 1.000000,513.000000 
	C1.000000,342.333344 1.000000,171.666672 1.000000,1.000000 
	C683.666687,1.000000 1366.333374,1.000000 2049.000000,1.000000 
	C2049.000000,171.666672 2049.000000,342.333344 2049.000000,513.000000 
	C1861.500000,513.000000 1674.000000,513.000000 1486.000000,513.000000 
M1027.257690,369.183868 
	C1035.528076,388.081116 1046.339111,405.337799 1060.788940,420.136383 
	C1095.069336,455.244202 1137.165894,472.236176 1185.876465,473.579376 
	C1206.893188,474.158936 1227.793945,472.883423 1247.955688,466.452057 
	C1271.313232,459.001160 1291.877686,446.798615 1308.674072,428.660675 
	C1310.311279,426.892609 1312.160156,425.320435 1315.006104,422.616730 
	C1315.006104,438.842194 1315.006104,453.668549 1315.006104,468.636108 
	C1342.165039,468.636108 1368.566650,468.636108 1395.083740,468.636108 
	C1395.083740,348.425842 1395.083740,228.534637 1395.083740,108.340790 
	C1366.835205,108.340790 1339.107544,108.340790 1310.860840,108.340790 
	C1310.860840,122.639618 1310.860840,136.672928 1310.860840,151.801300 
	C1308.854858,150.031815 1307.631958,149.044235 1306.511719,147.951538 
	C1284.863647,126.835419 1258.907593,113.632607 1229.528320,107.558861 
	C1195.058716,100.432793 1160.861084,103.227058 1127.725952,114.595665 
	C1098.035767,124.782310 1073.189941,142.558517 1053.127441,166.892258 
	C1029.115845,196.015869 1016.711304,229.884140 1013.003540,266.974091 
	C1009.521667,301.804810 1013.301636,335.876434 1027.257690,369.183868 
M1596.598022,397.005493 
	C1574.223511,391.834229 1553.827881,382.117004 1534.935791,369.573486 
	C1534.235474,370.178436 1533.891968,370.343628 1533.752563,370.614105 
	C1523.401367,390.678345 1513.115234,410.776550 1502.666870,430.790039 
	C1501.384766,433.245697 1501.995850,434.350922 1504.108398,435.520447 
	C1510.185547,438.884857 1516.068115,442.632202 1522.285522,445.706635 
	C1553.386475,461.085541 1586.734375,468.902405 1620.917358,472.287384 
	C1649.697632,475.137390 1678.666992,475.352570 1707.405884,469.838379 
	C1727.075562,466.064331 1746.148438,460.820526 1763.799927,451.135559 
	C1789.702271,436.923553 1809.830566,417.403595 1817.239990,387.978760 
	C1821.555176,370.841797 1821.498413,353.295837 1816.508545,335.791382 
	C1810.880981,316.049744 1799.405029,301.263000 1782.564087,290.039001 
	C1761.972778,276.315491 1738.733398,269.895111 1714.925293,264.986847 
	C1703.583618,262.648651 1692.181519,260.603210 1680.807373,258.422394 
	C1666.292236,255.639389 1651.698730,253.204697 1637.287476,249.960449 
	C1625.244385,247.249313 1613.004517,244.630432 1601.578979,240.125961 
	C1579.812622,231.544662 1575.492188,207.811554 1591.937134,191.133865 
	C1601.863159,181.067245 1614.666382,176.475128 1628.111328,174.970627 
	C1643.115479,173.291641 1658.347412,172.849014 1673.458618,173.109863 
	C1697.221802,173.520081 1720.242676,178.271881 1741.986450,188.231430 
	C1748.972290,191.431244 1755.816162,194.940964 1762.893188,198.390945 
	C1773.587891,177.576569 1784.068359,157.274887 1794.341919,136.869095 
	C1794.799927,135.959473 1793.786255,133.353455 1792.769775,132.798676 
	C1774.735107,122.955536 1755.533569,115.942688 1735.540649,111.588425 
	C1722.109253,108.663185 1708.335327,107.154625 1694.648560,105.591606 
	C1670.215088,102.801346 1645.765259,103.087540 1621.556152,107.655670 
	C1603.108765,111.136627 1585.322266,116.689919 1568.756470,125.944130 
	C1535.841187,144.331757 1515.587891,170.846298 1513.416138,209.547440 
	C1512.313599,229.191986 1514.797485,248.122360 1524.324341,265.575836 
	C1537.410156,289.549072 1559.531616,301.421906 1584.526367,308.693390 
	C1598.143921,312.655060 1612.089966,315.587524 1626.006348,318.397858 
	C1644.216309,322.075256 1662.609497,324.853821 1680.796997,328.629944 
	C1693.401611,331.246918 1706.027344,334.189209 1718.220703,338.254608 
	C1734.835205,343.794098 1741.710449,355.934082 1738.579224,372.794769 
	C1736.416382,384.441620 1728.352417,391.552826 1717.987671,396.120789 
	C1702.850342,402.792145 1686.535522,404.088867 1670.376221,405.001617 
	C1645.703979,406.395203 1621.340698,403.332520 1596.598022,397.005493 
M322.321716,463.059418 
	C334.687256,465.968842 346.919250,469.820587 359.445496,471.596313 
	C387.679962,475.598755 415.785583,474.711243 443.485046,466.806824 
	C470.694672,459.042236 494.744141,445.918182 515.241943,426.327667 
	C526.254578,415.802490 535.391418,403.949188 542.435730,389.777527 
	C520.938110,376.979889 499.741760,364.361572 478.210754,351.544067 
	C476.834259,353.652496 475.790405,355.311096 474.688263,356.929962 
	C467.316956,367.757111 458.612244,377.342743 447.671844,384.633606 
	C418.395905,404.143555 386.448456,407.963165 353.854919,396.451599 
	C313.187988,382.088593 289.995636,351.916321 283.247162,309.399658 
	C280.401062,291.468811 281.551910,273.622650 286.073730,255.946487 
	C292.415710,231.155197 305.580170,210.967728 326.122986,195.779602 
	C349.630310,178.399673 376.140442,172.602844 404.918121,176.334930 
	C425.464264,178.999527 443.469391,187.384827 458.451294,201.578873 
	C465.863922,208.601715 472.216919,216.742966 479.279205,224.635101 
	C499.887054,212.346176 520.946716,199.787827 543.185364,186.526459 
	C535.839111,176.558853 529.602722,166.688065 521.992920,158.023514 
	C493.784882,125.905922 456.998047,110.551926 415.415344,105.448586 
	C384.444733,101.647621 354.107941,104.869064 324.330444,114.403313 
	C254.239090,136.845352 206.798065,197.435364 200.199219,269.579132 
	C197.630402,297.663361 200.110550,325.307739 209.532684,352.191681 
	C228.877670,407.388153 267.141327,443.277008 322.321716,463.059418 
M943.272034,109.211182 
	C912.379700,109.211182 881.487427,109.211182 850.263184,109.211182 
	C850.263184,106.708076 850.258301,105.066147 850.263916,103.424248 
	C850.343628,80.097824 850.333435,56.770401 850.587158,33.445858 
	C850.634644,29.074900 849.681641,27.348200 844.845581,27.392401 
	C820.520569,27.614717 796.192017,27.453510 771.864746,27.449465 
	C770.092285,27.449169 768.319763,27.627377 766.136414,27.744665 
	C766.136414,55.020111 766.136414,81.776375 766.136414,109.050072 
	C754.583679,109.050072 743.460999,109.236794 732.350037,108.957413 
	C727.956848,108.846939 726.246704,109.796326 726.331848,114.651329 
	C726.638794,132.141708 726.434937,149.640625 726.496582,167.136063 
	C726.508667,170.562698 726.844421,173.988205 727.053406,177.828537 
	C738.716248,177.828537 749.852539,178.001678 760.978394,177.737122 
	C765.016357,177.641098 766.416138,178.593033 766.405518,182.909592 
	C766.265869,239.561768 766.404358,296.214661 766.253906,352.866791 
	C766.213440,368.098450 767.906799,382.981323 772.062561,397.651703 
	C786.521667,448.693634 826.467590,468.216980 864.974487,472.590088 
	C887.297180,475.125183 909.838501,475.024841 931.870483,468.783936 
	C945.079834,465.042114 957.550598,459.797943 968.500305,451.417236 
	C969.563293,450.603638 970.216858,447.959656 969.742065,446.639587 
	C966.263977,436.970062 962.531433,427.388794 958.717651,417.844238 
	C954.986145,408.505524 951.063782,399.243011 946.988037,389.372711 
	C934.276917,399.754669 920.048157,403.927094 904.581116,404.710266 
	C891.799500,405.357391 879.737244,403.490295 868.989929,395.952972 
	C857.240845,387.713165 850.945984,376.222595 850.844238,362.132263 
	C850.411194,302.150757 850.441956,242.166000 850.162537,182.183075 
	C850.142944,177.974899 852.142151,177.731476 855.381348,177.746429 
	C884.040466,177.878677 912.700073,177.911011 941.359497,177.972015 
	C943.136719,177.975800 944.914001,177.972488 946.244690,177.972488 
	C946.777283,177.221313 946.950500,177.091080 946.951233,176.959824 
	C947.077209,155.311020 947.229370,133.662064 947.173706,112.013672 
	C947.171326,111.077927 945.249939,110.147110 943.272034,109.211182 
M603.550476,161.016647 
	C602.184509,160.677551 600.818604,160.338455 599.096436,159.910919 
	C599.096436,263.222229 599.096436,365.904510 599.096436,468.583618 
	C627.253235,468.583618 654.970093,468.583618 683.009033,468.583618 
	C683.009033,466.703156 683.008911,465.220917 683.009094,463.738678 
	C683.015503,407.582306 683.016357,351.425903 683.030273,295.269531 
	C683.039429,258.276337 683.029907,221.283035 683.151733,184.290176 
	C683.162537,181.022141 682.681213,179.133377 678.962830,178.484222 
	C672.936279,177.432114 667.017944,175.765442 661.047729,174.384827 
	C642.145752,170.013809 623.240906,165.655121 603.550476,161.016647 
M675.233032,39.305477 
	C674.107483,38.080833 673.029236,36.808441 671.849121,35.638817 
	C657.388672,21.306910 635.269653,19.312609 617.803894,30.747663 
	C601.012451,41.741238 594.390625,62.346588 601.785583,81.134514 
	C610.107666,102.277771 629.968018,112.791656 650.109314,108.081306 
	C683.773499,100.208412 694.465515,64.981071 675.233032,39.305477 
z"/>
<path fill="#5D6068" opacity="1.000000" stroke="none" 
	d="
M1027.152588,368.814026 
	C1013.301636,335.876434 1009.521667,301.804810 1013.003540,266.974091 
	C1016.711304,229.884140 1029.115845,196.015869 1053.127441,166.892258 
	C1073.189941,142.558517 1098.035767,124.782310 1127.725952,114.595665 
	C1160.861084,103.227058 1195.058716,100.432793 1229.528320,107.558861 
	C1258.907593,113.632607 1284.863647,126.835419 1306.511719,147.951538 
	C1307.631958,149.044235 1308.854858,150.031815 1310.860840,151.801300 
	C1310.860840,136.672928 1310.860840,122.639618 1310.860840,108.340790 
	C1339.107544,108.340790 1366.835205,108.340790 1395.083740,108.340790 
	C1395.083740,228.534637 1395.083740,348.425842 1395.083740,468.636108 
	C1368.566650,468.636108 1342.165039,468.636108 1315.006104,468.636108 
	C1315.006104,453.668549 1315.006104,438.842194 1315.006104,422.616730 
	C1312.160156,425.320435 1310.311279,426.892609 1308.674072,428.660675 
	C1291.877686,446.798615 1271.313232,459.001160 1247.955688,466.452057 
	C1227.793945,472.883423 1206.893188,474.158936 1185.876465,473.579376 
	C1137.165894,472.236176 1095.069336,455.244202 1060.788940,420.136383 
	C1046.339111,405.337799 1035.528076,388.081116 1027.152588,368.814026 
M1308.718628,321.066437 
	C1309.353516,317.976959 1310.305908,314.914551 1310.571899,311.793640 
	C1312.311646,291.379333 1313.469849,271.069794 1307.329834,250.962723 
	C1300.777222,229.504333 1289.687134,211.314713 1271.724121,197.655762 
	C1254.223389,184.348267 1234.573486,177.131348 1212.470947,175.618515 
	C1187.717163,173.924225 1164.636963,178.312408 1144.024536,192.299301 
	C1118.338135,209.729279 1103.657227,234.286270 1098.371216,264.841736 
	C1094.308594,288.324829 1095.274902,311.497498 1103.818237,333.629059 
	C1118.772461,372.368164 1147.365479,395.160034 1188.538330,401.233856 
	C1197.463379,402.550476 1206.800537,401.985840 1215.866699,401.265411 
	C1243.438477,399.074524 1266.526611,387.422424 1285.071655,366.899933 
	C1296.781006,353.942047 1304.198486,338.698486 1308.718628,321.066437 
z"/>
<path fill="#5D6068" opacity="1.000000" stroke="none" 
	d="
M1596.979370,397.177490 
	C1621.340698,403.332520 1645.703979,406.395203 1670.376221,405.001617 
	C1686.535522,404.088867 1702.850342,402.792145 1717.987671,396.120789 
	C1728.352417,391.552826 1736.416382,384.441620 1738.579224,372.794769 
	C1741.710449,355.934082 1734.835205,343.794098 1718.220703,338.254608 
	C1706.027344,334.189209 1693.401611,331.246918 1680.796997,328.629944 
	C1662.609497,324.853821 1644.216309,322.075256 1626.006348,318.397858 
	C1612.089966,315.587524 1598.143921,312.655060 1584.526367,308.693390 
	C1559.531616,301.421906 1537.410156,289.549072 1524.324341,265.575836 
	C1514.797485,248.122360 1512.313599,229.191986 1513.416138,209.547440 
	C1515.587891,170.846298 1535.841187,144.331757 1568.756470,125.944130 
	C1585.322266,116.689919 1603.108765,111.136627 1621.556152,107.655670 
	C1645.765259,103.087540 1670.215088,102.801346 1694.648560,105.591606 
	C1708.335327,107.154625 1722.109253,108.663185 1735.540649,111.588425 
	C1755.533569,115.942688 1774.735107,122.955536 1792.769775,132.798676 
	C1793.786255,133.353455 1794.799927,135.959473 1794.341919,136.869095 
	C1784.068359,157.274887 1773.587891,177.576569 1762.893188,198.390945 
	C1755.816162,194.940964 1748.972290,191.431244 1741.986450,188.231430 
	C1720.242676,178.271881 1697.221802,173.520081 1673.458618,173.109863 
	C1658.347412,172.849014 1643.115479,173.291641 1628.111328,174.970627 
	C1614.666382,176.475128 1601.863159,181.067245 1591.937134,191.133865 
	C1575.492188,207.811554 1579.812622,231.544662 1601.578979,240.125961 
	C1613.004517,244.630432 1625.244385,247.249313 1637.287476,249.960449 
	C1651.698730,253.204697 1666.292236,255.639389 1680.807373,258.422394 
	C1692.181519,260.603210 1703.583618,262.648651 1714.925293,264.986847 
	C1738.733398,269.895111 1761.972778,276.315491 1782.564087,290.039001 
	C1799.405029,301.263000 1810.880981,316.049744 1816.508545,335.791382 
	C1821.498413,353.295837 1821.555176,370.841797 1817.239990,387.978760 
	C1809.830566,417.403595 1789.702271,436.923553 1763.799927,451.135559 
	C1746.148438,460.820526 1727.075562,466.064331 1707.405884,469.838379 
	C1678.666992,475.352570 1649.697632,475.137390 1620.917358,472.287384 
	C1586.734375,468.902405 1553.386475,461.085541 1522.285522,445.706635 
	C1516.068115,442.632202 1510.185547,438.884857 1504.108398,435.520447 
	C1501.995850,434.350922 1501.384766,433.245697 1502.666870,430.790039 
	C1513.115234,410.776550 1523.401367,390.678345 1533.752563,370.614105 
	C1533.891968,370.343628 1534.235474,370.178436 1534.935791,369.573486 
	C1553.827881,382.117004 1574.223511,391.834229 1596.979370,397.177490 
z"/>
<path fill="#5D6068" opacity="1.000000" stroke="none" 
	d="
M321.928589,462.999146 
	C267.141327,443.277008 228.877670,407.388153 209.532684,352.191681 
	C200.110550,325.307739 197.630402,297.663361 200.199219,269.579132 
	C206.798065,197.435364 254.239090,136.845352 324.330444,114.403313 
	C354.107941,104.869064 384.444733,101.647621 415.415344,105.448586 
	C456.998047,110.551926 493.784882,125.905922 521.992920,158.023514 
	C529.602722,166.688065 535.839111,176.558853 543.185364,186.526459 
	C520.946716,199.787827 499.887054,212.346176 479.279205,224.635101 
	C472.216919,216.742966 465.863922,208.601715 458.451294,201.578873 
	C443.469391,187.384827 425.464264,178.999527 404.918121,176.334930 
	C376.140442,172.602844 349.630310,178.399673 326.122986,195.779602 
	C305.580170,210.967728 292.415710,231.155197 286.073730,255.946487 
	C281.551910,273.622650 280.401062,291.468811 283.247162,309.399658 
	C289.995636,351.916321 313.187988,382.088593 353.854919,396.451599 
	C386.448456,407.963165 418.395905,404.143555 447.671844,384.633606 
	C458.612244,377.342743 467.316956,367.757111 474.688263,356.929962 
	C475.790405,355.311096 476.834259,353.652496 478.210754,351.544067 
	C499.741760,364.361572 520.938110,376.979889 542.435730,389.777527 
	C535.391418,403.949188 526.254578,415.802490 515.241943,426.327667 
	C494.744141,445.918182 470.694672,459.042236 443.485046,466.806824 
	C415.785583,474.711243 387.679962,475.598755 359.445496,471.596313 
	C346.919250,469.820587 334.687256,465.968842 321.928589,462.999146 
z"/>
<path fill="#5D6067" opacity="1.000000" stroke="none" 
	d="
M943.747253,109.212585 
	C945.249939,110.147110 947.171326,111.077927 947.173706,112.013672 
	C947.229370,133.662064 947.077209,155.311020 946.951233,176.959824 
	C946.950500,177.091080 946.777283,177.221313 946.244690,177.972488 
	C944.914001,177.972488 943.136719,177.975800 941.359497,177.972015 
	C912.700073,177.911011 884.040466,177.878677 855.381348,177.746429 
	C852.142151,177.731476 850.142944,177.974899 850.162537,182.183075 
	C850.441956,242.166000 850.411194,302.150757 850.844238,362.132263 
	C850.945984,376.222595 857.240845,387.713165 868.989929,395.952972 
	C879.737244,403.490295 891.799500,405.357391 904.581116,404.710266 
	C920.048157,403.927094 934.276917,399.754669 946.988037,389.372711 
	C951.063782,399.243011 954.986145,408.505524 958.717651,417.844238 
	C962.531433,427.388794 966.263977,436.970062 969.742065,446.639587 
	C970.216858,447.959656 969.563293,450.603638 968.500305,451.417236 
	C957.550598,459.797943 945.079834,465.042114 931.870483,468.783936 
	C909.838501,475.024841 887.297180,475.125183 864.974487,472.590088 
	C826.467590,468.216980 786.521667,448.693634 772.062561,397.651703 
	C767.906799,382.981323 766.213440,368.098450 766.253906,352.866791 
	C766.404358,296.214661 766.265869,239.561768 766.405518,182.909592 
	C766.416138,178.593033 765.016357,177.641098 760.978394,177.737122 
	C749.852539,178.001678 738.716248,177.828537 727.053406,177.828537 
	C726.844421,173.988205 726.508667,170.562698 726.496582,167.136063 
	C726.434937,149.640625 726.638794,132.141708 726.331848,114.651329 
	C726.246704,109.796326 727.956848,108.846939 732.350037,108.957413 
	C743.460999,109.236794 754.583679,109.050072 766.136414,109.050072 
	C766.136414,81.776375 766.136414,55.020111 766.136414,27.744665 
	C768.319763,27.627377 770.092285,27.449169 771.864746,27.449465 
	C796.192017,27.453510 820.520569,27.614717 844.845581,27.392401 
	C849.681641,27.348200 850.634644,29.074900 850.587158,33.445858 
	C850.333435,56.770401 850.343628,80.097824 850.263916,103.424248 
	C850.258301,105.066147 850.263184,106.708076 850.263184,109.211182 
	C881.487427,109.211182 912.379700,109.211182 943.747253,109.212585 
z"/>
<path fill="#5C5F66" opacity="1.000000" stroke="none" 
	d="
M603.943848,161.154160 
	C623.240906,165.655121 642.145752,170.013809 661.047729,174.384827 
	C667.017944,175.765442 672.936279,177.432114 678.962830,178.484222 
	C682.681213,179.133377 683.162537,181.022141 683.151733,184.290176 
	C683.029907,221.283035 683.039429,258.276337 683.030273,295.269531 
	C683.016357,351.425903 683.015503,407.582306 683.009094,463.738678 
	C683.008911,465.220917 683.009033,466.703156 683.009033,468.583618 
	C654.970093,468.583618 627.253235,468.583618 599.096436,468.583618 
	C599.096436,365.904510 599.096436,263.222229 599.096436,159.910919 
	C600.818604,160.338455 602.184509,160.677551 603.943848,161.154160 
z"/>
<path fill="#5E6169" opacity="1.000000" stroke="none" 
	d="
M675.436768,39.599884 
	C694.465515,64.981071 683.773499,100.208412 650.109314,108.081306 
	C629.968018,112.791656 610.107666,102.277771 601.785583,81.134514 
	C594.390625,62.346588 601.012451,41.741238 617.803894,30.747663 
	C635.269653,19.312609 657.388672,21.306910 671.849121,35.638817 
	C673.029236,36.808441 674.107483,38.080833 675.436768,39.599884 
z"/>
<path fill="#FDFDFD" opacity="1.000000" stroke="none" 
	d="
M1308.648438,321.478394 
	C1304.198486,338.698486 1296.781006,353.942047 1285.071655,366.899933 
	C1266.526611,387.422424 1243.438477,399.074524 1215.866699,401.265411 
	C1206.800537,401.985840 1197.463379,402.550476 1188.538330,401.233856 
	C1147.365479,395.160034 1118.772461,372.368164 1103.818237,333.629059 
	C1095.274902,311.497498 1094.308594,288.324829 1098.371216,264.841736 
	C1103.657227,234.286270 1118.338135,209.729279 1144.024536,192.299301 
	C1164.636963,178.312408 1187.717163,173.924225 1212.470947,175.618515 
	C1234.573486,177.131348 1254.223389,184.348267 1271.724121,197.655762 
	C1289.687134,211.314713 1300.777222,229.504333 1307.329834,250.962723 
	C1313.469849,271.069794 1312.311646,291.379333 1310.571899,311.793640 
	C1310.305908,314.914551 1309.353516,317.976959 1308.648438,321.478394 
z"/>
</svg>