<svg version="1.1" id="Layer_1" xmlns="http://www.w3.org/2000/svg" xmlns:xlink="http://www.w3.org/1999/xlink" x="0px" y="0px"
	 width="100%" viewBox="0 0 400 110" enable-background="new 0 0 400 110" xml:space="preserve">
<path fill="#FDFDFC" opacity="1.000000" stroke="none" 
	d="
M291.000000,111.000000 
	C194.000015,111.000000 97.500023,111.000000 1.000026,111.000000 
	C1.000017,74.333351 1.000017,37.666698 1.000009,1.000036 
	C134.333298,1.000024 267.666595,1.000024 400.999939,1.000012 
	C400.999939,37.666630 400.999939,74.333260 400.999969,110.999947 
	C364.500000,111.000000 328.000000,111.000000 291.000000,111.000000 
M63.866154,85.944267 
	C70.903847,87.794044 77.898201,89.834000 84.989174,91.450020 
	C96.244682,94.015121 107.465881,97.321526 118.884064,98.423332 
	C131.413635,99.632378 131.503708,98.698738 135.052399,86.452927 
	C137.819046,76.905739 137.822052,76.985390 147.665619,76.613594 
	C149.161285,76.557091 151.486176,75.723793 151.930099,74.637733 
	C153.527893,70.728600 154.484451,66.557373 155.830124,61.986317 
	C151.115845,61.986317 147.010513,61.986317 142.873291,61.986317 
	C143.735992,54.153706 143.735992,54.153828 150.734894,54.152203 
	C153.067429,54.151661 155.441284,54.407356 157.715210,54.041779 
	C158.865845,53.856792 160.411972,52.753685 160.783752,51.710785 
	C162.105530,48.002987 162.999420,44.142654 164.210495,39.781406 
	C152.382355,39.781406 140.999771,39.781406 129.278625,39.781406 
	C130.468369,35.265751 131.518188,31.281094 132.678452,26.877306 
	C115.238670,26.877306 98.101379,26.877306 80.622215,26.425188 
	C80.084419,26.282728 79.546623,26.140270 78.377327,25.767597 
	C69.850861,16.324982 59.470875,12.144017 47.061337,16.135960 
	C40.834827,18.138924 34.947235,21.378839 29.197760,24.582323 
	C27.173872,25.709993 25.286572,28.166393 24.583097,30.407310 
	C19.381227,46.977840 14.484210,63.644230 9.530118,80.292023 
	C9.197770,81.408844 9.182260,82.619957 8.914428,84.539436 
	C11.582880,83.068504 13.364148,81.841408 15.322048,81.052902 
	C21.420881,78.596756 27.415667,75.549034 33.763535,74.116867 
	C45.415607,71.487976 54.197620,77.602554 62.328205,85.624107 
	C62.538216,85.824623 62.787575,85.940506 63.866154,85.944267 
M159.223312,69.762054 
	C154.015137,79.190826 148.806961,88.619598 143.239838,98.698204 
	C148.804596,98.698204 153.160889,98.371017 157.444199,98.789963 
	C161.751709,99.211273 164.218979,97.809448 165.690308,93.706337 
	C166.232254,92.195000 167.975067,90.364197 169.435516,90.089386 
	C172.421463,89.527519 175.587173,89.920937 178.565430,89.920937 
	C178.356247,93.136841 178.188614,95.713692 178.022171,98.272629 
	C184.912384,98.272629 191.297241,98.272629 198.335846,98.272629 
	C198.335846,78.628410 198.335846,59.405479 198.335846,39.848148 
	C192.348007,39.848148 186.213547,39.989964 180.090683,39.785194 
	C177.251404,39.690239 175.611588,40.556442 174.228851,43.123878 
	C169.513351,51.879612 164.528534,60.490295 159.223312,69.762054 
M340.151581,73.705261 
	C337.822906,81.889244 335.494263,90.073227 333.040466,98.696976 
	C338.816803,98.696976 343.983521,98.385651 349.091156,98.800964 
	C352.805115,99.102959 354.037018,97.357460 354.854126,94.313492 
	C356.242523,89.141289 357.803558,84.015419 359.267883,78.953552 
	C362.102020,78.953552 364.265015,79.038506 366.419586,78.939507 
	C378.745117,78.373169 388.890991,71.474586 392.359741,61.355320 
	C396.686798,48.732216 391.448151,40.668003 378.172943,40.054657 
	C370.042236,39.679001 361.878479,40.054558 353.741089,39.766815 
	C350.760742,39.661434 349.751129,40.919422 349.037964,43.447666 
	C346.257141,53.306103 343.338837,63.125763 340.151581,73.705261 
M248.408096,40.803448 
	C238.121475,40.492401 227.835556,40.107697 217.546860,40.007469 
	C216.706543,39.999283 215.433578,41.802677 215.064682,42.983868 
	C212.846283,50.087284 210.848434,57.259315 208.748062,64.399925 
	C205.447693,75.620163 202.124573,86.833710 198.620468,98.695335 
	C201.259933,98.695335 203.202896,98.718994 205.145065,98.690575 
	C209.629959,98.624969 215.408310,100.201897 218.247040,97.999641 
	C221.282532,95.644722 221.922394,89.800209 222.916168,85.325256 
	C223.960754,80.621429 225.763275,78.716354 231.108917,78.810089 
	C244.336395,79.042030 254.924515,71.449371 258.420105,60.390411 
	C261.677155,50.086147 258.931732,44.287266 248.408096,40.803448 
M253.946564,85.332169 
	C252.705978,89.553490 251.465408,93.774811 250.020386,98.691833 
	C261.721924,98.691833 272.814148,98.731346 283.904816,98.616753 
	C284.791290,98.607590 286.199768,97.711060 286.459351,96.926880 
	C287.937866,92.460648 289.141144,87.903290 290.564270,82.936203 
	C285.139740,82.936203 280.371002,82.936203 275.552094,82.936203 
	C277.009552,75.151802 277.009552,75.151772 284.562622,75.151497 
	C286.856842,75.151413 289.151031,75.151489 291.500610,75.151489 
	C292.835144,70.310646 294.041656,65.934105 295.429230,60.900784 
	C290.506317,60.900784 286.295227,60.900784 282.107666,60.900784 
	C282.096039,55.334007 284.510834,53.333683 289.554016,54.093224 
	C291.831390,54.436218 294.223572,54.329285 296.524109,54.072308 
	C297.641571,53.947483 299.335632,53.235889 299.621979,52.398045 
	C300.977448,48.431885 301.937134,44.330471 303.154297,39.848587 
	C292.050385,39.848587 281.584259,39.983570 271.125458,39.765175 
	C268.044189,39.700829 266.811066,40.795345 266.012726,43.597359 
	C262.118164,57.266426 258.059631,70.888771 253.946564,85.332169 
M327.022369,62.472965 
	C326.525085,62.029423 325.865906,61.675922 325.560059,61.125931 
	C324.535461,59.283489 323.637115,57.370850 322.690430,55.485092 
	C324.856201,54.630959 327.145813,52.856331 329.160248,53.127266 
	C332.631226,53.594093 335.931000,55.333950 339.630646,56.656883 
	C341.003296,51.930641 342.440582,46.981934 343.853760,42.116199 
	C330.957489,36.037106 316.173187,37.842766 307.093384,46.322308 
	C299.305786,53.595062 298.768829,61.964939 305.672394,69.959885 
	C307.629089,72.225914 309.949280,74.183182 311.854553,76.487297 
	C314.556519,79.754898 313.550018,83.175522 309.400513,83.821121 
	C306.769592,84.230453 303.803314,83.643723 301.211792,82.808037 
	C298.810028,82.033531 296.706329,80.334587 294.295898,78.941299 
	C292.906219,83.544403 291.734711,87.856972 290.283783,92.073410 
	C289.369202,94.731209 290.283905,96.091019 292.708160,97.002480 
	C304.765778,101.535965 316.301666,100.670883 326.626923,92.775894 
	C338.574310,83.640556 338.722687,72.866669 327.022369,62.472965 
z"/>
<path fill="#323639" opacity="1.000000" stroke="none" 
	d="
M62.100948,85.273254 
	C54.197620,77.602554 45.415607,71.487976 33.763535,74.116867 
	C27.415667,75.549034 21.420881,78.596756 15.322048,81.052902 
	C13.364148,81.841408 11.582880,83.068504 8.914428,84.539436 
	C9.182260,82.619957 9.197770,81.408844 9.530118,80.292023 
	C14.484210,63.644230 19.381227,46.977840 24.583097,30.407310 
	C25.286572,28.166393 27.173872,25.709993 29.197760,24.582323 
	C34.947235,21.378839 40.834827,18.138924 47.061337,16.135960 
	C59.470875,12.144017 69.850861,16.324982 78.745102,26.284851 
	C78.880280,27.930553 78.728104,29.082747 78.403069,30.183916 
	C72.981842,48.550812 67.538986,66.911324 62.100948,85.273254 
z"/>
<path fill="#FBFBFB" opacity="1.000000" stroke="none" 
	d="
M62.214577,85.448685 
	C67.538986,66.911324 72.981842,48.550812 78.403069,30.183916 
	C78.728104,29.082747 78.880280,27.930553 79.060852,26.399958 
	C79.546623,26.140270 80.084419,26.282728 80.942276,27.011333 
	C96.855812,31.821434 112.449287,36.045387 128.242340,40.323402 
	C124.139015,54.119297 120.034996,67.386192 116.329491,80.763474 
	C115.444229,83.959358 114.205368,84.960777 110.966278,84.923820 
	C96.647270,84.760490 82.325111,84.817184 68.004738,84.902466 
	C66.359856,84.912262 64.719002,85.598915 63.076283,85.971748 
	C62.787575,85.940506 62.538216,85.824623 62.214577,85.448685 
z"/>
<path fill="#34373B" opacity="1.000000" stroke="none" 
	d="
M63.471218,85.958008 
	C64.719002,85.598915 66.359856,84.912262 68.004738,84.902466 
	C82.325111,84.817184 96.647270,84.760490 110.966278,84.923820 
	C114.205368,84.960777 115.444229,83.959358 116.329491,80.763474 
	C120.034996,67.386192 124.139015,54.119297 128.242340,40.323402 
	C112.449287,36.045387 96.855812,31.821434 81.113205,27.237392 
	C98.101379,26.877306 115.238670,26.877306 132.678452,26.877306 
	C131.518188,31.281094 130.468369,35.265751 129.278625,39.781406 
	C140.999771,39.781406 152.382355,39.781406 164.210495,39.781406 
	C162.999420,44.142654 162.105530,48.002987 160.783752,51.710785 
	C160.411972,52.753685 158.865845,53.856792 157.715210,54.041779 
	C155.441284,54.407356 153.067429,54.151661 150.734894,54.152203 
	C143.735992,54.153828 143.735992,54.153706 142.873291,61.986317 
	C147.010513,61.986317 151.115845,61.986317 155.830124,61.986317 
	C154.484451,66.557373 153.527893,70.728600 151.930099,74.637733 
	C151.486176,75.723793 149.161285,76.557091 147.665619,76.613594 
	C137.822052,76.985390 137.819046,76.905739 135.052399,86.452927 
	C131.503708,98.698738 131.413635,99.632378 118.884064,98.423332 
	C107.465881,97.321526 96.244682,94.015121 84.989174,91.450020 
	C77.898201,89.834000 70.903847,87.794044 63.471218,85.958008 
z"/>
<path fill="#34373B" opacity="1.000000" stroke="none" 
	d="
M159.434906,69.459198 
	C164.528534,60.490295 169.513351,51.879612 174.228851,43.123878 
	C175.611588,40.556442 177.251404,39.690239 180.090683,39.785194 
	C186.213547,39.989964 192.348007,39.848148 198.335846,39.848148 
	C198.335846,59.405479 198.335846,78.628410 198.335846,98.272629 
	C191.297241,98.272629 184.912384,98.272629 178.022171,98.272629 
	C178.188614,95.713692 178.356247,93.136841 178.565430,89.920937 
	C175.587173,89.920937 172.421463,89.527519 169.435516,90.089386 
	C167.975067,90.364197 166.232254,92.195000 165.690308,93.706337 
	C164.218979,97.809448 161.751709,99.211273 157.444199,98.789963 
	C153.160889,98.371017 148.804596,98.698204 143.239838,98.698204 
	C148.806961,88.619598 154.015137,79.190826 159.434906,69.459198 
M177.846497,67.330162 
	C176.241989,70.690300 174.637482,74.050438 172.392288,78.752296 
	C175.958130,77.769585 179.830566,77.559578 180.086792,76.486244 
	C181.322922,71.308517 181.585098,65.898270 182.192780,60.570511 
	C181.847977,60.537086 181.503159,60.503662 181.158356,60.470238 
	C180.118744,62.514999 179.079132,64.559761 177.846497,67.330162 
z"/>
<path fill="#34373A" opacity="1.000000" stroke="none" 
	d="
M340.311584,73.332550 
	C343.338837,63.125763 346.257141,53.306103 349.037964,43.447666 
	C349.751129,40.919422 350.760742,39.661434 353.741089,39.766815 
	C361.878479,40.054558 370.042236,39.679001 378.172943,40.054657 
	C391.448151,40.668003 396.686798,48.732216 392.359741,61.355320 
	C388.890991,71.474586 378.745117,78.373169 366.419586,78.939507 
	C364.265015,79.038506 362.102020,78.953552 359.267883,78.953552 
	C357.803558,84.015419 356.242523,89.141289 354.854126,94.313492 
	C354.037018,97.357460 352.805115,99.102959 349.091156,98.800964 
	C343.983521,98.385651 338.816803,98.696976 333.040466,98.696976 
	C335.494263,90.073227 337.822906,81.889244 340.311584,73.332550 
M364.241180,61.526272 
	C364.016113,62.567772 363.791046,63.609272 363.554108,64.705719 
	C369.479431,64.775185 373.396515,62.463589 373.707031,58.090656 
	C373.823547,56.449371 372.125763,54.030304 370.573120,53.079155 
	C368.503113,51.811047 366.502167,52.775234 365.982391,55.619957 
	C365.660492,57.381603 365.057800,59.091946 364.241180,61.526272 
z"/>
<path fill="#34373A" opacity="1.000000" stroke="none" 
	d="
M248.814423,40.881462 
	C258.931732,44.287266 261.677155,50.086147 258.420105,60.390411 
	C254.924515,71.449371 244.336395,79.042030 231.108917,78.810089 
	C225.763275,78.716354 223.960754,80.621429 222.916168,85.325256 
	C221.922394,89.800209 221.282532,95.644722 218.247040,97.999641 
	C215.408310,100.201897 209.629959,98.624969 205.145065,98.690575 
	C203.202896,98.718994 201.259933,98.695335 198.620468,98.695335 
	C202.124573,86.833710 205.447693,75.620163 208.748062,64.399925 
	C210.848434,57.259315 212.846283,50.087284 215.064682,42.983868 
	C215.433578,41.802677 216.706543,39.999283 217.546860,40.007469 
	C227.835556,40.107697 238.121475,40.492401 248.814423,40.881462 
M239.772263,57.265259 
	C238.200241,55.755936 236.628220,54.246613 235.056183,52.737289 
	C233.807693,54.108814 232.128601,55.288280 231.411209,56.896690 
	C230.324051,59.334190 229.905685,62.069981 229.125610,64.967110 
	C234.535370,64.921158 238.248672,63.252235 239.772263,57.265259 
z"/>
<path fill="#34373B" opacity="1.000000" stroke="none" 
	d="
M254.002823,84.929909 
	C258.059631,70.888771 262.118164,57.266426 266.012726,43.597359 
	C266.811066,40.795345 268.044189,39.700829 271.125458,39.765175 
	C281.584259,39.983570 292.050385,39.848587 303.154297,39.848587 
	C301.937134,44.330471 300.977448,48.431885 299.621979,52.398045 
	C299.335632,53.235889 297.641571,53.947483 296.524109,54.072308 
	C294.223572,54.329285 291.831390,54.436218 289.554016,54.093224 
	C284.510834,53.333683 282.096039,55.334007 282.107666,60.900784 
	C286.295227,60.900784 290.506317,60.900784 295.429230,60.900784 
	C294.041656,65.934105 292.835144,70.310646 291.500610,75.151489 
	C289.151031,75.151489 286.856842,75.151413 284.562622,75.151497 
	C277.009552,75.151772 277.009552,75.151802 275.552094,82.936203 
	C280.371002,82.936203 285.139740,82.936203 290.564270,82.936203 
	C289.141144,87.903290 287.937866,92.460648 286.459351,96.926880 
	C286.199768,97.711060 284.791290,98.607590 283.904816,98.616753 
	C272.814148,98.731346 261.721924,98.691833 250.020386,98.691833 
	C251.465408,93.774811 252.705978,89.553490 254.002823,84.929909 
z"/>
<path fill="#34373A" opacity="1.000000" stroke="none" 
	d="
M327.290710,62.705791 
	C338.722687,72.866669 338.574310,83.640556 326.626923,92.775894 
	C316.301666,100.670883 304.765778,101.535965 292.708160,97.002480 
	C290.283905,96.091019 289.369202,94.731209 290.283783,92.073410 
	C291.734711,87.856972 292.906219,83.544403 294.295898,78.941299 
	C296.706329,80.334587 298.810028,82.033531 301.211792,82.808037 
	C303.803314,83.643723 306.769592,84.230453 309.400513,83.821121 
	C313.550018,83.175522 314.556519,79.754898 311.854553,76.487297 
	C309.949280,74.183182 307.629089,72.225914 305.672394,69.959885 
	C298.768829,61.964939 299.305786,53.595062 307.093384,46.322308 
	C316.173187,37.842766 330.957489,36.037106 343.853760,42.116199 
	C342.440582,46.981934 341.003296,51.930641 339.630646,56.656883 
	C335.931000,55.333950 332.631226,53.594093 329.160248,53.127266 
	C327.145813,52.856331 324.856201,54.630959 322.690430,55.485100 
	C323.637115,57.370850 324.535461,59.283489 325.560059,61.125931 
	C325.865906,61.675922 326.525085,62.029423 327.290710,62.705791 
z"/>
<path fill="#F0F0F2" opacity="1.000000" stroke="none" 
	d="
M177.943008,66.967346 
	C179.079132,64.559761 180.118744,62.514999 181.158356,60.470238 
	C181.503159,60.503662 181.847977,60.537086 182.192780,60.570511 
	C181.585098,65.898270 181.322922,71.308517 180.086792,76.486244 
	C179.830566,77.559578 175.958130,77.769585 172.392288,78.752296 
	C174.637482,74.050438 176.241989,70.690300 177.943008,66.967346 
z"/>
<path fill="#F9F8F9" opacity="1.000000" stroke="none" 
	d="
M364.411163,61.175797 
	C365.057800,59.091946 365.660492,57.381603 365.982391,55.619957 
	C366.502167,52.775234 368.503113,51.811047 370.573120,53.079155 
	C372.125763,54.030304 373.823547,56.449371 373.707031,58.090656 
	C373.396515,62.463589 369.479431,64.775185 363.554108,64.705719 
	C363.791046,63.609272 364.016113,62.567772 364.411163,61.175797 
z"/>
<path fill="#F7F6F7" opacity="1.000000" stroke="none" 
	d="
M239.642853,57.629040 
	C238.248672,63.252235 234.535370,64.921158 229.125610,64.967110 
	C229.905685,62.069981 230.324051,59.334190 231.411209,56.896690 
	C232.128601,55.288280 233.807693,54.108814 235.056183,52.737289 
	C236.628220,54.246613 238.200241,55.755936 239.642853,57.629040 
z"/>
</svg>