<svg version="1.1" id="Layer_1" xmlns="http://www.w3.org/2000/svg" xmlns:xlink="http://www.w3.org/1999/xlink" x="0px" y="0px"
	 width="100%" viewBox="0 0 928 704" enable-background="new 0 0 928 704" xml:space="preserve">
<path fill="#000000" opacity="1.000000" stroke="none" 
	d="
M558.000000,419.028870 
	C484.839813,419.020447 412.179657,419.012299 339.519470,419.001007 
	C337.686584,419.000732 335.853668,418.969421 334.020844,418.945801 
	C331.576141,418.914307 330.442596,417.824402 330.524078,415.231049 
	C330.717712,409.069824 330.748810,402.902985 330.798065,396.738037 
	C330.812469,394.931793 331.441620,393.354431 332.860565,392.387848 
	C336.708069,389.766907 337.053101,386.025085 336.940521,381.833344 
	C336.743805,374.505859 336.801971,367.168213 336.915649,359.837372 
	C336.959991,356.977356 336.390869,354.544830 333.955078,352.844116 
	C330.140228,350.180511 330.661713,346.260620 330.888977,342.427124 
	C330.964050,341.161041 331.505371,339.944977 332.856049,339.925598 
	C337.128174,339.864471 336.908386,336.956268 336.895905,334.022675 
	C336.859802,325.523590 336.809448,317.023529 336.908356,308.525482 
	C336.941620,305.670990 336.393860,303.172089 333.975311,301.496704 
	C330.334198,298.974487 330.601074,295.305511 330.829803,291.607910 
	C330.919067,290.165253 331.366150,288.833771 333.049713,288.812714 
	C337.026001,288.762970 336.901306,286.079834 336.894897,283.277802 
	C336.862762,269.279114 336.768188,255.278778 336.958466,241.282593 
	C337.010773,237.436539 336.196075,234.363022 332.818024,232.359100 
	C328.600220,229.857025 329.928345,225.991638 330.541351,222.538681 
	C331.221558,218.707169 334.621277,219.864502 337.089111,219.821884 
	C347.869110,219.635681 346.742096,221.000519 346.759827,210.215897 
	C346.785828,194.384583 346.700562,178.553116 346.696259,162.721710 
	C346.695526,159.998642 346.106049,157.366455 350.107849,156.104584 
	C353.194611,155.131287 351.273102,152.149124 350.411865,150.109680 
	C346.279968,140.324860 346.490936,130.943085 353.048615,122.229515 
	C356.208710,118.030510 360.328827,114.887062 365.245178,113.010170 
	C367.895813,111.998260 369.110840,110.753662 367.957062,107.820572 
	C367.562958,106.818695 367.479797,105.292580 367.973877,104.407532 
	C371.560760,97.982277 370.406525,90.752174 371.633850,83.939613 
	C371.944427,82.215790 372.106781,80.320145 374.196564,80.272049 
	C376.475983,80.219589 377.011108,82.133629 377.308472,84.072296 
	C378.381927,91.070396 379.810547,98.219986 380.452271,105.021698 
	C381.069061,111.559608 384.202789,112.762962 388.192627,115.377548 
	C398.624298,122.213608 405.080444,135.105789 398.392090,149.879364 
	C397.070038,152.799530 395.119934,155.766403 400.552856,156.855743 
	C403.258392,157.398224 402.248627,160.159332 402.256592,161.971893 
	C402.332489,179.303345 402.455444,196.637573 402.196655,213.965500 
	C402.126953,218.632050 403.620117,220.062958 408.164276,219.904617 
	C418.889404,219.530945 417.893280,220.982635 417.930023,210.277969 
	C417.963776,200.445694 417.880676,190.612915 417.938965,180.780884 
	C417.954590,178.144547 417.257019,176.050980 415.377258,174.052139 
	C410.915192,169.307388 411.485352,165.143616 416.692047,161.288788 
	C417.737030,160.515121 418.663727,159.506607 419.436401,158.453369 
	C422.578522,154.170334 428.199432,153.382294 431.666443,157.384369 
	C434.073517,160.162979 436.664001,160.768356 439.990051,160.662949 
	C444.984558,160.504669 449.991180,160.509827 454.986328,160.658066 
	C458.952240,160.775757 462.246216,160.035675 465.483276,157.225296 
	C468.693756,154.438004 472.880219,154.683029 476.465942,157.401062 
	C482.596710,162.048279 488.291290,162.003876 494.265015,157.155289 
	C497.231201,154.747772 503.358124,154.895660 506.092987,157.786835 
	C508.119995,159.929688 510.364136,160.703339 513.198914,160.650192 
	C518.696594,160.547134 524.201294,160.478500 529.695557,160.644440 
	C533.997192,160.774353 537.661926,160.278427 540.915222,156.738220 
	C543.924072,153.463959 549.560486,154.458008 552.138977,158.070740 
	C553.127808,159.456207 554.221619,160.605240 555.630737,161.560562 
	C559.797791,164.385635 560.700134,169.781113 557.178833,173.408615 
	C554.583862,176.081879 553.951050,178.932205 553.991577,182.424438 
	C554.115234,193.088562 554.159790,203.757751 553.951782,214.419464 
	C553.870972,218.557938 555.347412,219.951279 559.468201,219.896393 
	C568.071289,219.781738 568.075623,219.967239 568.076782,211.528702 
	C568.078979,195.696793 568.042114,179.864746 568.110474,164.033127 
	C568.124207,160.865036 567.378784,157.564240 572.252502,156.312683 
	C575.403564,155.503479 573.319336,152.266800 572.503418,150.331833 
	C569.537476,143.297867 568.706848,136.274429 571.422974,128.952637 
	C574.199585,121.467796 579.399902,116.427788 586.651855,113.426384 
	C589.411926,112.284058 591.596436,111.169884 589.538025,107.662628 
	C588.829346,106.455070 588.951660,104.992546 589.658569,103.807701 
	C592.710632,98.692024 592.350037,92.957062 592.775513,87.361900 
	C592.863892,86.200180 592.775574,85.014297 592.969727,83.873764 
	C593.297485,81.948135 594.168884,80.152878 596.384888,80.237381 
	C598.704712,80.325836 599.131409,82.241608 599.244934,84.211487 
	C599.445862,87.697594 599.678040,91.182411 599.946655,94.663940 
	C600.177002,97.648643 600.469849,100.577011 602.218811,103.224564 
	C603.889648,105.753967 601.968689,108.361069 601.800415,111.175789 
	C623.114624,119.903519 627.853394,135.106842 617.851868,156.060852 
	C625.038574,155.462997 624.620850,159.332840 624.539001,163.913544 
	C624.247253,180.240189 624.548096,196.576767 624.340881,212.905991 
	C624.281677,217.573257 625.620605,219.841019 630.547241,219.059204 
	C631.521851,218.904541 632.549194,218.977402 633.542114,219.062729 
	C635.909851,219.266190 639.164551,218.288177 639.789062,221.621643 
	C640.406677,224.917816 641.482117,228.854797 638.124939,231.391769 
	C634.057495,234.465546 633.186035,238.346603 633.279480,243.177811 
	C633.534058,256.338379 633.390198,269.506989 633.367004,282.672333 
	C633.362427,285.289917 633.347839,287.418182 636.901245,288.088562 
	C639.957214,288.665131 640.916504,297.239105 637.804321,299.650055 
	C633.403687,303.059204 633.218445,307.285736 633.329041,312.075317 
	C633.498291,319.403931 633.329041,326.739807 633.389282,334.071930 
	C633.403503,335.802765 632.863342,337.944061 635.253540,338.719788 
	C636.933594,339.265045 639.262573,339.062683 639.216125,341.628082 
	C639.157776,344.849915 640.718384,348.682648 637.669922,351.074799 
	C633.558350,354.301270 633.121216,358.356262 633.279541,363.047729 
	C633.515564,370.039032 633.361023,377.044189 633.335876,384.043304 
	C633.327271,386.432587 633.359680,388.869293 635.562317,390.346680 
	C638.897705,392.583740 639.524536,395.686768 639.420776,399.442078 
	C639.296936,403.924255 639.599365,408.430023 639.931030,412.909729 
	C640.257812,417.323669 638.691956,419.141174 633.988220,419.109100 
	C608.826477,418.937347 583.662903,419.028503 558.000000,419.028870 
M542.643311,211.497467 
	C542.643311,198.552429 542.643311,185.607391 542.643311,172.083588 
	C504.299347,172.083588 466.742523,172.083588 428.999115,172.083588 
	C428.999115,172.665878 428.993866,173.295242 428.999878,173.924530 
	C429.168060,191.568573 429.280212,209.213516 429.554382,226.855927 
	C429.609375,230.395538 428.204651,231.457275 424.815552,231.400528 
	C415.319550,231.241562 405.813873,231.162369 396.322784,231.431732 
	C391.920776,231.556656 390.571320,230.049057 390.622955,225.685135 
	C390.824066,208.689941 390.682465,191.690796 390.689758,174.693130 
	C390.691101,171.546768 391.314240,168.185974 386.579163,167.732742 
	C385.357941,167.615875 384.875061,166.187820 384.901611,164.951584 
	C385.049957,158.044418 384.096985,151.070251 387.809937,144.553284 
	C391.273285,138.474442 389.658630,131.351013 384.436737,126.923523 
	C378.873413,122.206543 370.631805,121.944153 365.055176,126.306435 
	C359.573303,130.594604 357.109070,137.805176 360.443451,143.143814 
	C364.577148,149.762253 363.205292,156.922501 363.959564,163.885696 
	C364.120422,165.370911 363.855988,167.457565 362.221283,167.661469 
	C357.419983,168.260269 358.203033,171.667603 358.193481,174.752121 
	C358.173889,181.084518 358.192902,187.417038 358.188599,193.749496 
	C358.181274,204.581284 358.191772,215.413208 358.138641,226.244781 
	C358.127380,228.539703 358.383179,231.542282 354.901672,231.209732 
	C349.245453,230.669464 348.881165,233.776703 348.890320,238.189117 
	C348.984772,283.682648 348.841919,329.176880 349.019928,374.669891 
	C349.053619,383.281311 348.618347,391.289062 343.406128,398.810211 
	C339.530823,404.402222 341.879822,407.745605 348.594238,407.745056 
	C439.581757,407.737762 530.569275,407.724701 621.556824,407.705261 
	C629.103210,407.703644 631.010925,404.775970 626.817322,398.248718 
	C622.634705,391.738617 621.727295,384.965332 621.759155,377.460480 
	C621.955811,331.134338 621.853149,284.806915 621.847290,238.479904 
	C621.847107,237.147156 621.815796,235.814407 621.798401,234.481659 
	C621.772217,232.476929 620.821350,231.176987 618.756775,231.429367 
	C613.236084,232.104218 613.016296,228.727936 613.037720,224.630493 
	C613.124634,207.966644 613.050659,191.301987 613.035583,174.637619 
	C613.032776,171.482254 613.605530,168.042740 608.846619,167.644562 
	C607.822021,167.558838 607.137207,166.409317 607.200012,165.383438 
	C607.616943,158.574219 605.213867,151.596451 609.607910,145.032089 
	C613.415466,139.343826 611.872681,131.535965 607.026978,127.241989 
	C601.505554,122.349266 593.231079,121.859131 587.134216,126.063705 
	C582.281799,129.410080 579.173279,137.540680 582.167908,142.466827 
	C586.431091,149.479843 585.102966,156.894867 585.560242,164.235916 
	C585.644775,165.592789 585.693420,167.339203 584.108948,167.569366 
	C579.160706,168.288208 579.966675,171.907013 579.964233,175.161499 
	C579.951599,191.992477 579.963745,208.823486 579.942017,225.654434 
	C579.938293,228.514114 580.216492,231.456085 575.791687,231.390747 
	C565.961792,231.245605 556.128052,231.278290 546.296936,231.360733 
	C543.477844,231.384369 542.478516,230.276794 542.569641,227.492065 
	C542.733032,222.497849 542.632935,217.494995 542.643311,211.497467 
z"/>
<path fill="#000000" opacity="1.000000" stroke="none" 
	d="
M434.524261,528.594360 
	C443.180695,519.391724 454.672241,521.077881 460.071686,532.005310 
	C462.986084,537.903503 463.497040,544.354248 464.336945,550.999146 
	C467.716858,541.506348 473.028351,538.624084 482.585999,540.904663 
	C483.719330,541.175049 484.774139,541.393005 485.996368,541.253967 
	C493.946136,540.350220 493.892670,540.402649 495.333252,548.115784 
	C496.705383,555.462830 498.216431,562.783997 500.697815,570.286133 
	C502.327576,563.710693 503.965302,557.137207 505.582458,550.558655 
	C506.098633,548.459045 506.529755,546.338257 507.055450,544.241089 
	C507.589264,542.111389 508.654510,540.697083 511.193024,540.794800 
	C513.685120,540.890625 514.714783,542.302185 515.194336,544.463135 
	C516.816589,551.773132 518.420654,559.087341 520.100098,566.384155 
	C520.342651,567.437988 520.128967,568.796753 521.812317,569.554382 
	C524.168396,562.391663 525.053528,554.973938 526.655334,547.727600 
	C526.978027,546.267578 527.233093,544.788757 527.634888,543.350891 
	C528.616455,539.838928 531.490662,540.631104 533.809875,541.024963 
	C536.560364,541.492004 535.667603,543.749023 535.236755,545.450012 
	C532.173828,557.543762 529.058777,569.624451 525.938232,581.703491 
	C525.349182,583.983398 524.837280,586.216309 521.636841,586.289429 
	C518.286621,586.366028 517.414856,584.270874 516.815369,581.672546 
	C514.987305,573.749817 513.146545,565.830017 510.381805,557.871094 
	C508.399933,565.645752 506.354767,573.405151 504.470428,581.203430 
	C503.809662,583.938171 503.329987,586.359009 499.624054,586.306335 
	C496.080475,586.255920 495.765167,583.711304 495.172363,581.312805 
	C492.302094,569.700073 489.474365,558.076904 486.448242,545.707947 
	C484.181244,547.901428 482.187103,548.107544 479.803619,547.417175 
	C477.078064,546.627808 474.394684,547.185669 472.955872,550.052368 
	C471.493561,552.965942 472.925873,555.257874 475.050537,557.099060 
	C477.310333,559.057373 479.909821,560.632690 482.109344,562.649597 
	C487.471893,567.566895 488.531158,575.313293 484.860565,581.332031 
	C481.877930,586.222595 474.251465,588.429932 467.859070,586.203796 
	C465.582642,585.411133 463.390442,584.603027 464.439087,581.296753 
	C465.387268,578.307373 467.079193,578.705383 469.478180,579.396790 
	C472.740509,580.336914 476.446320,580.825806 478.233246,576.991638 
	C480.011627,573.175659 478.503143,569.866943 475.251282,567.336426 
	C473.148895,565.700439 471.021759,564.093018 468.975861,562.388550 
	C467.007935,560.749146 465.899719,558.486877 464.734863,555.864990 
	C463.925507,560.950317 463.278473,565.730774 462.373810,570.461914 
	C461.713562,573.914673 460.405914,577.180420 458.385681,580.100708 
	C451.592682,589.920349 438.829926,589.570312 432.983337,579.194946 
	C427.251312,569.022888 426.978668,557.852051 428.156708,546.614319 
	C428.820099,540.285950 430.372467,534.141907 434.524261,528.594360 
M436.347809,556.415283 
	C436.291565,562.274109 436.998657,568.022644 439.116760,573.515137 
	C440.362030,576.744263 442.186005,579.689392 446.147675,579.597107 
	C450.065552,579.505798 451.999786,576.548279 453.023224,573.286865 
	C456.859253,561.062012 456.802948,548.754883 453.017670,536.527588 
	C451.994690,533.223145 450.000519,530.431885 446.083588,530.282471 
	C441.991486,530.126343 440.318207,533.214783 439.112488,536.369446 
	C436.768250,542.503113 436.147766,548.940613 436.347809,556.415283 
z"/>
<path fill="#000000" opacity="1.000000" stroke="none" 
	d="
M535.422119,494.768341 
	C536.830017,501.469879 538.167480,507.762054 539.606140,514.530518 
	C533.993225,515.576599 528.881836,515.207031 523.800476,514.921875 
	C521.597534,514.798218 520.874634,512.921204 520.508728,511.053009 
	C519.582092,506.321838 518.726929,501.576630 517.842957,496.837097 
	C517.599304,495.530762 517.432739,494.204010 517.093628,492.922943 
	C516.535217,490.813385 515.936829,488.234558 513.217773,488.507965 
	C510.282990,488.803070 511.330627,491.601837 511.284912,493.379852 
	C511.139374,499.036743 511.123566,504.701965 511.258423,510.359161 
	C511.339294,513.753540 509.969940,515.175537 506.558502,515.157166 
	C491.113892,515.074036 493.794891,516.507507 493.697418,503.142059 
	C493.565063,484.995972 493.776703,466.847107 493.599274,448.701782 
	C493.558655,444.546906 494.734985,442.799316 499.092377,442.426483 
	C506.082245,441.828400 512.979004,441.377930 519.972900,442.477112 
	C528.172180,443.765747 534.619690,447.225311 537.035095,455.652710 
	C539.584839,464.549103 537.631775,472.438568 530.721069,478.869415 
	C530.121521,479.427368 529.505859,479.968109 528.627869,480.760254 
	C532.292175,484.678833 534.788757,489.072113 535.422119,494.768341 
M511.253662,460.914551 
	C511.260498,464.049683 511.255402,467.184875 511.277374,470.319885 
	C511.302399,473.894745 513.091675,474.173462 515.758545,472.654083 
	C520.172791,470.139221 521.364746,461.452789 517.796265,457.711487 
	C516.489929,456.341949 514.843750,455.363037 512.942688,455.874878 
	C510.793152,456.453613 511.423767,458.487000 511.253662,460.914551 
z"/>
<path fill="#000000" opacity="1.000000" stroke="none" 
	d="
M561.111572,486.905396 
	C561.256592,490.529236 560.818787,493.738831 562.139404,496.742523 
	C562.923218,498.525330 564.108704,499.904572 566.255005,499.780853 
	C568.168884,499.670563 569.078247,498.275879 569.803040,496.687195 
	C570.879578,494.327606 570.812378,491.821320 570.816650,489.330566 
	C570.840393,475.517273 570.970215,461.702148 570.772034,447.891785 
	C570.707458,443.393341 572.142029,441.691528 576.784912,441.795074 
	C590.355713,442.097748 589.038696,440.502106 588.962646,453.721436 
	C588.889038,466.524811 589.257446,479.329407 588.379883,492.133484 
	C587.532349,504.497314 581.446350,513.222229 571.573547,515.327271 
	C556.314819,518.580688 544.809082,510.359802 543.925903,494.139008 
	C543.049438,478.042664 543.674866,461.864441 543.657043,445.722107 
	C543.656372,445.064606 543.562561,444.138397 543.935181,443.790558 
	C548.038879,439.959351 553.047302,442.420776 557.636414,442.054016 
	C560.865601,441.795959 561.071228,444.527863 561.074219,446.978760 
	C561.090149,460.126373 561.100281,473.273987 561.111572,486.905396 
z"/>
<path fill="#000000" opacity="1.000000" stroke="none" 
	d="
M411.583496,445.449829 
	C425.644806,436.926910 440.129028,441.844421 445.247833,456.960663 
	C450.041229,471.115906 449.735657,485.539032 445.169922,499.667725 
	C439.043579,518.625732 418.923187,519.523193 409.134399,510.412323 
	C404.823730,506.400146 402.629547,501.160645 401.289276,495.607025 
	C398.218781,482.884003 398.268341,470.233734 402.826660,457.795959 
	C404.580200,453.011261 407.264465,448.871155 411.583496,445.449829 
M422.254028,499.332336 
	C426.898956,500.918457 427.852905,497.342957 428.492554,494.361237 
	C430.709778,484.025818 430.573608,473.599426 428.739288,463.209717 
	C428.274445,460.576843 427.540192,457.515869 424.320618,457.338165 
	C420.733826,457.140167 419.926453,460.418823 419.213715,463.123779 
	C417.074890,471.240997 416.710327,479.493378 417.908020,487.792999 
	C418.472412,491.704132 418.631348,495.792999 422.254028,499.332336 
z"/>
<path fill="#000000" opacity="1.000000" stroke="none" 
	d="
M632.976379,508.815430 
	C633.287964,513.419128 631.664429,515.318420 627.221802,515.222595 
	C616.907349,515.000000 606.583008,515.013855 596.267029,515.189331 
	C592.079224,515.260620 590.595093,513.555237 590.819946,509.535126 
	C590.979980,506.672272 591.360046,503.973419 592.596619,501.332489 
	C598.310669,489.128601 603.947144,476.888123 609.548035,464.631744 
	C610.422668,462.717834 611.874817,460.934479 611.400208,458.023499 
	C607.218506,456.759521 602.734009,457.393311 598.374207,457.492645 
	C594.204590,457.587738 592.890015,455.942017 592.878296,451.909607 
	C592.849304,441.891083 592.702698,441.888458 602.516174,441.882812 
	C611.004456,441.877930 619.493591,441.950500 627.980591,441.847198 
	C631.506470,441.804291 633.131775,443.129425 633.170959,446.810150 
	C633.221130,451.531708 632.694214,455.927521 630.526367,460.307861 
	C625.584290,470.293976 621.051270,480.484314 616.448425,490.635376 
	C615.302246,493.163300 613.772095,495.599823 613.576294,498.742035 
	C617.075378,500.454559 620.767151,499.514954 624.305298,499.582825 
	C633.009277,499.749664 633.011230,499.646454 632.976379,508.815430 
z"/>
<path fill="#000000" opacity="1.000000" stroke="none" 
	d="
M335.632843,454.018829 
	C335.867401,440.420319 333.663330,442.059204 347.368805,441.916168 
	C353.360626,441.853638 359.354431,441.962494 365.345825,441.881104 
	C368.503632,441.838257 369.715332,443.296082 369.950958,446.375916 
	C370.784882,457.277069 370.762115,457.324066 359.754028,457.442780 
	C357.582062,457.466187 354.398834,456.345520 353.662445,459.293732 
	C352.749390,462.949219 352.514313,466.990021 353.942261,470.584503 
	C354.687714,472.461060 357.229919,471.664124 358.994904,471.687469 
	C369.309814,471.824036 369.953857,472.617615 368.947449,482.803650 
	C368.627686,486.040283 367.015656,486.921143 364.079193,487.089691 
	C353.233521,487.712097 353.239166,487.776245 353.227448,498.523743 
	C353.223083,502.518738 353.402649,506.525848 353.155304,510.506134 
	C352.668243,518.344788 346.544678,514.422302 342.852875,514.974060 
	C339.704224,515.444641 335.554138,516.290466 335.595215,510.444580 
	C335.726135,491.802155 335.636993,473.158112 335.632843,454.018829 
z"/>
<path fill="#000000" opacity="1.000000" stroke="none" 
	d="
M486.382263,441.941864 
	C490.038605,442.593567 491.396729,444.224945 490.434875,447.638885 
	C489.762177,450.026611 489.594330,452.552094 489.085815,454.992004 
	C488.708862,456.800507 487.848541,458.020599 485.615540,457.477051 
	C475.388702,454.987762 470.484955,461.907318 468.849365,470.078339 
	C467.570038,476.469452 467.456879,483.002167 469.305664,489.368042 
	C471.526764,497.015839 475.556488,500.117584 483.571716,499.678619 
	C487.612183,499.457306 488.830780,501.084534 489.202087,504.680328 
	C490.255829,514.884338 490.312744,514.899231 480.139984,515.692261 
	C468.245758,516.619507 458.038391,510.593201 453.345276,499.667419 
	C448.488007,488.359497 448.330048,476.642334 451.370605,464.943359 
	C454.794373,451.769867 464.647736,439.494476 486.382263,441.941864 
z"/>
<path fill="#000000" opacity="1.000000" stroke="none" 
	d="
M355.722260,547.726440 
	C348.168274,546.785950 344.366791,549.263245 342.456787,556.175842 
	C340.852173,561.983215 341.070526,567.704529 343.195190,573.332581 
	C344.361420,576.421936 346.162994,578.939331 349.667114,579.658020 
	C354.270020,580.602051 356.524719,578.817139 356.672974,574.140259 
	C356.965912,564.896545 361.185211,559.840759 370.411041,557.798950 
	C372.844147,557.260437 375.820892,557.303772 375.353058,553.637451 
	C374.900452,550.090332 373.440918,547.102539 369.166809,547.153259 
	C367.534302,547.172546 365.862823,547.507629 364.289398,547.971313 
	C362.428955,548.519531 361.152405,548.502563 360.387909,546.326172 
	C359.661072,544.256897 359.922302,542.961243 361.974274,541.823120 
	C371.556000,536.508240 381.889160,541.262817 383.442780,552.056030 
	C384.919617,562.316162 383.995422,572.678162 384.020538,582.993164 
	C384.028259,586.177002 380.338898,587.716431 377.398773,585.416626 
	C375.693787,584.083008 375.049683,584.603821 373.702118,585.285217 
	C367.029816,588.659424 363.006836,587.669922 357.744995,581.066101 
	C359.553253,588.051453 351.589050,585.192810 350.568268,588.853699 
	C350.536987,590.203064 351.294525,590.617371 351.887024,591.193115 
	C355.588440,594.789429 356.148163,598.348938 353.594391,601.745911 
	C351.328400,604.760132 345.757111,605.931335 342.175293,604.183472 
	C340.899994,603.561157 339.782043,602.841980 340.156555,601.196838 
	C340.544769,599.491211 341.577637,598.629211 343.434662,599.032104 
	C345.222504,599.419922 347.455780,600.137512 348.226746,597.904175 
	C349.045044,595.533691 346.654388,594.954773 345.030762,594.271973 
	C342.843781,593.352295 343.103149,591.827515 343.854736,590.177002 
	C344.687683,588.348083 345.053284,586.711304 342.934784,585.448853 
	C335.029266,580.737732 333.481781,572.911987 333.307861,564.723206 
	C333.164764,557.985291 334.386047,551.427063 338.972015,546.011047 
	C342.548004,541.787781 347.136200,539.706604 352.633301,540.075256 
	C357.970306,540.433105 358.893188,542.622192 355.722260,547.726440 
M370.324554,579.928406 
	C374.789093,577.956421 377.814270,568.723877 375.179779,565.152405 
	C374.491425,564.219238 373.512939,564.094727 372.520782,564.201660 
	C368.672302,564.616150 365.735565,566.465454 365.298676,570.473999 
	C364.887054,574.250549 363.703461,578.791504 370.324554,579.928406 
z"/>
<path fill="#000000" opacity="1.000000" stroke="none" 
	d="
M722.132996,585.114624 
	C720.446655,583.607910 719.446533,585.029724 718.357117,585.548401 
	C710.091492,589.483459 703.845581,586.580200 701.764832,577.683289 
	C700.111206,570.612549 701.272583,563.397583 700.808838,556.268982 
	C700.648010,553.797546 702.570801,549.839600 698.327087,549.316101 
	C694.295471,548.818604 692.462402,552.242432 691.773438,555.621216 
	C690.399048,562.361267 691.430664,569.236511 691.185669,576.049072 
	C691.101929,578.378967 691.151489,580.713440 691.085876,583.044250 
	C691.011963,585.670105 689.331482,586.341370 687.045410,586.338684 
	C684.900879,586.336182 683.155212,586.115356 682.686707,583.396362 
	C682.137390,580.208252 682.744385,577.087952 682.733887,573.938721 
	C682.703430,564.777161 682.534180,555.615112 682.616699,546.455017 
	C682.633850,544.553162 681.303040,541.794434 684.421143,540.949341 
	C687.058105,540.234619 689.377197,540.878906 690.830750,544.293152 
	C694.723816,539.582397 699.572632,540.125366 704.660034,540.614685 
	C708.071228,540.942871 709.375916,542.076904 709.325684,545.457092 
	C709.211731,553.118896 709.336609,560.783997 709.314941,568.447571 
	C709.307861,570.967712 709.540771,573.437378 710.295410,575.845581 
	C710.928406,577.865234 711.941589,579.523254 714.316772,579.715393 
	C716.582153,579.898682 718.095825,578.647339 719.277893,576.919128 
	C720.665161,574.891235 720.761047,572.558472 720.754395,570.200623 
	C720.731262,562.037109 720.790222,553.872925 720.699585,545.710327 
	C720.664246,542.527039 721.542542,540.646423 725.198853,540.732971 
	C728.756409,540.817139 729.190002,542.973022 729.193176,545.729187 
	C729.206970,557.557068 729.310669,569.385376 729.247925,581.212708 
	C729.219299,586.597290 727.959229,587.267151 722.132996,585.114624 
z"/>
<path fill="#000000" opacity="1.000000" stroke="none" 
	d="
M376.737976,471.999939 
	C376.740051,463.345886 376.890076,455.188110 376.681915,447.039429 
	C376.580811,443.081604 378.129761,441.784485 381.956390,441.850159 
	C396.813446,442.105164 394.215515,440.369812 394.328552,453.787994 
	C394.484100,472.258118 394.235168,490.732117 394.461456,509.200806 
	C394.517975,513.816589 393.001801,515.304749 388.469391,515.210571 
	C374.674164,514.923706 376.907135,516.277649 376.770966,503.451965 
	C376.661438,493.135651 376.742157,482.817383 376.737976,471.999939 
z"/>
<path fill="#000000" opacity="1.000000" stroke="none" 
	d="
M598.670898,530.034302 
	C599.425781,526.862671 596.718689,522.752869 601.597961,521.772949 
	C605.554993,520.978271 607.358215,522.653198 607.288757,526.915222 
	C607.093689,538.885986 607.170105,550.861389 607.164673,562.834961 
	C607.162109,568.489014 607.309143,574.144836 607.199463,579.796204 
	C607.157715,581.948792 608.412048,584.821045 605.495056,585.957947 
	C603.062561,586.906006 600.563538,586.433411 599.135193,583.973083 
	C588.768127,589.569031 582.100220,586.848511 578.695190,575.918884 
	C576.199341,567.907837 576.375610,559.838806 578.712158,551.848572 
	C581.745300,541.476135 587.757385,538.327881 598.670898,541.907532 
	C598.670898,537.952881 598.670898,534.235046 598.670898,530.034302 
M585.338318,566.236450 
	C585.246704,569.280945 586.104065,572.151794 587.076477,574.971863 
	C587.921387,577.422180 589.282166,579.583984 592.207703,579.747009 
	C595.513062,579.931213 596.680237,577.401001 597.800598,574.922729 
	C599.238770,571.741516 598.667358,568.362793 598.619446,565.077515 
	C598.559387,560.953918 599.384094,556.746277 597.926086,552.715820 
	C596.983826,550.111023 595.458923,547.685669 592.461670,547.563843 
	C589.322266,547.436157 587.968811,549.994385 586.994690,552.578979 
	C585.443298,556.695496 585.164612,560.989990 585.338318,566.236450 
z"/>
<path fill="#000000" opacity="1.000000" stroke="none" 
	d="
M301.278870,530.078125 
	C301.295349,547.365784 301.318481,564.165955 301.323303,580.966187 
	C301.324860,586.359985 299.287445,587.855774 294.823334,585.106262 
	C292.724731,583.813782 291.794495,584.949341 290.451935,585.597778 
	C284.333405,588.553162 278.619446,587.312927 275.522583,581.297974 
	C269.591400,569.777954 269.729706,557.827515 275.527832,546.334717 
	C278.648712,540.148682 282.750305,539.410645 292.488434,541.611328 
	C293.379913,537.004272 292.703491,532.358582 292.945251,527.758118 
	C293.101105,524.793396 292.534088,521.521301 297.289856,521.643127 
	C301.704437,521.756165 301.189301,524.788208 301.266876,527.594604 
	C301.285248,528.259521 301.275330,528.925293 301.278870,530.078125 
M292.936035,564.463013 
	C292.794434,560.484436 293.344177,556.451111 292.185913,552.551758 
	C291.438629,550.036072 290.037292,547.831543 287.228790,547.519775 
	C284.283875,547.192810 282.555298,549.364441 281.645386,551.714600 
	C278.513947,559.802734 278.672882,567.987671 281.759979,576.067810 
	C282.562256,578.167725 284.077332,579.798706 286.591461,579.796631 
	C289.313354,579.794312 290.731232,577.982483 291.756927,575.754028 
	C293.280762,572.443237 292.836517,568.901672 292.936035,564.463013 
z"/>
<path fill="#000000" opacity="1.000000" stroke="none" 
	d="
M269.031250,563.065857 
	C268.997742,569.552917 268.976501,575.549805 268.926392,581.546387 
	C268.902710,584.380615 268.047668,586.290710 264.626526,586.334534 
	C261.030701,586.380493 260.591003,584.353333 260.615540,581.521667 
	C260.679016,574.192261 260.594208,566.861511 260.658600,559.532104 
	C260.682281,556.836670 260.346802,554.214111 259.644684,551.634033 
	C259.034149,549.390503 257.769531,547.634399 255.290527,547.410767 
	C252.829758,547.188782 251.252640,548.700256 250.139328,550.706299 
	C248.727005,553.251221 248.358536,556.027039 248.371231,558.905640 
	C248.404297,566.402039 248.349060,573.898865 248.381058,581.395264 
	C248.392685,584.121155 248.159637,586.299194 244.495178,586.350952 
	C240.789124,586.403259 240.001312,584.458252 239.998901,581.344421 
	C239.989990,569.850952 239.853653,558.357361 239.888794,546.864136 
	C239.894897,544.869019 238.811646,542.203064 241.553696,541.146301 
	C244.080658,540.172424 246.450882,540.879883 248.107819,543.328796 
	C249.182663,542.753662 250.041626,542.277405 250.915024,541.829224 
	C259.267426,537.543518 266.933594,541.356812 268.235138,550.631165 
	C268.788208,554.572266 268.783081,558.591736 269.031250,563.065857 
z"/>
<path fill="#000000" opacity="1.000000" stroke="none" 
	d="
M235.441879,574.627563 
	C235.636841,576.578857 236.015411,578.071838 235.957428,579.547668 
	C235.871292,581.740601 237.077240,584.330383 234.521973,585.933411 
	C232.930084,586.932007 230.064102,586.118713 227.426758,584.079102 
	C226.136337,584.792664 224.882202,585.631409 223.518906,586.215271 
	C217.044037,588.988281 210.979843,586.187500 208.927887,579.449829 
	C208.103500,576.742920 207.626068,573.965088 207.643311,571.095886 
	C207.693375,562.773926 207.669083,554.451477 207.648804,546.129211 
	C207.642075,543.360596 207.472275,540.734558 211.570633,540.754944 
	C215.629761,540.775085 216.121002,543.215881 216.113434,546.344849 
	C216.094910,554.001282 216.088257,561.658081 216.140259,569.314270 
	C216.156006,571.632385 216.119476,573.968323 217.008408,576.205261 
	C217.733368,578.029602 218.778824,579.414001 220.849396,579.679688 
	C223.119278,579.970825 224.714142,578.864075 225.800064,577.015076 
	C227.097916,574.805298 227.378265,572.403625 227.317093,569.821655 
	C227.127884,561.837219 227.144257,553.847473 227.118637,545.859741 
	C227.109207,542.919189 227.731674,540.636963 231.547409,540.752014 
	C235.441772,540.869568 235.649796,543.369812 235.631134,546.203308 
	C235.569748,555.522766 235.497971,564.842224 235.441879,574.627563 
z"/>
<path fill="#000000" opacity="1.000000" stroke="none" 
	d="
M633.530212,583.607300 
	C624.533936,590.056763 615.633911,587.625549 611.804565,577.116272 
	C608.300110,567.498901 608.411133,557.504333 612.920715,548.000000 
	C615.422607,542.727051 619.810547,539.803345 625.675720,540.044739 
	C631.619568,540.289368 635.577942,543.757629 637.415649,549.307068 
	C641.340027,561.157837 642.076233,572.752869 633.530212,583.607300 
M630.613342,554.084351 
	C629.632996,550.872559 628.807739,547.238525 624.517822,547.353149 
	C620.153687,547.469788 619.508667,551.400940 618.874329,554.513306 
	C617.540405,561.057800 617.476990,567.705872 619.178284,574.236633 
	C619.965759,577.259277 621.391174,580.035583 625.123596,579.865723 
	C628.905640,579.693542 629.885010,576.561829 630.538025,573.641113 
	C631.925598,567.435120 632.312012,561.162048 630.613342,554.084351 
z"/>
<path fill="#000000" opacity="1.000000" stroke="none" 
	d="
M307.161774,563.288452 
	C310.031952,559.927856 313.579376,558.584412 317.384003,557.813477 
	C319.839417,557.315979 322.594299,557.382324 322.069946,553.565613 
	C321.596313,550.117981 320.355225,547.460266 316.403595,547.159790 
	C314.559235,547.019531 312.756653,547.235168 311.024689,547.933716 
	C309.156616,548.687134 307.848755,548.286377 307.154907,546.221436 
	C306.457123,544.144653 306.989044,542.824768 308.965179,541.740479 
	C318.738220,536.378052 329.021942,541.620850 330.341278,552.679199 
	C331.408630,561.625122 330.820282,570.606750 330.930145,579.570984 
	C330.956543,581.723877 332.114410,584.660889 329.407227,585.866821 
	C326.927124,586.971619 324.204346,586.656677 322.680237,583.961365 
	C316.326508,587.822815 311.917053,588.050232 308.007721,584.953552 
	C304.135010,581.885925 302.317444,574.629150 304.196686,568.848755 
	C304.800568,566.991272 305.991730,565.324707 307.161774,563.288452 
M311.918884,576.361084 
	C312.791199,578.460510 314.023193,580.451294 316.530182,580.259155 
	C319.259583,580.049866 320.840149,578.075928 321.836639,575.572021 
	C322.862671,572.993896 322.589447,570.334656 322.622192,567.681824 
	C322.662476,564.417664 320.859589,563.693298 318.048248,564.309082 
	C313.417755,565.323486 311.149078,569.348389 311.918884,576.361084 
z"/>
<path fill="#000000" opacity="1.000000" stroke="none" 
	d="
M540.638550,548.199707 
	C537.546631,548.703064 537.410217,546.513245 537.036804,544.832031 
	C536.626282,542.983887 538.066956,542.232178 539.506592,541.609497 
	C547.348633,538.217712 559.430603,539.056458 560.563660,552.411804 
	C561.424072,562.553589 560.780396,572.688538 561.015503,582.823608 
	C561.089478,586.011414 557.852173,587.724854 555.004822,585.626404 
	C552.744690,583.960693 551.637146,584.878174 549.854858,585.773743 
	C543.717773,588.857239 537.847473,586.659729 535.017029,580.364929 
	C530.732666,570.836548 536.440552,560.226746 547.136047,557.905212 
	C549.786621,557.329895 553.111145,557.885559 552.305115,553.221558 
	C551.592712,549.099548 549.648499,546.836304 545.354675,547.155273 
	C543.887390,547.264282 542.449829,547.772583 540.638550,548.199707 
M550.732788,578.235291 
	C552.898132,575.599121 552.939209,572.433960 552.837280,569.287048 
	C552.781189,567.554504 553.631165,565.275940 551.739258,564.276062 
	C549.686462,563.191162 547.528076,564.349548 545.698364,565.467285 
	C542.012451,567.718933 540.463867,573.645874 542.620850,577.331726 
	C544.524048,580.583679 547.202026,580.711853 550.732788,578.235291 
z"/>
<path fill="#000000" opacity="1.000000" stroke="none" 
	d="
M408.041260,585.366333 
	C399.689209,588.879883 392.839050,586.665527 389.504303,578.867493 
	C385.276642,568.981445 385.180878,558.773926 389.444855,548.788940 
	C391.797699,543.279297 396.066223,539.950195 402.243561,540.065186 
	C408.538269,540.182373 412.234955,544.080933 414.419312,549.598938 
	C419.186981,561.642761 417.219025,579.667114 408.041260,585.366333 
M400.794617,547.323181 
	C399.185486,547.601868 397.945862,548.576172 397.361115,549.966614 
	C393.581024,558.955444 393.595123,568.029114 397.258179,577.036072 
	C398.055908,578.997559 399.823181,580.082458 402.095184,579.869934 
	C404.570709,579.638184 405.968842,578.054016 406.683502,575.856812 
	C409.280975,567.870972 409.342743,559.839294 406.743408,551.853394 
	C405.947174,549.407288 404.581238,547.290710 400.794617,547.323181 
z"/>
<path fill="#000000" opacity="1.000000" stroke="none" 
	d="
M181.844727,569.996338 
	C181.845047,556.001343 181.990509,542.502991 181.767105,529.010742 
	C181.691147,524.423096 183.339996,522.675476 187.855942,522.891113 
	C192.843689,523.129272 197.850143,522.975952 202.848450,522.993225 
	C205.459564,523.002258 206.909637,524.141479 206.820236,526.923645 
	C206.732315,529.658752 205.271683,530.621521 202.661743,530.725830 
	C190.335114,531.218506 190.336578,531.255615 190.347748,543.268188 
	C190.354843,550.899963 190.360825,550.736450 197.936234,551.012817 
	C201.015076,551.125122 206.002930,549.192932 205.972672,554.820923 
	C205.940628,560.777161 200.772659,558.043762 197.895691,558.198181 
	C190.356323,558.602783 190.344955,558.349548 190.340012,565.973022 
	C190.336426,571.471313 190.269318,576.970398 190.342545,582.467651 
	C190.378922,585.198242 189.259644,586.373901 186.485580,586.361816 
	C183.740707,586.349915 181.915909,585.589722 181.905365,582.490784 
	C181.891754,578.492310 181.865967,574.493835 181.844727,569.996338 
z"/>
<path fill="#000000" opacity="1.000000" stroke="none" 
	d="
M671.659180,530.423950 
	C666.579956,531.922913 663.742004,535.270630 662.129089,539.690002 
	C658.656555,549.204895 658.400879,558.878601 661.336975,568.557373 
	C663.816589,576.731445 667.940308,579.484192 676.494873,578.940002 
	C678.712769,578.798889 680.873596,578.251343 681.293213,581.538757 
	C681.695923,584.693604 680.241699,586.044189 677.362183,586.744568 
	C668.171509,588.980042 658.800659,584.835815 654.747070,575.515015 
	C648.739319,561.700745 649.033264,547.574463 655.562256,533.988098 
	C659.588379,525.610168 667.322083,521.795837 676.078918,522.860229 
	C678.568726,523.162842 681.783508,523.018005 681.208862,527.222900 
	C680.705322,530.907898 678.577026,531.280945 675.510071,530.410217 
	C674.435181,530.105103 673.203064,530.353455 671.659180,530.423950 
z"/>
<path fill="#000000" opacity="1.000000" stroke="none" 
	d="
M746.935669,586.357910 
	C742.622681,586.357117 738.798889,586.413391 734.977661,586.339966 
	C730.231995,586.248840 729.008423,584.533569 730.851746,580.083435 
	C732.245911,576.717590 734.134277,573.557983 735.773071,570.291870 
	C739.262512,563.337646 742.732605,556.373779 746.417236,549.000549 
	C742.951843,547.611633 739.808533,548.291626 736.777527,548.145935 
	C734.142456,548.019287 731.676331,547.955017 731.756958,544.267151 
	C731.831604,540.855591 734.144714,540.767822 736.585449,540.761963 
	C741.405273,540.750366 746.225464,540.716125 751.044922,540.759583 
	C757.061401,540.813904 758.441895,543.065002 755.715149,548.485657 
	C751.385010,557.093689 746.969116,565.658569 742.606750,574.250549 
	C742.018738,575.408691 741.531494,576.618103 740.825134,578.186646 
	C744.202820,579.781006 747.542847,578.758911 750.714417,579.097778 
	C753.374817,579.382141 756.940063,578.552734 756.838135,582.949890 
	C756.743652,587.025574 753.466675,586.221741 750.915833,586.344055 
	C749.755005,586.399719 748.589417,586.356079 746.935669,586.357910 
z"/>
<path fill="#000000" opacity="1.000000" stroke="none" 
	d="
M565.649902,562.999878 
	C565.649719,549.081970 565.649719,535.664062 565.649719,522.390991 
	C573.114868,520.646179 574.063660,521.265564 574.075745,527.834839 
	C574.107971,545.276672 574.068542,562.718689 574.052063,580.160583 
	C574.051270,580.990234 574.008606,581.820496 573.965210,582.649414 
	C573.820435,585.416748 572.176575,586.221130 569.627991,586.246826 
	C566.914124,586.274170 565.650940,585.194153 565.669495,582.436646 
	C565.712036,576.124695 565.662292,569.812195 565.649902,562.999878 
z"/>
<path fill="#000000" opacity="1.000000" stroke="none" 
	d="
M370.166046,532.343262 
	C367.908386,531.121887 366.878937,532.206177 365.752472,533.660095 
	C364.857544,534.815125 363.368011,534.908447 362.121918,534.183777 
	C360.704193,533.359375 361.030609,531.962463 361.328674,530.627319 
	C362.408630,525.789673 366.156097,523.770325 370.685364,525.880310 
	C373.157837,527.032166 375.314606,528.647156 377.607391,525.586182 
	C378.333466,524.616882 379.740509,524.666992 380.806824,525.378723 
	C381.939911,526.134949 381.857513,527.309631 381.629700,528.508179 
	C380.659607,533.611755 375.708832,536.149841 370.166046,532.343262 
z"/>
</svg>