<svg version="1.1" id="Layer_1" xmlns="http://www.w3.org/2000/svg" xmlns:xlink="http://www.w3.org/1999/xlink" x="0px" y="0px"
	 width="100%" viewBox="0 0 2560 563" enable-background="new 0 0 2560 563" xml:space="preserve">
<path fill="#5E636D" opacity="1.000000" stroke="none" 
	d="
M2423.000000,564.000000 
	C1615.333496,564.000000 808.166931,564.000000 1.000325,564.000000 
	C1.000217,376.333496 1.000217,188.667023 1.000108,1.000401 
	C854.333008,1.000267 1707.666016,1.000267 2560.999268,1.000134 
	C2560.999512,188.666306 2560.999512,376.332611 2560.999756,563.999451 
	C2515.166748,564.000000 2469.333252,564.000000 2423.000000,564.000000 
M2052.214600,296.956970 
	C2050.779297,312.029938 2049.416992,327.110443 2047.875366,342.172516 
	C2047.171875,349.045105 2042.186279,353.618408 2035.239502,354.025146 
	C2032.269531,354.199036 2029.281006,354.054230 2025.757446,354.054230 
	C2025.192261,361.759705 2024.654175,369.093994 2024.084839,376.854431 
	C2031.392334,376.854431 2038.030640,376.854462 2044.669067,376.854431 
	C2066.161377,376.854309 2087.653809,376.899780 2109.145264,376.760284 
	C2110.722168,376.750061 2113.557373,375.550079 2113.660400,374.656097 
	C2114.430908,367.963470 2114.660645,361.208557 2115.082520,354.088593 
	C2113.072021,354.088593 2111.766846,354.111847 2110.462402,354.084869 
	C2101.300537,353.895264 2097.787354,350.287354 2098.000244,341.224243 
	C2098.042969,339.397095 2098.244629,337.571381 2098.424316,335.750031 
	C2100.612549,313.564056 2102.798584,291.377808 2105.010010,269.194092 
	C2106.611084,253.136475 2108.144775,237.070999 2109.922363,221.032700 
	C2110.649902,214.468674 2114.728516,211.155228 2121.392578,211.012817 
	C2123.868408,210.959900 2126.346191,211.004288 2129.200928,211.004288 
	C2129.836182,203.591156 2130.439697,196.550385 2131.048340,189.448166 
	C2101.458008,189.448166 2072.430664,189.448166 2043.277588,189.448166 
	C2042.744141,196.757446 2042.241089,203.650940 2041.703613,211.015503 
	C2044.646729,211.015503 2046.950439,210.899292 2049.238525,211.038345 
	C2054.998291,211.388428 2059.633545,215.813812 2059.189697,221.432220 
	C2057.961182,236.980408 2056.315430,252.495636 2054.819336,268.185699 
	C2021.328613,268.185699 1988.316650,268.185699 1954.782959,268.185699 
	C1956.264893,251.688644 1957.516602,235.620453 1959.260742,219.605865 
	C1959.799561,214.658524 1964.682251,211.353607 1970.192261,211.047119 
	C1972.786621,210.902832 1975.395386,211.022400 1978.335938,211.022400 
	C1978.947632,203.403244 1979.510864,196.387405 1980.079346,189.306442 
	C1950.585571,189.306442 1921.842041,189.306442 1892.721436,189.306442 
	C1892.117432,196.586624 1891.534302,203.615082 1890.921265,211.002869 
	C1893.415894,211.002869 1895.226807,210.985245 1897.037354,211.006012 
	C1903.810547,211.083710 1907.542725,214.443970 1907.980591,221.287628 
	C1908.181274,224.422302 1907.871582,227.609436 1907.578003,230.752701 
	C1905.753052,250.300812 1903.856812,269.842255 1902.004395,289.387848 
	C1900.293213,307.443268 1898.702515,325.510773 1896.859253,343.552582 
	C1896.205811,349.948853 1891.488037,353.873688 1884.972046,354.074768 
	C1882.376465,354.154907 1879.776245,354.087982 1876.947266,354.087982 
	C1876.294678,361.956146 1875.696655,369.167938 1875.059204,376.854431 
	C1883.468506,376.854431 1891.268433,376.854462 1899.068481,376.854431 
	C1918.728027,376.854340 1938.388062,376.905090 1958.046509,376.757416 
	C1959.620483,376.745575 1962.444702,375.512238 1962.551270,374.597626 
	C1963.330200,367.910339 1963.562866,361.159424 1963.973145,354.341766 
	C1962.672852,354.220215 1962.027466,354.123260 1961.379639,354.104767 
	C1948.749756,353.743225 1945.690186,349.931000 1947.519043,337.166840 
	C1948.202881,332.395111 1948.503296,327.568878 1948.997925,322.769501 
	C1950.067383,312.392975 1951.149658,302.017792 1952.245483,291.460297 
	C1985.936768,291.460297 2019.180542,291.460297 2052.868164,291.460297 
	C2052.667480,293.213867 2052.503174,294.651672 2052.214600,296.956970 
M1073.633301,188.800812 
	C1052.642456,188.731873 1031.651611,188.639359 1010.660828,188.601089 
	C992.167786,188.567398 973.674194,188.544281 955.182068,188.680756 
	C953.537476,188.692886 950.591980,189.736084 950.471558,190.607361 
	C949.596375,196.940231 949.291138,203.351852 948.776001,210.129837 
	C952.323364,210.129837 955.131775,210.071945 957.937073,210.141174 
	C965.068970,210.317154 968.137451,213.578934 967.970703,220.792847 
	C967.936157,222.286667 967.738953,223.778381 967.582397,225.267471 
	C965.060791,249.255173 962.544434,273.243439 960.003906,297.229156 
	C958.374573,312.612885 956.826538,328.006744 955.007141,343.368256 
	C954.107971,350.959686 950.305298,353.975342 942.618225,353.995361 
	C939.841492,354.002594 937.064819,353.996521 934.122070,353.996521 
	C933.610291,361.825317 933.138611,369.040131 932.632019,376.789307 
	C935.352356,376.789307 937.314697,376.789307 939.277039,376.789307 
	C981.594666,376.789307 1023.912720,376.895203 1066.229492,376.708923 
	C1075.855103,376.666565 1085.548950,376.161469 1095.082886,374.899048 
	C1110.366089,372.875305 1124.794678,368.205170 1137.702515,359.265656 
	C1161.310181,342.916016 1169.152710,301.641998 1131.205444,284.651672 
	C1124.505859,281.652069 1117.405151,279.548187 1110.534546,277.046967 
	C1110.596802,276.968658 1110.749756,276.576172 1110.998657,276.500763 
	C1111.782959,276.263245 1112.652710,276.266083 1113.402100,275.961334 
	C1121.654541,272.605560 1130.614136,270.333344 1137.981201,265.591278 
	C1153.639526,255.512207 1159.497681,239.967896 1156.750610,221.905640 
	C1154.399170,206.444504 1142.565796,199.362976 1128.920532,195.077026 
	C1111.248535,189.526306 1092.953247,188.799637 1073.633301,188.800812 
M915.490295,189.025116 
	C846.403870,189.025116 777.317505,189.025116 708.161255,189.025116 
	C707.667969,196.483109 707.224426,203.189392 706.777283,209.949295 
	C708.475769,210.036652 709.305176,210.106400 710.135437,210.117935 
	C722.188477,210.285553 725.320435,213.731125 724.122681,225.997559 
	C720.532410,262.767181 716.954895,299.538574 713.171204,336.288544 
	C711.441345,353.089447 711.224121,353.020905 694.744629,354.156067 
	C693.524719,354.240112 691.479919,355.572113 691.375183,356.499695 
	C690.635620,363.051239 690.303345,369.648804 689.825806,376.449097 
	C763.850952,376.449097 837.245667,376.449097 910.839233,376.449097 
	C913.307068,352.553345 915.742188,328.974884 918.190979,305.263672 
	C908.739075,305.263672 900.000427,305.263672 891.324951,305.263672 
	C890.827026,308.057373 890.454895,310.526276 889.941406,312.965424 
	C885.974243,331.810120 876.943237,346.482056 856.993225,351.516418 
	C851.237976,352.968750 845.186768,353.841370 839.258606,353.911682 
	C815.763489,354.190430 792.263428,354.052002 768.765198,354.040894 
	C767.521179,354.040314 766.277344,353.789368 764.723755,353.621521 
	C766.859192,332.700226 768.951477,312.200897 771.064087,291.503082 
	C772.682251,291.383453 773.982910,291.179749 775.278259,291.209045 
	C783.429138,291.393433 791.631226,291.128815 799.716309,291.971771 
	C810.540588,293.100372 817.063232,299.701904 819.117065,310.370605 
	C819.642151,313.098602 819.920227,315.874146 820.326050,318.727966 
	C828.838257,318.727966 837.255859,318.727966 845.881653,318.727966 
	C848.329407,292.737427 850.751648,267.017761 853.182800,241.203156 
	C844.042175,241.203156 835.761292,241.203156 827.366882,241.203156 
	C826.844299,243.668884 826.456482,245.950455 825.871155,248.180161 
	C823.610840,256.789795 819.754944,264.946503 810.296570,266.480042 
	C798.267822,268.430359 785.948486,268.588745 774.190430,269.486420 
	C773.543030,267.806946 773.298096,267.489014 773.325012,267.196014 
	C774.937622,249.628326 776.613770,232.066345 778.167297,214.493530 
	C778.444580,211.357208 779.749023,210.330093 782.914124,210.345245 
	C807.078491,210.460846 831.246155,210.197464 855.407898,210.477142 
	C875.947266,210.714890 888.617737,220.633316 893.541809,239.773270 
	C894.602295,243.895493 894.959045,248.198746 895.672424,252.620071 
	C904.430237,252.620071 913.040222,252.620071 922.200012,252.620071 
	C924.555847,231.502335 926.901794,210.473404 929.294556,189.025116 
	C924.440979,189.025116 920.463562,189.025116 915.490295,189.025116 
M1436.850830,321.198486 
	C1435.944458,329.129700 1435.318726,337.106445 1434.042603,344.977722 
	C1433.021240,351.276855 1429.286743,353.958191 1422.863770,354.049042 
	C1419.897705,354.090973 1416.930542,354.056213 1413.442017,354.056213 
	C1412.881836,361.787201 1412.352417,369.093445 1411.816895,376.483582 
	C1485.953125,376.483582 1559.204102,376.483582 1632.761841,376.483582 
	C1635.234741,352.634155 1637.679443,329.056274 1640.155762,305.174500 
	C1630.839722,305.174500 1622.087158,305.174500 1613.253784,305.174500 
	C1612.802490,307.674927 1612.447754,309.963531 1611.971436,312.226471 
	C1609.311401,324.861084 1604.858765,336.560272 1593.976440,344.566315 
	C1584.628174,351.443787 1573.720337,353.787872 1562.438843,353.917664 
	C1538.279297,354.195648 1514.114746,354.040558 1489.952271,354.038513 
	C1489.000854,354.038452 1488.049438,353.788910 1486.675415,353.596405 
	C1488.788452,332.752075 1490.878418,312.136017 1492.945923,291.741943 
	C1502.717285,291.741943 1511.905029,291.068695 1520.952393,291.908020 
	C1532.952881,293.021271 1539.183105,299.636322 1541.307129,311.625854 
	C1541.709961,313.899506 1541.884277,316.213654 1542.177734,318.622070 
	C1550.711426,318.622070 1559.254395,318.622070 1567.828735,318.622070 
	C1570.275635,292.627655 1572.685791,267.023865 1575.111816,241.252075 
	C1566.067871,241.252075 1557.658569,241.252075 1549.261230,241.252075 
	C1548.757324,243.652969 1548.388672,245.786270 1547.856689,247.878036 
	C1545.667603,256.485107 1541.887207,264.015839 1532.547729,266.555634 
	C1520.348633,269.873077 1507.867432,268.585785 1495.173828,268.579102 
	C1496.888062,249.823669 1498.483398,231.610901 1500.380127,213.429535 
	C1500.498413,212.297089 1502.974854,210.548431 1504.364136,210.538925 
	C1529.025391,210.369690 1553.695068,210.071655 1578.348511,210.547836 
	C1597.339478,210.914658 1609.074707,219.667419 1614.434204,236.449844 
	C1616.076660,241.592728 1616.716675,247.055740 1617.867920,252.624420 
	C1626.330078,252.624420 1634.937622,252.624420 1644.128296,252.624420 
	C1646.501099,231.512436 1648.863647,210.492111 1651.240356,189.345001 
	C1577.040161,189.345001 1503.640259,189.345001 1430.262207,189.345001 
	C1429.880249,192.968018 1429.391846,196.265427 1429.222168,199.579147 
	C1429.047485,202.991684 1429.183472,206.420105 1429.183472,209.965363 
	C1430.481201,210.028412 1431.464722,210.105453 1432.449097,210.119522 
	C1444.071899,210.285812 1447.030884,213.484680 1446.090820,225.377975 
	C1445.356812,234.666260 1444.353394,243.933411 1443.452515,253.208282 
	C1441.280762,275.567719 1439.099121,297.926147 1436.850830,321.198486 
M1253.500000,189.025726 
	C1229.707520,189.025726 1205.915039,189.025726 1181.684448,189.025726 
	C1181.078857,196.304001 1180.509277,203.148834 1179.905029,210.408875 
	C1182.448364,210.408875 1184.264404,210.379410 1186.079224,210.413971 
	C1193.860107,210.562164 1197.664307,214.250717 1197.979126,222.048203 
	C1198.052734,223.871353 1197.925049,225.715851 1197.735107,227.534317 
	C1196.541992,238.954010 1195.248779,250.363434 1194.093506,261.786865 
	C1191.347656,288.939270 1188.702026,316.101868 1185.920654,343.250610 
	C1185.170776,350.570709 1181.057007,354.031342 1173.592285,354.089355 
	C1171.111572,354.108643 1168.630615,354.092407 1165.567627,354.092407 
	C1164.965210,361.745209 1164.388428,369.071625 1163.796753,376.588501 
	C1194.189941,376.588501 1223.779053,376.588501 1253.783447,376.588501 
	C1254.294067,369.135681 1254.788208,361.921997 1255.324951,354.088623 
	C1251.438599,354.088623 1248.150635,354.143311 1244.864990,354.076263 
	C1239.459351,353.965942 1237.040771,351.295044 1237.516968,345.829437 
	C1239.005371,328.749939 1240.485474,311.668701 1242.224365,294.614227 
	C1242.351562,293.367432 1244.523193,291.344696 1245.744629,291.344330 
	C1259.899292,291.339966 1274.078247,291.220795 1288.201416,292.013367 
	C1301.414429,292.754852 1309.171265,300.485931 1309.935791,313.580261 
	C1310.721313,327.035065 1310.729370,340.547058 1310.698364,354.033112 
	C1310.680786,361.630096 1313.634888,367.595551 1319.112061,372.454834 
	C1324.828979,377.526886 1331.492432,380.968414 1339.088135,382.001373 
	C1355.414307,384.221588 1371.149902,380.213226 1386.918945,376.903046 
	C1387.767578,376.724915 1388.944214,375.557159 1389.039307,374.741821 
	C1389.822754,368.021820 1390.386353,361.276245 1391.064331,354.026947 
	C1385.736816,354.026947 1380.885620,354.502167 1376.158936,353.936798 
	C1362.613525,352.316589 1358.792480,347.236481 1359.519897,336.308716 
	C1359.862183,331.165741 1359.641357,325.978821 1359.543213,320.814331 
	C1359.333740,309.800385 1357.048584,299.338745 1347.860596,292.286316 
	C1342.695068,288.321411 1336.416748,285.806366 1331.179565,282.934174 
	C1331.997437,282.760681 1333.774780,282.386566 1335.550781,282.006348 
	C1352.139771,278.454773 1367.450684,272.438660 1378.636230,258.897827 
	C1397.667847,235.858551 1390.168091,206.542297 1362.008789,197.229523 
	C1349.857666,193.210907 1336.752197,191.001343 1323.948486,190.266815 
	C1300.851318,188.941757 1277.654907,189.344574 1253.500000,189.025726 
M683.044922,315.509705 
	C690.032166,297.119995 692.761780,278.114288 689.590332,258.683380 
	C685.502319,233.636841 670.550110,216.421509 648.498474,204.923187 
	C625.996521,193.190033 601.691101,189.219589 576.663452,189.080612 
	C539.852966,188.876205 503.040497,189.023087 466.228851,189.038483 
	C464.796967,189.039078 463.365112,189.227814 461.587524,189.353287 
	C461.004944,196.402176 460.447906,203.142120 459.847595,210.405731 
	C462.501892,210.405731 464.640778,210.389511 466.779297,210.408600 
	C474.952209,210.481567 477.902588,213.385468 477.979401,221.543961 
	C477.998108,223.535049 477.828003,225.535538 477.627686,227.519897 
	C475.422760,249.362900 473.190887,271.203156 470.974182,293.044952 
	C469.277985,309.758057 467.664795,326.480011 465.869690,343.182434 
	C465.096954,350.372314 460.817719,353.962219 453.431671,354.081940 
	C450.844421,354.123871 448.255859,354.088593 445.387878,354.088593 
	C444.816833,362.036774 444.300751,369.220184 443.752289,376.854309 
	C445.685852,376.854309 446.821411,376.854340 447.956940,376.854309 
	C488.099945,376.852600 528.249573,377.267365 568.382385,376.627228 
	C582.755676,376.397949 597.362976,374.861511 611.384094,371.756958 
	C643.672485,364.607697 669.281982,347.959015 683.044922,315.509705 
M220.112900,218.610031 
	C215.121109,224.827240 209.418198,230.605835 205.264465,237.339981 
	C189.841553,262.344147 184.087997,289.407562 192.142883,318.051208 
	C199.267548,343.386932 217.790787,359.158417 240.791077,369.839844 
	C273.524414,385.041351 307.987579,388.040283 343.178711,381.617218 
	C372.801758,376.210419 399.319092,363.981964 419.984924,341.382141 
	C442.318146,316.958923 450.741455,287.970154 444.654785,255.542389 
	C439.741211,229.364624 423.064178,211.355377 400.091553,199.212128 
	C369.155518,182.859467 335.863617,178.214920 301.395020,181.791367 
	C270.581421,184.988586 243.301453,196.580856 220.112900,218.610031 
M1659.508789,329.925140 
	C1668.173706,349.740082 1682.745972,363.822906 1702.116333,372.900665 
	C1729.967163,385.952576 1759.239014,388.068329 1788.919678,381.652222 
	C1823.047729,374.274780 1847.112671,354.351837 1859.405029,321.145416 
	C1860.111938,319.235809 1860.515625,317.213928 1861.204224,314.724457 
	C1852.948486,314.724457 1845.463623,314.939209 1838.000488,314.629639 
	C1834.514404,314.485046 1833.231445,315.841492 1831.987061,318.889801 
	C1823.665771,339.273956 1809.051514,352.512573 1787.106934,356.571716 
	C1771.891357,359.386139 1756.939819,357.199493 1742.406250,352.281067 
	C1723.803833,345.985809 1712.446777,332.825897 1708.286377,313.890839 
	C1704.113770,294.900391 1704.567871,275.767334 1710.255249,257.113434 
	C1717.387939,233.719269 1731.735474,216.669449 1755.876221,209.640335 
	C1774.152954,204.318649 1792.488037,205.309647 1810.197998,212.235733 
	C1824.480225,217.821259 1834.223633,228.159851 1838.453857,243.089920 
	C1839.841553,247.987122 1840.291870,253.149918 1841.214111,258.440002 
	C1849.630615,258.440002 1858.052490,258.440002 1866.880615,258.440002 
	C1869.334229,233.990021 1871.766846,209.748398 1874.255005,184.954254 
	C1868.837646,184.954254 1864.002441,185.361801 1859.263794,184.859985 
	C1851.923218,184.082642 1846.251343,185.578842 1843.704468,193.346741 
	C1843.369995,194.366974 1842.371094,195.169342 1841.588135,196.192444 
	C1840.667847,195.793915 1839.923462,195.484024 1839.189209,195.151718 
	C1808.001221,181.037430 1775.623047,176.277481 1741.857056,182.998840 
	C1717.042603,187.938309 1694.801025,198.277496 1678.358521,217.890350 
	C1650.550415,251.060440 1645.399780,288.649353 1659.508789,329.925140 
M2170.704590,253.247223 
	C2175.561279,218.385712 2200.556152,207.459854 2230.601562,211.787827 
	C2229.992920,219.246750 2229.436523,226.710373 2228.766602,234.163773 
	C2226.174561,262.998169 2223.575439,291.832062 2220.912842,320.659973 
	C2220.133057,329.099548 2219.469482,337.573212 2218.117920,345.928558 
	C2217.172363,351.773987 2213.853516,353.953156 2207.930664,354.047119 
	C2204.658203,354.099060 2201.383789,354.056427 2197.762451,354.056427 
	C2197.204834,361.839966 2196.687988,369.054779 2196.151367,376.546204 
	C2224.643311,376.546204 2252.578125,376.546204 2281.123535,376.546204 
	C2282.090576,369.222168 2283.055664,361.913452 2284.062256,354.290955 
	C2282.108398,354.198273 2280.645020,354.085632 2279.180664,354.066559 
	C2270.906494,353.958832 2267.404785,350.360870 2267.969971,341.967865 
	C2268.584473,332.839020 2269.488037,323.728607 2270.338623,314.616974 
	C2272.550537,290.929047 2274.789551,267.243622 2277.045166,243.559799 
	C2278.064697,232.854141 2279.150146,222.154755 2280.275879,210.740021 
	C2289.199463,211.205780 2297.713623,211.087418 2306.063477,212.201538 
	C2324.222168,214.624542 2335.995361,227.053619 2338.110840,245.213394 
	C2338.602051,249.429535 2338.846436,253.674454 2339.202881,257.889648 
	C2348.253418,257.889648 2357.014160,257.889648 2366.040039,257.889648 
	C2368.475586,234.901581 2370.882324,212.183548 2373.292480,189.434784 
	C2298.441162,189.434784 2224.417725,189.434784 2150.345947,189.434784 
	C2147.731689,212.411453 2145.162842,234.989182 2142.523438,258.188965 
	C2150.820068,258.188965 2158.444824,258.003784 2166.053223,258.274597 
	C2169.376221,258.392883 2170.524170,257.102966 2170.704590,253.247223 
z"/>
<path fill="#FDFDFC" opacity="1.000000" stroke="none" 
	d="
M2052.276855,296.523224 
	C2052.503174,294.651672 2052.667480,293.213867 2052.868164,291.460297 
	C2019.180542,291.460297 1985.936768,291.460297 1952.245483,291.460297 
	C1951.149658,302.017792 1950.067383,312.392975 1948.997925,322.769501 
	C1948.503296,327.568878 1948.202881,332.395111 1947.519043,337.166840 
	C1945.690186,349.931000 1948.749756,353.743225 1961.379639,354.104767 
	C1962.027466,354.123260 1962.672852,354.220215 1963.973145,354.341766 
	C1963.562866,361.159424 1963.330200,367.910339 1962.551270,374.597626 
	C1962.444702,375.512238 1959.620483,376.745575 1958.046509,376.757416 
	C1938.388062,376.905090 1918.728027,376.854340 1899.068481,376.854431 
	C1891.268433,376.854462 1883.468506,376.854431 1875.059204,376.854431 
	C1875.696655,369.167938 1876.294678,361.956146 1876.947266,354.087982 
	C1879.776245,354.087982 1882.376465,354.154907 1884.972046,354.074768 
	C1891.488037,353.873688 1896.205811,349.948853 1896.859253,343.552582 
	C1898.702515,325.510773 1900.293213,307.443268 1902.004395,289.387848 
	C1903.856812,269.842255 1905.753052,250.300812 1907.578003,230.752701 
	C1907.871582,227.609436 1908.181274,224.422302 1907.980591,221.287628 
	C1907.542725,214.443970 1903.810547,211.083710 1897.037354,211.006012 
	C1895.226807,210.985245 1893.415894,211.002869 1890.921265,211.002869 
	C1891.534302,203.615082 1892.117432,196.586624 1892.721436,189.306442 
	C1921.842041,189.306442 1950.585571,189.306442 1980.079346,189.306442 
	C1979.510864,196.387405 1978.947632,203.403244 1978.335938,211.022400 
	C1975.395386,211.022400 1972.786621,210.902832 1970.192261,211.047119 
	C1964.682251,211.353607 1959.799561,214.658524 1959.260742,219.605865 
	C1957.516602,235.620453 1956.264893,251.688644 1954.782959,268.185699 
	C1988.316650,268.185699 2021.328613,268.185699 2054.819336,268.185699 
	C2056.315430,252.495636 2057.961182,236.980408 2059.189697,221.432220 
	C2059.633545,215.813812 2054.998291,211.388428 2049.238525,211.038345 
	C2046.950439,210.899292 2044.646729,211.015503 2041.703613,211.015503 
	C2042.241089,203.650940 2042.744141,196.757446 2043.277588,189.448166 
	C2072.430664,189.448166 2101.458008,189.448166 2131.048340,189.448166 
	C2130.439697,196.550385 2129.836182,203.591156 2129.200928,211.004288 
	C2126.346191,211.004288 2123.868408,210.959900 2121.392578,211.012817 
	C2114.728516,211.155228 2110.649902,214.468674 2109.922363,221.032700 
	C2108.144775,237.070999 2106.611084,253.136475 2105.010010,269.194092 
	C2102.798584,291.377808 2100.612549,313.564056 2098.424316,335.750031 
	C2098.244629,337.571381 2098.042969,339.397095 2098.000244,341.224243 
	C2097.787354,350.287354 2101.300537,353.895264 2110.462402,354.084869 
	C2111.766846,354.111847 2113.072021,354.088593 2115.082520,354.088593 
	C2114.660645,361.208557 2114.430908,367.963470 2113.660400,374.656097 
	C2113.557373,375.550079 2110.722168,376.750061 2109.145264,376.760284 
	C2087.653809,376.899780 2066.161377,376.854309 2044.669067,376.854431 
	C2038.030640,376.854462 2031.392334,376.854431 2024.084839,376.854431 
	C2024.654175,369.093994 2025.192261,361.759705 2025.757446,354.054230 
	C2029.281006,354.054230 2032.269531,354.199036 2035.239502,354.025146 
	C2042.186279,353.618408 2047.171875,349.045105 2047.875366,342.172516 
	C2049.416992,327.110443 2050.779297,312.029938 2052.276855,296.523224 
z"/>
<path fill="#FDFDFC" opacity="1.000000" stroke="none" 
	d="
M1074.118896,188.804169 
	C1092.953247,188.799637 1111.248535,189.526306 1128.920532,195.077026 
	C1142.565796,199.362976 1154.399170,206.444504 1156.750610,221.905640 
	C1159.497681,239.967896 1153.639526,255.512207 1137.981201,265.591278 
	C1130.614136,270.333344 1121.654541,272.605560 1113.402100,275.961334 
	C1112.652710,276.266083 1111.782959,276.263245 1110.998657,276.500763 
	C1110.749756,276.576172 1110.596802,276.968658 1110.534546,277.046967 
	C1117.405151,279.548187 1124.505859,281.652069 1131.205444,284.651672 
	C1169.152710,301.641998 1161.310181,342.916016 1137.702515,359.265656 
	C1124.794678,368.205170 1110.366089,372.875305 1095.082886,374.899048 
	C1085.548950,376.161469 1075.855103,376.666565 1066.229492,376.708923 
	C1023.912720,376.895203 981.594666,376.789307 939.277039,376.789307 
	C937.314697,376.789307 935.352356,376.789307 932.632019,376.789307 
	C933.138611,369.040131 933.610291,361.825317 934.122070,353.996521 
	C937.064819,353.996521 939.841492,354.002594 942.618225,353.995361 
	C950.305298,353.975342 954.107971,350.959686 955.007141,343.368256 
	C956.826538,328.006744 958.374573,312.612885 960.003906,297.229156 
	C962.544434,273.243439 965.060791,249.255173 967.582397,225.267471 
	C967.738953,223.778381 967.936157,222.286667 967.970703,220.792847 
	C968.137451,213.578934 965.068970,210.317154 957.937073,210.141174 
	C955.131775,210.071945 952.323364,210.129837 948.776001,210.129837 
	C949.291138,203.351852 949.596375,196.940231 950.471558,190.607361 
	C950.591980,189.736084 953.537476,188.692886 955.182068,188.680756 
	C973.674194,188.544281 992.167786,188.567398 1010.660828,188.601089 
	C1031.651611,188.639359 1052.642456,188.731873 1074.118896,188.804169 
M1043.499878,353.997864 
	C1048.666504,353.996887 1053.844482,354.215515 1058.997681,353.951508 
	C1071.789917,353.296143 1084.099487,350.793915 1094.741943,343.078796 
	C1110.417480,331.714935 1109.973755,309.408997 1093.808716,298.798859 
	C1085.092773,293.078094 1075.319702,290.614258 1064.951294,290.579712 
	C1047.451538,290.521423 1029.951538,290.552979 1012.451660,290.579865 
	C1010.710388,290.582520 1008.969543,290.814240 1007.252258,290.937927 
	C1005.215637,312.225342 1003.239929,332.876404 1001.219238,353.997864 
	C1015.223206,353.997864 1028.861572,353.997864 1043.499878,353.997864 
M1013.197998,231.811279 
	C1012.074768,243.811768 1010.951477,255.812271 1009.818787,267.913208 
	C1030.400635,267.913208 1050.225220,268.405975 1070.001831,267.645508 
	C1076.908203,267.379944 1083.995972,264.719543 1090.470947,261.924957 
	C1101.458130,257.182800 1106.119995,248.189438 1105.332397,236.194656 
	C1104.567871,224.552246 1098.071411,217.599396 1087.557129,214.015442 
	C1083.347046,212.580368 1078.870850,211.252136 1074.481689,211.132797 
	C1055.997070,210.630188 1037.498657,210.652359 1019.007568,210.352554 
	C1015.848267,210.301346 1015.127136,211.686081 1014.952271,214.517395 
	C1014.614014,219.992844 1013.889771,225.444443 1013.197998,231.811279 
z"/>
<path fill="#FDFDFC" opacity="1.000000" stroke="none" 
	d="
M915.988220,189.025116 
	C920.463562,189.025116 924.440979,189.025116 929.294556,189.025116 
	C926.901794,210.473404 924.555847,231.502335 922.200012,252.620071 
	C913.040222,252.620071 904.430237,252.620071 895.672424,252.620071 
	C894.959045,248.198746 894.602295,243.895493 893.541809,239.773270 
	C888.617737,220.633316 875.947266,210.714890 855.407898,210.477142 
	C831.246155,210.197464 807.078491,210.460846 782.914124,210.345245 
	C779.749023,210.330093 778.444580,211.357208 778.167297,214.493530 
	C776.613770,232.066345 774.937622,249.628326 773.325012,267.196014 
	C773.298096,267.489014 773.543030,267.806946 774.190430,269.486420 
	C785.948486,268.588745 798.267822,268.430359 810.296570,266.480042 
	C819.754944,264.946503 823.610840,256.789795 825.871155,248.180161 
	C826.456482,245.950455 826.844299,243.668884 827.366882,241.203156 
	C835.761292,241.203156 844.042175,241.203156 853.182800,241.203156 
	C850.751648,267.017761 848.329407,292.737427 845.881653,318.727966 
	C837.255859,318.727966 828.838257,318.727966 820.326050,318.727966 
	C819.920227,315.874146 819.642151,313.098602 819.117065,310.370605 
	C817.063232,299.701904 810.540588,293.100372 799.716309,291.971771 
	C791.631226,291.128815 783.429138,291.393433 775.278259,291.209045 
	C773.982910,291.179749 772.682251,291.383453 771.064087,291.503082 
	C768.951477,312.200897 766.859192,332.700226 764.723755,353.621521 
	C766.277344,353.789368 767.521179,354.040314 768.765198,354.040894 
	C792.263428,354.052002 815.763489,354.190430 839.258606,353.911682 
	C845.186768,353.841370 851.237976,352.968750 856.993225,351.516418 
	C876.943237,346.482056 885.974243,331.810120 889.941406,312.965424 
	C890.454895,310.526276 890.827026,308.057373 891.324951,305.263672 
	C900.000427,305.263672 908.739075,305.263672 918.190979,305.263672 
	C915.742188,328.974884 913.307068,352.553345 910.839233,376.449097 
	C837.245667,376.449097 763.850952,376.449097 689.825806,376.449097 
	C690.303345,369.648804 690.635620,363.051239 691.375183,356.499695 
	C691.479919,355.572113 693.524719,354.240112 694.744629,354.156067 
	C711.224121,353.020905 711.441345,353.089447 713.171204,336.288544 
	C716.954895,299.538574 720.532410,262.767181 724.122681,225.997559 
	C725.320435,213.731125 722.188477,210.285553 710.135437,210.117935 
	C709.305176,210.106400 708.475769,210.036652 706.777283,209.949295 
	C707.224426,203.189392 707.667969,196.483109 708.161255,189.025116 
	C777.317505,189.025116 846.403870,189.025116 915.988220,189.025116 
z"/>
<path fill="#FDFDFC" opacity="1.000000" stroke="none" 
	d="
M1436.886230,320.741760 
	C1439.099121,297.926147 1441.280762,275.567719 1443.452515,253.208282 
	C1444.353394,243.933411 1445.356812,234.666260 1446.090820,225.377975 
	C1447.030884,213.484680 1444.071899,210.285812 1432.449097,210.119522 
	C1431.464722,210.105453 1430.481201,210.028412 1429.183472,209.965363 
	C1429.183472,206.420105 1429.047485,202.991684 1429.222168,199.579147 
	C1429.391846,196.265427 1429.880249,192.968018 1430.262207,189.345001 
	C1503.640259,189.345001 1577.040161,189.345001 1651.240356,189.345001 
	C1648.863647,210.492111 1646.501099,231.512436 1644.128296,252.624420 
	C1634.937622,252.624420 1626.330078,252.624420 1617.867920,252.624420 
	C1616.716675,247.055740 1616.076660,241.592728 1614.434204,236.449844 
	C1609.074707,219.667419 1597.339478,210.914658 1578.348511,210.547836 
	C1553.695068,210.071655 1529.025391,210.369690 1504.364136,210.538925 
	C1502.974854,210.548431 1500.498413,212.297089 1500.380127,213.429535 
	C1498.483398,231.610901 1496.888062,249.823669 1495.173828,268.579102 
	C1507.867432,268.585785 1520.348633,269.873077 1532.547729,266.555634 
	C1541.887207,264.015839 1545.667603,256.485107 1547.856689,247.878036 
	C1548.388672,245.786270 1548.757324,243.652969 1549.261230,241.252075 
	C1557.658569,241.252075 1566.067871,241.252075 1575.111816,241.252075 
	C1572.685791,267.023865 1570.275635,292.627655 1567.828735,318.622070 
	C1559.254395,318.622070 1550.711426,318.622070 1542.177734,318.622070 
	C1541.884277,316.213654 1541.709961,313.899506 1541.307129,311.625854 
	C1539.183105,299.636322 1532.952881,293.021271 1520.952393,291.908020 
	C1511.905029,291.068695 1502.717285,291.741943 1492.945923,291.741943 
	C1490.878418,312.136017 1488.788452,332.752075 1486.675415,353.596405 
	C1488.049438,353.788910 1489.000854,354.038452 1489.952271,354.038513 
	C1514.114746,354.040558 1538.279297,354.195648 1562.438843,353.917664 
	C1573.720337,353.787872 1584.628174,351.443787 1593.976440,344.566315 
	C1604.858765,336.560272 1609.311401,324.861084 1611.971436,312.226471 
	C1612.447754,309.963531 1612.802490,307.674927 1613.253784,305.174500 
	C1622.087158,305.174500 1630.839722,305.174500 1640.155762,305.174500 
	C1637.679443,329.056274 1635.234741,352.634155 1632.761841,376.483582 
	C1559.204102,376.483582 1485.953125,376.483582 1411.816895,376.483582 
	C1412.352417,369.093445 1412.881836,361.787201 1413.442017,354.056213 
	C1416.930542,354.056213 1419.897705,354.090973 1422.863770,354.049042 
	C1429.286743,353.958191 1433.021240,351.276855 1434.042603,344.977722 
	C1435.318726,337.106445 1435.944458,329.129700 1436.886230,320.741760 
z"/>
<path fill="#FDFDFC" opacity="1.000000" stroke="none" 
	d="
M1254.000000,189.025726 
	C1277.654907,189.344574 1300.851318,188.941757 1323.948486,190.266815 
	C1336.752197,191.001343 1349.857666,193.210907 1362.008789,197.229523 
	C1390.168091,206.542297 1397.667847,235.858551 1378.636230,258.897827 
	C1367.450684,272.438660 1352.139771,278.454773 1335.550781,282.006348 
	C1333.774780,282.386566 1331.997437,282.760681 1331.179565,282.934174 
	C1336.416748,285.806366 1342.695068,288.321411 1347.860596,292.286316 
	C1357.048584,299.338745 1359.333740,309.800385 1359.543213,320.814331 
	C1359.641357,325.978821 1359.862183,331.165741 1359.519897,336.308716 
	C1358.792480,347.236481 1362.613525,352.316589 1376.158936,353.936798 
	C1380.885620,354.502167 1385.736816,354.026947 1391.064331,354.026947 
	C1390.386353,361.276245 1389.822754,368.021820 1389.039307,374.741821 
	C1388.944214,375.557159 1387.767578,376.724915 1386.918945,376.903046 
	C1371.149902,380.213226 1355.414307,384.221588 1339.088135,382.001373 
	C1331.492432,380.968414 1324.828979,377.526886 1319.112061,372.454834 
	C1313.634888,367.595551 1310.680786,361.630096 1310.698364,354.033112 
	C1310.729370,340.547058 1310.721313,327.035065 1309.935791,313.580261 
	C1309.171265,300.485931 1301.414429,292.754852 1288.201416,292.013367 
	C1274.078247,291.220795 1259.899292,291.339966 1245.744629,291.344330 
	C1244.523193,291.344696 1242.351562,293.367432 1242.224365,294.614227 
	C1240.485474,311.668701 1239.005371,328.749939 1237.516968,345.829437 
	C1237.040771,351.295044 1239.459351,353.965942 1244.864990,354.076263 
	C1248.150635,354.143311 1251.438599,354.088623 1255.324951,354.088623 
	C1254.788208,361.921997 1254.294067,369.135681 1253.783447,376.588501 
	C1223.779053,376.588501 1194.189941,376.588501 1163.796753,376.588501 
	C1164.388428,369.071625 1164.965210,361.745209 1165.567627,354.092407 
	C1168.630615,354.092407 1171.111572,354.108643 1173.592285,354.089355 
	C1181.057007,354.031342 1185.170776,350.570709 1185.920654,343.250610 
	C1188.702026,316.101868 1191.347656,288.939270 1194.093506,261.786865 
	C1195.248779,250.363434 1196.541992,238.954010 1197.735107,227.534317 
	C1197.925049,225.715851 1198.052734,223.871353 1197.979126,222.048203 
	C1197.664307,214.250717 1193.860107,210.562164 1186.079224,210.413971 
	C1184.264404,210.379410 1182.448364,210.408875 1179.905029,210.408875 
	C1180.509277,203.148834 1181.078857,196.304001 1181.684448,189.025726 
	C1205.915039,189.025726 1229.707520,189.025726 1254.000000,189.025726 
M1296.355103,210.972183 
	C1281.095581,210.972183 1265.836060,210.972183 1250.322510,210.972183 
	C1248.492432,230.373856 1246.707642,249.296326 1244.970947,267.708099 
	C1264.845581,267.708099 1284.144165,268.403717 1303.347534,267.357269 
	C1310.772583,266.952667 1318.738525,263.810364 1325.144897,259.811554 
	C1342.603271,248.914032 1341.021362,225.496078 1322.249756,217.135071 
	C1314.552734,213.706757 1305.660645,212.961105 1296.355103,210.972183 
z"/>
<path fill="#FDFDFC" opacity="1.000000" stroke="none" 
	d="
M682.930176,315.874939 
	C669.281982,347.959015 643.672485,364.607697 611.384094,371.756958 
	C597.362976,374.861511 582.755676,376.397949 568.382385,376.627228 
	C528.249573,377.267365 488.099945,376.852600 447.956940,376.854309 
	C446.821411,376.854340 445.685852,376.854309 443.752289,376.854309 
	C444.300751,369.220184 444.816833,362.036774 445.387878,354.088593 
	C448.255859,354.088593 450.844421,354.123871 453.431671,354.081940 
	C460.817719,353.962219 465.096954,350.372314 465.869690,343.182434 
	C467.664795,326.480011 469.277985,309.758057 470.974182,293.044952 
	C473.190887,271.203156 475.422760,249.362900 477.627686,227.519897 
	C477.828003,225.535538 477.998108,223.535049 477.979401,221.543961 
	C477.902588,213.385468 474.952209,210.481567 466.779297,210.408600 
	C464.640778,210.389511 462.501892,210.405731 459.847595,210.405731 
	C460.447906,203.142120 461.004944,196.402176 461.587524,189.353287 
	C463.365112,189.227814 464.796967,189.039078 466.228851,189.038483 
	C503.040497,189.023087 539.852966,188.876205 576.663452,189.080612 
	C601.691101,189.219589 625.996521,193.190033 648.498474,204.923187 
	C670.550110,216.421509 685.502319,233.636841 689.590332,258.683380 
	C692.761780,278.114288 690.032166,297.119995 682.930176,315.874939 
M515.896606,343.321320 
	C515.545288,346.732422 515.193909,350.143555 514.718872,354.755615 
	C535.164185,354.050812 555.002380,354.394073 574.598694,352.382080 
	C591.772888,350.618774 607.033630,342.948730 619.330750,330.274017 
	C631.676331,317.549347 637.028381,301.917969 639.542480,284.672424 
	C644.864685,248.164978 622.756348,216.808212 586.284424,212.266037 
	C569.375549,210.160233 552.071655,211.221985 534.946655,210.859680 
	C532.990479,210.818298 531.032654,210.854095 528.777588,210.854095 
	C528.154114,216.980194 527.567566,222.589981 527.014648,228.203079 
	C525.140137,247.233398 523.259033,266.263092 521.415649,285.296448 
	C519.572205,304.330719 517.770996,323.369110 515.896606,343.321320 
z"/>
<path fill="#FDFDFC" opacity="1.000000" stroke="none" 
	d="
M220.362610,218.361786 
	C243.301453,196.580856 270.581421,184.988586 301.395020,181.791367 
	C335.863617,178.214920 369.155518,182.859467 400.091553,199.212128 
	C423.064178,211.355377 439.741211,229.364624 444.654785,255.542389 
	C450.741455,287.970154 442.318146,316.958923 419.984924,341.382141 
	C399.319092,363.981964 372.801758,376.210419 343.178711,381.617218 
	C307.987579,388.040283 273.524414,385.041351 240.791077,369.839844 
	C217.790787,359.158417 199.267548,343.386932 192.142883,318.051208 
	C184.087997,289.407562 189.841553,262.344147 205.264465,237.339981 
	C209.418198,230.605835 215.121109,224.827240 220.362610,218.361786 
M380.121460,323.579498 
	C392.415955,300.094086 395.154205,275.077667 390.584045,249.393188 
	C386.322662,225.444275 371.694641,210.247681 347.908234,204.671921 
	C340.197784,202.864517 332.148285,201.911789 324.224792,201.710129 
	C294.015411,200.941315 270.047607,212.318024 255.045944,239.418671 
	C243.565796,260.157654 240.344315,282.783600 242.299164,306.059570 
	C243.466217,319.955231 248.730087,332.637543 259.034973,342.485748 
	C278.631073,361.213379 302.801147,365.784210 328.473541,362.353516 
	C352.118896,359.193665 368.350220,344.562012 380.121460,323.579498 
z"/>
<path fill="#FDFDFC" opacity="1.000000" stroke="none" 
	d="
M1659.333618,329.585327 
	C1645.399780,288.649353 1650.550415,251.060440 1678.358521,217.890350 
	C1694.801025,198.277496 1717.042603,187.938309 1741.857056,182.998840 
	C1775.623047,176.277481 1808.001221,181.037430 1839.189209,195.151718 
	C1839.923462,195.484024 1840.667847,195.793915 1841.588135,196.192444 
	C1842.371094,195.169342 1843.369995,194.366974 1843.704468,193.346741 
	C1846.251343,185.578842 1851.923218,184.082642 1859.263794,184.859985 
	C1864.002441,185.361801 1868.837646,184.954254 1874.255005,184.954254 
	C1871.766846,209.748398 1869.334229,233.990021 1866.880615,258.440002 
	C1858.052490,258.440002 1849.630615,258.440002 1841.214111,258.440002 
	C1840.291870,253.149918 1839.841553,247.987122 1838.453857,243.089920 
	C1834.223633,228.159851 1824.480225,217.821259 1810.197998,212.235733 
	C1792.488037,205.309647 1774.152954,204.318649 1755.876221,209.640335 
	C1731.735474,216.669449 1717.387939,233.719269 1710.255249,257.113434 
	C1704.567871,275.767334 1704.113770,294.900391 1708.286377,313.890839 
	C1712.446777,332.825897 1723.803833,345.985809 1742.406250,352.281067 
	C1756.939819,357.199493 1771.891357,359.386139 1787.106934,356.571716 
	C1809.051514,352.512573 1823.665771,339.273956 1831.987061,318.889801 
	C1833.231445,315.841492 1834.514404,314.485046 1838.000488,314.629639 
	C1845.463623,314.939209 1852.948486,314.724457 1861.204224,314.724457 
	C1860.515625,317.213928 1860.111938,319.235809 1859.405029,321.145416 
	C1847.112671,354.351837 1823.047729,374.274780 1788.919678,381.652222 
	C1759.239014,388.068329 1729.967163,385.952576 1702.116333,372.900665 
	C1682.745972,363.822906 1668.173706,349.740082 1659.333618,329.585327 
z"/>
<path fill="#FDFDFC" opacity="1.000000" stroke="none" 
	d="
M2170.610840,253.678253 
	C2170.524170,257.102966 2169.376221,258.392883 2166.053223,258.274597 
	C2158.444824,258.003784 2150.820068,258.188965 2142.523438,258.188965 
	C2145.162842,234.989182 2147.731689,212.411453 2150.345947,189.434784 
	C2224.417725,189.434784 2298.441162,189.434784 2373.292480,189.434784 
	C2370.882324,212.183548 2368.475586,234.901581 2366.040039,257.889648 
	C2357.014160,257.889648 2348.253418,257.889648 2339.202881,257.889648 
	C2338.846436,253.674454 2338.602051,249.429535 2338.110840,245.213394 
	C2335.995361,227.053619 2324.222168,214.624542 2306.063477,212.201538 
	C2297.713623,211.087418 2289.199463,211.205780 2280.275879,210.740021 
	C2279.150146,222.154755 2278.064697,232.854141 2277.045166,243.559799 
	C2274.789551,267.243622 2272.550537,290.929047 2270.338623,314.616974 
	C2269.488037,323.728607 2268.584473,332.839020 2267.969971,341.967865 
	C2267.404785,350.360870 2270.906494,353.958832 2279.180664,354.066559 
	C2280.645020,354.085632 2282.108398,354.198273 2284.062256,354.290955 
	C2283.055664,361.913452 2282.090576,369.222168 2281.123535,376.546204 
	C2252.578125,376.546204 2224.643311,376.546204 2196.151367,376.546204 
	C2196.687988,369.054779 2197.204834,361.839966 2197.762451,354.056427 
	C2201.383789,354.056427 2204.658203,354.099060 2207.930664,354.047119 
	C2213.853516,353.953156 2217.172363,351.773987 2218.117920,345.928558 
	C2219.469482,337.573212 2220.133057,329.099548 2220.912842,320.659973 
	C2223.575439,291.832062 2226.174561,262.998169 2228.766602,234.163773 
	C2229.436523,226.710373 2229.992920,219.246750 2230.601562,211.787827 
	C2200.556152,207.459854 2175.561279,218.385712 2170.610840,253.678253 
z"/>
<path fill="#5E636E" opacity="1.000000" stroke="none" 
	d="
M1043.000000,353.997864 
	C1028.861572,353.997864 1015.223206,353.997864 1001.219238,353.997864 
	C1003.239929,332.876404 1005.215637,312.225342 1007.252258,290.937927 
	C1008.969543,290.814240 1010.710388,290.582520 1012.451660,290.579865 
	C1029.951538,290.552979 1047.451538,290.521423 1064.951294,290.579712 
	C1075.319702,290.614258 1085.092773,293.078094 1093.808716,298.798859 
	C1109.973755,309.408997 1110.417480,331.714935 1094.741943,343.078796 
	C1084.099487,350.793915 1071.789917,353.296143 1058.997681,353.951508 
	C1053.844482,354.215515 1048.666504,353.996887 1043.000000,353.997864 
z"/>
<path fill="#5F646E" opacity="1.000000" stroke="none" 
	d="
M1013.261780,231.358612 
	C1013.889771,225.444443 1014.614014,219.992844 1014.952271,214.517395 
	C1015.127136,211.686081 1015.848267,210.301346 1019.007568,210.352554 
	C1037.498657,210.652359 1055.997070,210.630188 1074.481689,211.132797 
	C1078.870850,211.252136 1083.347046,212.580368 1087.557129,214.015442 
	C1098.071411,217.599396 1104.567871,224.552246 1105.332397,236.194656 
	C1106.119995,248.189438 1101.458130,257.182800 1090.470947,261.924957 
	C1083.995972,264.719543 1076.908203,267.379944 1070.001831,267.645508 
	C1050.225220,268.405975 1030.400635,267.913208 1009.818787,267.913208 
	C1010.951477,255.812271 1012.074768,243.811768 1013.261780,231.358612 
z"/>
<path fill="#5F646E" opacity="1.000000" stroke="none" 
	d="
M1296.833740,210.983643 
	C1305.660645,212.961105 1314.552734,213.706757 1322.249756,217.135071 
	C1341.021362,225.496078 1342.603271,248.914032 1325.144897,259.811554 
	C1318.738525,263.810364 1310.772583,266.952667 1303.347534,267.357269 
	C1284.144165,268.403717 1264.845581,267.708099 1244.970947,267.708099 
	C1246.707642,249.296326 1248.492432,230.373856 1250.322510,210.972183 
	C1265.836060,210.972183 1281.095581,210.972183 1296.833740,210.983643 
z"/>
<path fill="#5E636D" opacity="1.000000" stroke="none" 
	d="
M515.923950,342.863525 
	C517.770996,323.369110 519.572205,304.330719 521.415649,285.296448 
	C523.259033,266.263092 525.140137,247.233398 527.014648,228.203079 
	C527.567566,222.589981 528.154114,216.980194 528.777588,210.854095 
	C531.032654,210.854095 532.990479,210.818298 534.946655,210.859680 
	C552.071655,211.221985 569.375549,210.160233 586.284424,212.266037 
	C622.756348,216.808212 644.864685,248.164978 639.542480,284.672424 
	C637.028381,301.917969 631.676331,317.549347 619.330750,330.274017 
	C607.033630,342.948730 591.772888,350.618774 574.598694,352.382080 
	C555.002380,354.394073 535.164185,354.050812 514.718872,354.755615 
	C515.193909,350.143555 515.545288,346.732422 515.923950,342.863525 
z"/>
<path fill="#5E636D" opacity="1.000000" stroke="none" 
	d="
M379.985535,323.922119 
	C368.350220,344.562012 352.118896,359.193665 328.473541,362.353516 
	C302.801147,365.784210 278.631073,361.213379 259.034973,342.485748 
	C248.730087,332.637543 243.466217,319.955231 242.299164,306.059570 
	C240.344315,282.783600 243.565796,260.157654 255.045944,239.418671 
	C270.047607,212.318024 294.015411,200.941315 324.224792,201.710129 
	C332.148285,201.911789 340.197784,202.864517 347.908234,204.671921 
	C371.694641,210.247681 386.322662,225.444275 390.584045,249.393188 
	C395.154205,275.077667 392.415955,300.094086 379.985535,323.922119 
z"/>
</svg>