<svg version="1.1" id="Layer_1" xmlns="http://www.w3.org/2000/svg" xmlns:xlink="http://www.w3.org/1999/xlink" x="0px" y="0px"
	 width="100%" viewBox="0 0 720 336" enable-background="new 0 0 720 336" xml:space="preserve">
<path fill="#000000" opacity="1.000000" stroke="none" 
	d="
M112.945297,185.000000 
	C112.934326,167.000443 112.909019,149.500870 112.921730,132.001328 
	C112.925308,127.074234 113.633438,122.315681 117.304871,118.599968 
	C120.154541,115.715919 123.695709,114.645470 127.733582,114.652596 
	C155.732803,114.702034 183.732224,114.649971 211.731445,114.704750 
	C220.813492,114.722511 226.279785,120.283005 226.291489,129.426178 
	C226.327789,157.758774 226.336441,186.091476 226.290253,214.424042 
	C226.274948,223.819473 220.765747,229.283722 211.339203,229.297806 
	C184.006607,229.338638 156.673904,229.323593 129.341248,229.309402 
	C118.793266,229.303940 113.272301,224.112106 113.001884,213.497849 
	C112.764267,204.170807 112.947815,194.833038 112.945297,185.000000 
M196.874573,198.321930 
	C198.412399,200.205536 197.706421,202.120056 196.810547,203.929092 
	C196.037155,205.490814 195.021118,206.932373 193.656677,209.176590 
	C200.214127,204.264633 205.386749,199.351868 209.430725,193.371643 
	C215.424637,184.507858 213.321426,179.282928 202.913879,176.996429 
	C201.462128,176.677475 199.973907,176.355270 198.498871,176.337280 
	C180.418640,176.116989 163.364594,180.863525 146.627060,187.131577 
	C144.939987,187.763367 143.658279,188.734772 143.450272,190.595032 
	C142.467758,199.381973 139.690887,207.633713 135.653732,215.840836 
	C139.128326,215.398865 141.692917,213.824600 144.402451,212.676605 
	C157.256409,207.230591 169.995071,201.434570 183.648483,198.217422 
	C187.737061,197.254013 191.983505,195.412170 196.874573,198.321930 
M183.157959,169.534134 
	C193.324463,167.701935 203.137955,168.645020 212.608749,173.836090 
	C210.608994,164.686493 203.510300,156.970963 193.924088,153.431244 
	C178.145782,147.605118 162.323364,148.958267 146.530029,153.449768 
	C145.088654,153.859665 143.347885,154.386230 143.435349,156.206940 
	C143.772247,163.220123 144.303680,170.223969 144.792099,177.681915 
	C157.589279,174.286224 169.628647,170.524857 183.157959,169.534134 
M194.661865,144.739807 
	C176.177338,129.515656 154.343658,126.924995 130.791214,127.257088 
	C134.123459,132.052017 137.181381,135.861099 138.502335,140.579529 
	C139.453369,143.976608 141.127243,144.663559 144.720581,144.020874 
	C163.052094,140.742172 181.297806,139.582352 198.714432,148.631470 
	C197.524567,147.492615 196.334686,146.353775 194.661865,144.739807 
z"/>
<path fill="#000000" opacity="1.000000" stroke="none" 
	d="
M311.308167,182.564911 
	C300.650146,187.139465 289.748749,186.245544 278.953064,186.298050 
	C268.019836,186.351212 269.428650,185.066071 269.359802,195.848511 
	C269.299194,205.346512 269.232361,214.847046 269.395447,224.342560 
	C269.456451,227.895493 268.441895,229.578323 264.607239,229.360382 
	C260.288452,229.114929 255.938797,229.152313 251.614670,229.342148 
	C247.907516,229.504898 246.674545,227.967438 246.710663,224.334457 
	C246.849823,210.338211 246.771057,196.339798 246.770691,182.342194 
	C246.770142,161.679062 246.872498,141.014954 246.680176,120.353592 
	C246.639633,115.998283 247.950562,114.528427 252.364975,114.597282 
	C267.025635,114.825974 281.692902,114.586960 296.355865,114.722099 
	C313.653625,114.881516 326.857941,125.472412 330.609711,141.939102 
	C334.489441,158.967361 327.122742,174.692413 311.308167,182.564911 
M304.024780,137.418854 
	C301.928040,135.677734 299.515167,134.717239 296.843018,134.168900 
	C288.754913,132.509232 280.593964,133.632141 272.470825,133.400208 
	C269.700592,133.321136 269.347717,135.281418 269.352478,137.479523 
	C269.370483,145.800110 269.451019,154.122421 269.305817,162.440552 
	C269.249786,165.648438 270.399902,166.955078 273.645325,166.881561 
	C279.632965,166.745956 285.627777,166.762146 291.616455,166.878113 
	C298.867889,167.018524 304.870270,164.826797 307.865295,157.757477 
	C310.908020,150.575531 310.048279,143.794357 304.024780,137.418854 
z"/>
<path fill="#000000" opacity="1.000000" stroke="none" 
	d="
M601.638916,222.743530 
	C578.108765,237.981003 547.142395,230.484848 536.286316,206.899857 
	C527.065613,186.867737 532.844116,159.136307 556.975220,148.716904 
	C579.314392,139.071213 606.283081,148.609818 615.265869,170.048859 
	C622.681885,187.748734 619.053833,209.698257 601.638916,222.743530 
M588.070740,208.657104 
	C592.007812,205.850647 594.614380,202.093750 596.116821,197.518158 
	C598.863525,189.153412 598.170532,181.055603 593.899963,173.405136 
	C589.941467,166.313675 580.939148,162.155945 572.492676,163.479248 
	C563.194031,164.936050 556.998169,170.331207 554.558899,179.392105 
	C551.686157,190.062775 553.059509,200.040588 561.765625,207.736435 
	C568.460693,213.654541 578.471985,213.912720 588.070740,208.657104 
z"/>
<path fill="#000000" opacity="1.000000" stroke="none" 
	d="
M345.285095,155.232117 
	C364.472534,140.685135 389.716583,141.796066 405.801208,157.651550 
	C417.580475,169.263031 420.980042,188.545151 414.233337,205.478119 
	C408.306061,220.354462 393.377380,229.787674 376.531921,230.430695 
	C352.059601,231.364853 336.353363,216.695343 332.293976,198.692719 
	C328.541138,182.049789 332.323853,167.387497 345.285095,155.232117 
M389.857727,169.644531 
	C375.644684,157.299103 356.397095,163.601151 352.737366,181.922440 
	C352.096832,185.128860 352.168243,188.559021 352.416321,191.847733 
	C353.728058,209.236420 372.710876,218.289612 387.115204,208.480347 
	C398.377197,200.810989 399.934570,182.422821 389.857727,169.644531 
z"/>
<path fill="#000000" opacity="1.000000" stroke="none" 
	d="
M504.345154,190.944183 
	C504.346344,191.933670 504.346008,192.433075 504.345947,192.932465 
	C504.343872,208.065186 506.554260,210.349365 521.559143,210.062851 
	C525.743103,209.982956 527.427979,211.294220 527.418030,215.767151 
	C527.387695,229.328644 527.552551,229.117065 514.111938,229.367996 
	C495.522064,229.715057 483.117065,218.146835 483.536255,198.760284 
	C484.047119,175.133301 483.770477,151.485794 483.560242,127.849625 
	C483.517700,123.068832 484.936340,121.176834 489.776367,121.639076 
	C493.240814,121.969955 496.764496,121.795944 500.256683,121.686073 
	C503.263428,121.591469 504.415100,122.925346 504.352325,125.875313 
	C504.242554,131.033188 504.587341,136.211273 504.263641,141.350800 
	C503.992523,145.656082 505.754181,146.923370 509.756744,146.650543 
	C514.067505,146.356750 518.407959,146.528748 522.729065,146.345840 
	C525.732361,146.218674 527.414795,147.031693 527.351074,150.483688 
	C527.045593,167.044159 529.544373,163.934769 514.286682,164.249435 
	C502.820129,164.485931 504.474701,162.833572 504.347015,174.473541 
	C504.288574,179.799774 504.341400,185.127213 504.345154,190.944183 
z"/>
<path fill="#000000" opacity="1.000000" stroke="none" 
	d="
M444.702271,228.982269 
	C439.586823,229.188400 434.924927,229.164459 430.269073,229.320435 
	C427.213959,229.422775 425.649933,228.416763 425.664917,225.071716 
	C425.744690,207.256424 425.411194,189.434036 425.807037,171.627136 
	C426.102600,158.331192 437.253143,147.446762 450.600494,146.758713 
	C457.078400,146.424774 463.585327,146.690979 470.077118,146.574219 
	C472.967316,146.522232 474.147217,147.607834 474.338287,150.632248 
	C475.264587,165.293106 475.340851,165.288300 460.775238,165.333969 
	C450.013947,165.367706 446.407227,168.930420 446.375000,179.744492 
	C446.331848,194.230118 446.388214,208.716049 446.336792,223.201614 
	C446.329987,225.118729 446.959503,227.252960 444.702271,228.982269 
z"/>
</svg>