<svg version="1.1" id="Layer_1" xmlns="http://www.w3.org/2000/svg" xmlns:xlink="http://www.w3.org/1999/xlink" x="0px" y="0px"
	 width="100%" viewBox="0 0 1511 963" enable-background="new 0 0 1511 963" xml:space="preserve">
<path fill="#FEFEFE" opacity="1.000000" stroke="none" 
	d="
M1065.000000,964.000000 
	C710.000000,964.000000 355.500000,964.000000 1.000000,964.000000 
	C1.000000,643.000000 1.000000,322.000000 1.000000,1.000000 
	C504.666656,1.000000 1008.333313,1.000000 1512.000000,1.000000 
	C1512.000000,322.000000 1512.000000,643.000000 1512.000000,964.000000 
	C1363.166626,964.000000 1214.333374,964.000000 1065.000000,964.000000 
M1087.203857,507.926697 
	C1090.461304,507.292877 1093.731201,506.716309 1096.974487,506.016632 
	C1154.780151,493.546387 1192.751221,434.884827 1180.443481,377.086182 
	C1168.162720,319.414093 1112.944580,281.916443 1054.261841,290.723602 
	C995.745300,299.505829 953.336670,353.618805 960.909607,411.724884 
	C966.243713,452.652710 988.359070,481.615051 1025.450439,499.072418 
	C1044.710815,508.137482 1065.186523,510.746307 1087.203857,507.926697 
M661.868225,581.500122 
	C661.868225,574.068115 661.868225,566.636047 661.868225,559.161377 
	C649.293762,559.161377 637.360046,559.161377 624.995239,559.161377 
	C624.995239,565.964233 624.995239,572.581970 624.995239,579.199707 
	C624.995239,585.783875 624.995239,592.368103 624.995239,599.139954 
	C623.081665,598.867920 621.769287,598.670837 620.454041,598.495972 
	C598.246277,595.543274 580.057251,607.471436 575.417053,629.129395 
	C573.741699,636.949219 573.512268,645.429626 574.460083,653.389893 
	C576.643188,671.724915 587.841675,683.977844 605.862671,687.618896 
	C623.227173,691.127197 640.593384,690.055481 657.559021,684.366882 
	C660.907043,683.244324 661.979309,681.545349 661.961243,677.960205 
	C661.800964,646.140869 661.868164,614.320312 661.868225,581.500122 
M567.294617,746.533081 
	C567.294617,742.756714 567.294617,738.980347 567.294617,735.206055 
	C555.002991,735.206055 543.255249,735.206055 531.440979,735.206055 
	C531.308167,735.923767 531.146301,736.390686 531.146118,736.857605 
	C531.132324,775.475464 531.184265,814.093567 531.040466,852.710938 
	C531.027222,856.269226 532.901062,857.328735 535.541321,858.182983 
	C553.361633,863.948547 571.411438,865.176147 589.492920,859.870117 
	C600.948669,856.508423 609.296753,849.019531 613.678528,837.810730 
	C618.598450,825.225220 619.513550,812.174072 615.615723,799.179565 
	C611.209961,784.491882 601.453003,775.173279 585.902954,773.492493 
	C579.955994,772.849670 573.798401,774.154602 567.294556,774.602356 
	C567.294556,765.744995 567.294556,756.633484 567.294617,746.533081 
M480.245575,775.028625 
	C480.245575,796.103699 480.245575,817.178711 480.245575,838.008362 
	C470.739685,840.490784 468.084686,838.586609 468.076874,830.137390 
	C468.065887,818.311707 468.073914,806.485962 468.073853,794.660278 
	C468.073822,788.058044 468.073822,781.455811 468.073822,774.757874 
	C455.775055,774.757874 444.021210,774.757874 432.158173,774.757874 
	C432.158173,795.193054 431.750458,815.346924 432.300842,835.474487 
	C432.670410,848.988892 440.448578,858.031311 453.700378,860.792175 
	C473.241455,864.863281 492.703491,863.752197 511.893585,858.046387 
	C515.144775,857.079712 516.150269,855.508057 516.125305,852.063354 
	C515.947632,827.580505 516.032410,803.095764 516.016663,778.611633 
	C516.015808,777.342285 515.859985,776.073120 515.760742,774.568481 
	C503.976166,774.568481 492.510803,774.568481 480.245575,775.028625 
M189.936539,852.303528 
	C188.397552,855.050476 189.021530,856.674011 192.058197,858.044189 
	C202.724396,862.856934 213.992996,863.429749 225.337463,862.837708 
	C242.772690,861.927795 257.367584,850.248352 260.898285,834.923157 
	C265.084137,816.754272 258.931519,803.735962 241.590500,793.837585 
	C237.557983,791.535828 233.212631,789.469543 229.890198,786.356750 
	C227.975937,784.563293 226.624649,780.573303 227.261703,778.165039 
	C227.757278,776.291687 231.780655,774.099609 234.126114,774.218567 
	C239.639542,774.498108 245.087143,776.076355 250.957779,777.205322 
	C253.163101,770.635620 255.628525,763.291016 258.152954,755.770691 
	C247.357513,749.696167 235.930481,748.091003 224.168793,749.180176 
	C210.286743,750.465637 199.360199,757.054626 193.428558,769.930725 
	C187.777542,782.197632 187.659973,794.988708 196.395432,805.758179 
	C201.138641,811.605835 208.281540,815.625610 214.676010,819.979309 
	C220.136444,823.696960 222.902679,827.328552 221.626236,830.864868 
	C220.370697,834.343262 215.484833,836.126648 209.310806,834.724854 
	C205.080490,833.764465 201.027267,832.023865 196.686890,830.562012 
	C194.461700,837.630737 192.274567,844.578613 189.936539,852.303528 
M643.732727,810.146484 
	C629.828064,817.093201 625.250122,824.997742 626.969116,839.091858 
	C628.341614,850.344604 636.337769,858.701721 650.332703,860.834961 
	C661.088684,862.474548 672.195374,862.697754 683.090332,862.235657 
	C690.607849,861.916687 698.071960,859.517639 705.457703,857.644897 
	C706.840027,857.294373 708.697205,855.045837 708.713684,853.654053 
	C708.906616,837.324585 709.322021,820.968323 708.614014,804.665405 
	C707.806824,786.077209 698.791992,776.289490 680.318542,773.740784 
	C672.667297,772.685242 664.652832,773.043030 656.944214,773.951355 
	C648.521667,774.943909 640.261780,777.317444 631.549194,779.170288 
	C634.429260,786.893005 636.844849,793.370056 638.721436,798.401978 
	C648.927917,797.195862 658.375000,795.663635 667.878845,795.112610 
	C673.571655,794.782532 675.361694,797.673157 674.669434,802.466309 
	C664.377502,805.001831 654.416443,807.455872 643.732727,810.146484 
M743.760620,651.050049 
	C749.117065,650.326172 754.473511,649.602295 759.849121,648.875793 
	C759.849121,644.497192 760.168518,640.648254 759.793274,636.868408 
	C758.250732,621.330627 752.910706,607.754150 737.415405,601.296448 
	C723.928955,595.676025 709.896240,595.976746 696.806580,602.511658 
	C691.388672,605.216492 686.048523,609.676941 682.733276,614.698975 
	C672.018799,630.929626 671.584167,648.637268 679.484314,666.020569 
	C686.863892,682.258240 700.992249,688.850464 718.242737,689.318237 
	C731.599060,689.680359 744.735107,688.513000 757.230408,682.403198 
	C754.599731,675.039734 752.055969,667.919373 749.445374,660.612061 
	C747.925110,661.094604 746.859070,661.647522 745.751099,661.750732 
	C736.732117,662.591492 727.714722,663.747070 718.676941,663.958496 
	C714.289795,664.061096 711.178650,660.886780 709.741760,655.848572 
	C720.941589,654.264221 731.908813,652.712769 743.760620,651.050049 
M271.878113,823.759888 
	C273.462952,839.400635 280.397217,851.592346 294.906342,858.600952 
	C305.809967,863.867920 317.487885,863.605103 329.151489,862.439758 
	C337.197266,861.635925 345.108734,860.125183 352.610443,855.977295 
	C349.985260,848.697632 347.481628,841.755066 344.944946,834.720825 
	C334.850708,837.881714 325.174683,840.027466 315.076843,838.176819 
	C310.509796,837.339783 307.331818,834.949219 306.094360,830.002441 
	C322.624847,827.714172 338.865509,825.466064 354.949097,823.239685 
	C354.949097,818.029480 355.443726,813.332031 354.856995,808.773804 
	C353.048584,794.724670 347.580109,782.658875 333.708405,776.707092 
	C320.187592,770.905945 306.385101,771.364868 293.132507,777.674988 
	C277.717865,785.014587 269.524780,802.865417 271.878113,823.759888 
M455.995087,673.494507 
	C455.995087,678.243774 455.995087,682.993042 455.995087,687.568726 
	C469.134094,687.568726 481.547333,687.568726 494.399475,687.568726 
	C494.399475,657.826355 494.399475,628.418152 494.399475,598.625854 
	C500.118042,598.625854 505.393799,598.625854 510.812378,598.625854 
	C510.812378,589.838257 510.812378,581.444092 510.812378,573.048584 
	C486.793671,573.048584 463.073517,573.048584 439.393707,573.048584 
	C439.393707,581.723999 439.393707,590.104248 439.393707,598.818848 
	C445.023285,598.818848 450.291962,598.818848 455.995087,598.818848 
	C455.995087,623.606384 455.995087,648.051208 455.995087,673.494507 
M376.756836,504.854126 
	C392.538666,512.194885 408.413239,510.349731 424.366669,505.452484 
	C427.916077,504.362946 429.083008,502.462860 429.066711,498.641876 
	C428.904572,460.519714 428.969177,422.396545 428.969757,384.273682 
	C428.969788,382.666748 428.969788,381.059784 428.969788,379.384949 
	C422.030762,379.384949 415.635803,379.384949 408.840424,379.384949 
	C408.840424,393.074371 408.840424,406.482880 408.840424,420.097565 
	C407.438538,419.859131 406.462616,419.718079 405.497040,419.525299 
	C382.764862,414.987305 364.837097,426.094269 358.856842,448.515045 
	C356.103882,458.836273 356.100189,469.284302 358.482178,479.632111 
	C360.925293,490.245392 366.344391,498.956360 376.756836,504.854126 
M401.535553,863.103516 
	C406.444916,862.419922 411.381805,861.879578 416.242950,860.945129 
	C417.362610,860.729980 419.034546,859.193909 419.071136,858.214111 
	C419.320923,851.522400 419.201996,844.816833 419.201996,837.946167 
	C411.356140,840.002930 408.255554,839.215820 408.130432,834.774780 
	C407.790222,822.701660 408.013611,810.612671 408.013611,798.008057 
	C411.930878,798.008057 415.491699,798.008057 418.864624,798.008057 
	C418.864624,789.923157 418.864624,782.369934 418.864624,774.421875 
	C415.082336,774.421875 411.651428,774.421875 407.809204,774.421875 
	C407.809204,765.766907 407.809204,757.512512 407.809204,748.695435 
	C396.515778,751.480591 385.792175,754.290710 374.976807,756.686768 
	C371.923523,757.363159 371.360535,758.784607 371.446838,761.442261 
	C371.584625,765.686157 371.483673,769.937927 371.483673,774.258789 
	C368.193878,774.430786 365.614685,774.565613 363.068512,774.698792 
	C363.068512,782.769653 363.068512,790.329468 363.068512,798.324768 
	C365.969971,798.324768 368.562347,798.324768 370.997833,798.324768 
	C371.251434,799.081482 371.448700,799.396545 371.449432,799.712036 
	C371.472290,809.863586 371.376862,820.016602 371.529785,830.165894 
	C371.594666,834.469055 371.637878,838.891724 372.620911,843.039612 
	C375.622894,855.706726 385.412476,862.519409 401.535553,863.103516 
M723.909119,772.500000 
	C723.909119,802.238586 723.909119,831.977112 723.909119,861.611023 
	C736.344177,861.611023 748.075500,861.611023 759.676758,861.611023 
	C759.676758,819.221252 759.676758,777.166016 759.676758,735.256226 
	C747.597107,735.256226 735.851318,735.256226 723.909119,735.256226 
	C723.909119,747.547546 723.909119,759.523804 723.909119,772.500000 
M878.966980,477.522156 
	C873.452454,484.582367 870.627991,492.492828 870.839661,501.549988 
	C871.178711,516.055969 880.296204,529.168579 894.129578,534.637024 
	C907.971802,540.108948 924.198242,536.620789 934.657288,525.924622 
	C944.784180,515.568115 947.689697,499.965240 942.184143,486.638824 
	C932.465759,463.115021 899.428528,454.713165 878.966980,477.522156 
M1280.889893,138.276077 
	C1276.107422,138.508072 1271.200073,138.129822 1266.564209,139.078232 
	C1247.043213,143.071869 1234.833496,162.590652 1238.996094,182.575455 
	C1242.902100,201.327927 1262.849121,214.400497 1281.648804,210.528503 
	C1300.292480,206.688675 1312.137085,192.526337 1312.135254,174.076340 
	C1312.133545,156.648132 1299.886719,142.330826 1280.889893,138.276077 
M1204.473022,123.156479 
	C1192.970093,104.938293 1170.992188,99.594505 1152.742065,110.578568 
	C1136.117432,120.584328 1130.462891,142.404724 1140.088989,159.406265 
	C1149.914551,176.759979 1172.245605,183.248611 1189.905273,173.881226 
	C1208.189331,164.182693 1214.593262,142.746613 1204.473022,123.156479 
M1208.120239,641.575439 
	C1202.499390,621.589722 1182.251465,610.363892 1161.927979,615.965454 
	C1143.383545,621.076782 1131.614624,641.087585 1136.292114,659.554199 
	C1141.346680,679.508545 1161.561890,691.621948 1181.268433,686.505127 
	C1201.707275,681.198120 1213.224243,662.407227 1208.120239,641.575439 
M907.457214,366.979889 
	C894.597595,358.223114 881.048462,357.103943 867.390808,364.466095 
	C854.179138,371.587860 847.710693,383.357025 848.300415,398.208893 
	C848.998779,415.796875 861.751099,429.077179 879.841248,432.370239 
	C895.657227,435.249359 912.189392,426.407654 919.165527,411.339020 
	C926.232666,396.073578 921.790405,378.575165 907.457214,366.979889 
M1042.709229,181.884979 
	C1049.566162,186.715683 1057.114380,189.198776 1065.576538,189.107132 
	C1083.134155,188.916977 1097.320312,177.264633 1101.361084,159.505997 
	C1104.955688,143.708160 1096.361572,126.853615 1081.011719,119.597443 
	C1065.736938,112.376762 1046.552856,116.630501 1036.271729,129.517715 
	C1023.191040,145.914246 1025.531250,166.659210 1042.709229,181.884979 
M1382.006714,417.348114 
	C1367.373169,425.776886 1360.686768,439.043732 1362.892700,455.273407 
	C1365.583618,475.071381 1385.945068,489.610077 1405.622314,485.783813 
	C1426.966675,481.633362 1440.518433,461.510132 1435.531738,441.370667 
	C1429.763672,418.075195 1405.165527,406.738098 1382.006714,417.348114 
M1002.373779,606.780273 
	C1010.704834,593.091675 1010.715820,579.287476 1001.903137,566.010742 
	C993.623169,553.536377 977.946899,547.628418 963.406982,551.073914 
	C948.950745,554.499451 939.313477,563.400269 935.504456,577.907471 
	C931.770081,592.130066 936.031250,604.348206 946.703979,613.947266 
	C962.309082,627.982422 988.353027,626.566895 1002.373779,606.780273 
M1384.989624,376.736542 
	C1391.490723,377.529419 1398.055542,379.326355 1404.480713,378.919556 
	C1421.141479,377.864655 1438.461060,361.877014 1436.151978,338.429443 
	C1434.426270,320.906769 1417.494507,305.968658 1398.873779,306.318573 
	C1381.661621,306.641968 1366.360596,319.130829 1363.063599,335.547241 
	C1359.622681,352.681305 1367.996338,368.762695 1384.989624,376.736542 
M1362.862671,582.835083 
	C1382.868408,577.352661 1393.752075,562.929932 1392.123901,543.460083 
	C1390.880127,528.585876 1382.723633,518.318848 1369.063965,513.034241 
	C1353.997192,507.205292 1340.111938,510.178680 1328.777832,521.770203 
	C1318.307251,532.478516 1315.822021,545.358215 1320.767212,559.529663 
	C1325.326660,572.595520 1339.384766,585.797913 1362.862671,582.835083 
M1243.067627,599.723511 
	C1241.373169,605.565796 1238.465332,611.352844 1238.196899,617.259888 
	C1237.108643,641.195618 1260.784180,659.605103 1284.099121,653.540588 
	C1303.517090,648.489685 1315.772583,629.668457 1311.580200,611.164062 
	C1307.979370,595.270813 1298.023071,585.182617 1282.161621,582.336060 
	C1266.015503,579.438477 1252.728882,585.127747 1243.067627,599.723511 
M891.724060,324.969238 
	C898.236084,327.858765 904.948914,328.964203 912.123047,328.215271 
	C932.473999,326.090637 947.795654,306.582397 944.697876,287.191956 
	C941.522888,267.318573 923.118835,251.402817 899.490662,256.509949 
	C883.925232,259.874359 873.051270,272.137421 871.044861,287.049316 
	C868.960754,302.538513 876.360596,316.452881 891.724060,324.969238 
M1338.099976,213.448196 
	C1323.601074,221.499420 1316.473999,235.782242 1318.950562,251.823929 
	C1322.067505,272.012848 1343.045410,286.118744 1363.080688,281.497620 
	C1384.545532,276.546783 1397.128540,255.931717 1391.067871,235.645508 
	C1384.454346,213.508926 1361.191162,203.475632 1338.099976,213.448196 
M1037.683594,664.789978 
	C1047.422363,674.826111 1059.488281,678.243835 1072.866089,675.749084 
	C1093.194946,671.958069 1105.872681,651.426025 1101.054321,631.173828 
	C1096.408203,611.646240 1075.314331,599.352844 1055.670044,604.724304 
	C1028.708130,612.096680 1019.398804,642.125427 1037.683594,664.789978 
M937.832031,221.502426 
	C947.466431,239.437469 966.194092,246.824387 984.751404,240.009323 
	C1001.203918,233.967209 1011.008911,216.694366 1007.929504,199.178268 
	C1004.993164,182.476593 988.551514,168.905869 971.542786,169.295731 
	C943.092102,169.947845 926.939575,197.515350 937.832031,221.502426 
M179.248825,433.509460 
	C179.251099,449.004425 179.143295,464.500427 179.286926,479.994080 
	C179.427597,495.167694 185.719696,504.660217 198.611694,507.892670 
	C215.484039,512.123169 231.893265,509.903412 247.446411,502.969055 
	C247.446411,474.957672 247.446411,447.395752 247.446411,419.830505 
	C240.680450,419.830505 234.302231,419.830505 227.597534,419.830505 
	C227.597534,422.208557 227.597565,424.189514 227.597549,426.170441 
	C227.597305,447.163635 227.565140,468.156952 227.637863,489.149872 
	C227.646790,491.725128 227.264313,493.417633 224.461899,494.485779 
	C209.632111,500.138031 199.441818,493.460754 199.400787,477.807159 
	C199.355820,460.646179 199.388916,443.484985 199.388031,426.323883 
	C199.387909,424.202240 199.388000,422.080566 199.388000,419.784241 
	C192.455597,419.784241 186.060501,419.784241 179.247604,419.784241 
	C179.247604,424.249146 179.247604,428.382385 179.248825,433.509460 
M317.990082,440.057281 
	C318.258759,443.368988 318.745422,446.679718 318.759735,449.992523 
	C318.836823,467.815521 318.791748,485.639038 318.805756,503.462372 
	C318.806885,504.889862 318.936035,506.317261 319.003235,507.694031 
	C325.789490,507.694031 332.187439,507.694031 338.740875,507.694031 
	C338.740875,485.912933 339.014740,464.447632 338.629761,442.994141 
	C338.425507,431.610626 332.061798,423.712860 321.265045,420.547485 
	C303.556030,415.355560 286.155121,417.779144 269.259155,423.977112 
	C269.259155,452.235992 269.259155,479.983795 269.259155,507.742126 
	C275.928284,507.742126 282.327911,507.742126 289.006348,507.742126 
	C289.006348,484.339508 289.167175,461.211945 288.868652,438.090271 
	C288.809967,433.545776 290.497498,432.067657 294.440002,431.233063 
	C305.950470,428.796509 313.719330,431.366943 317.990082,440.057281 
M725.166443,509.635498 
	C740.132385,508.405029 750.412354,500.717041 755.422058,486.662354 
	C760.970886,471.094879 760.949829,455.271271 755.021606,439.808960 
	C749.398682,425.142944 737.911377,417.842377 722.056580,417.968353 
	C706.688721,418.090454 695.552551,425.834167 689.798218,440.182892 
	C685.520874,450.848602 685.081909,461.972351 686.260193,473.105957 
	C688.774353,496.861359 702.336609,509.680298 725.166443,509.635498 
M659.069946,506.617004 
	C661.101868,505.903320 663.344177,505.511475 665.094666,504.367249 
	C666.343872,503.550690 667.690063,501.729584 667.701050,500.346527 
	C667.843628,482.358826 668.009949,464.363953 667.635132,446.382050 
	C667.383789,434.323212 662.603882,424.365295 650.381287,420.384033 
	C634.794189,415.306885 619.652771,418.018677 604.618164,424.669922 
	C606.228271,428.681763 607.685852,432.313507 608.725342,434.903534 
	C616.804810,433.472656 624.206909,431.386688 631.695801,431.005829 
	C644.989136,430.329742 650.068726,436.412201 648.559021,449.949646 
	C646.183472,450.293427 643.673401,450.388885 641.319458,451.044495 
	C631.942932,453.655945 622.114502,455.367676 613.393982,459.431030 
	C602.110229,464.688690 598.170044,474.873108 599.977600,487.897369 
	C601.367065,497.909332 608.569763,505.227814 620.236206,507.921539 
	C632.974854,510.862915 645.679077,509.861755 659.069946,506.617004 
M496.119873,508.647552 
	C501.089600,507.354218 506.121826,506.249969 510.987061,504.640717 
	C512.275757,504.214447 513.921204,502.240326 513.930359,500.966309 
	C514.068359,481.804993 514.318359,462.631805 513.779785,443.482849 
	C513.437256,431.300049 506.080627,422.634857 494.535828,419.662750 
	C479.602478,415.818298 465.282318,418.320038 451.105286,424.637726 
	C452.671112,428.574493 454.115814,432.206604 455.199738,434.931763 
	C463.208038,433.499542 470.614746,431.379028 478.107819,431.009338 
	C491.521576,430.347504 496.363770,436.199097 494.855988,449.971680 
	C492.491425,450.313782 489.983124,450.420532 487.620941,451.063843 
	C478.534637,453.538422 469.055359,455.201874 460.546509,459.009155 
	C449.211853,464.080811 444.430695,474.997070 446.193787,487.132629 
	C447.741699,497.787231 454.896545,505.841003 466.974396,507.757355 
	C476.220490,509.224457 485.810944,508.521210 496.119873,508.647552 
M109.961845,487.499817 
	C109.961845,494.427277 109.961845,501.354736 109.961845,508.377716 
	C117.314995,508.377716 124.056290,508.377716 131.345139,508.377716 
	C131.345139,491.397034 131.345139,474.694244 131.345139,457.531769 
	C141.479889,457.531769 151.074005,457.531769 160.698776,457.531769 
	C160.698776,452.678467 160.698776,448.300385 160.698776,443.454407 
	C150.800217,443.454407 141.212753,443.454407 131.603607,443.454407 
	C131.603607,431.955566 131.603607,420.939606 131.603607,409.366882 
	C142.902756,409.366882 153.796783,409.366882 164.627823,409.366882 
	C164.627823,404.527863 164.627823,400.257080 164.627823,395.802551 
	C146.325684,395.802551 128.266724,395.802551 109.961845,395.802551 
	C109.961845,426.243622 109.961845,456.371796 109.961845,487.499817 
M560.962280,674.489502 
	C560.962280,649.462280 560.962280,624.435059 560.962280,599.503540 
	C548.296387,599.503540 536.391724,599.503540 524.491699,599.503540 
	C524.491699,629.124329 524.491699,658.438477 524.491699,687.636719 
	C536.793030,687.636719 548.704102,687.636719 560.962280,687.636719 
	C560.962280,683.405762 560.962280,679.445312 560.962280,674.489502 
M578.995117,493.830475 
	C567.415161,497.271149 559.597717,493.832886 555.652161,482.553650 
	C551.136719,469.645477 551.042908,456.385406 555.650452,443.450287 
	C559.116150,433.720612 566.566528,429.927551 576.611023,432.102783 
	C578.976440,432.615051 581.187744,433.838928 583.672668,434.815094 
	C584.645874,432.373016 585.447815,429.840057 586.638550,427.505463 
	C588.108398,424.623779 587.118164,423.121307 584.499084,421.679596 
	C570.387939,413.911957 551.533691,417.770203 541.782715,430.545746 
	C529.056274,447.219788 528.800598,479.574219 541.261658,496.484375 
	C551.910156,510.934845 575.157898,514.390869 587.925659,503.235565 
	C586.497803,499.479858 585.040222,495.646118 583.516602,491.638367 
	C582.085571,492.319000 580.899353,492.883209 578.995117,493.830475 
M531.333191,560.713440 
	C521.779541,568.224182 521.411316,579.013306 530.478271,585.760986 
	C537.548950,591.023071 548.234436,590.864319 555.106323,585.394897 
	C563.370178,578.817749 563.398804,567.905396 554.907043,561.572083 
	C547.651917,556.161133 539.844482,556.175293 531.333191,560.713440 
M560.568848,533.630432 
	C556.427673,533.840637 552.202393,534.665100 548.165771,534.112183 
	C542.585266,533.347839 539.770020,535.497925 538.496216,540.918213 
	C543.488770,541.165710 548.510803,542.085693 553.350830,541.500488 
	C560.993103,540.576294 568.646362,539.099548 576.031189,536.950256 
	C579.972961,535.803040 582.279785,532.072510 581.877869,527.492310 
	C581.476501,522.918335 578.597412,519.957092 574.473083,519.174133 
	C568.666443,518.071838 562.681274,517.914917 556.774292,517.334412 
	C552.137634,516.878723 549.986267,519.438293 548.688293,523.958862 
	C553.376526,523.958862 557.710266,523.522705 561.889709,524.136963 
	C564.086304,524.459778 566.012878,526.620422 568.061340,527.951233 
	C566.315796,529.635437 564.595947,531.347961 562.800964,532.977722 
	C562.481750,533.267517 561.850403,533.213379 560.568848,533.630432 
M638.897278,406.599884 
	C642.602844,407.082886 646.402893,408.336884 649.995178,407.896332 
	C658.808167,406.815704 661.373657,401.185059 657.112305,393.534180 
	C656.649841,392.703979 656.114014,391.914612 655.572876,391.042847 
	C649.943115,398.734924 645.666199,399.783142 637.203369,395.691284 
	C634.971985,394.612427 632.792908,393.384583 630.477783,392.527649 
	C624.045837,390.146820 617.280212,392.085968 613.372070,396.902283 
	C609.193726,402.051514 614.123047,405.055908 615.587769,409.178497 
	C622.280457,400.978546 625.367981,400.333435 635.042175,404.814423 
	C636.093140,405.301178 637.160278,405.753082 638.897278,406.599884 
z"/>
<path fill="#858897" opacity="1.000000" stroke="none" 
	d="
M1086.759155,507.964172 
	C1065.186523,510.746307 1044.710815,508.137482 1025.450439,499.072418 
	C988.359070,481.615051 966.243713,452.652710 960.909607,411.724884 
	C953.336670,353.618805 995.745300,299.505829 1054.261841,290.723602 
	C1112.944580,281.916443 1168.162720,319.414093 1180.443481,377.086182 
	C1192.751221,434.884827 1154.780151,493.546387 1096.974487,506.016632 
	C1093.731201,506.716309 1090.461304,507.292877 1086.759155,507.964172 
z"/>
<path fill="#020203" opacity="1.000000" stroke="none" 
	d="
M661.868225,582.000122 
	C661.868164,614.320312 661.800964,646.140869 661.961243,677.960205 
	C661.979309,681.545349 660.907043,683.244324 657.559021,684.366882 
	C640.593384,690.055481 623.227173,691.127197 605.862671,687.618896 
	C587.841675,683.977844 576.643188,671.724915 574.460083,653.389893 
	C573.512268,645.429626 573.741699,636.949219 575.417053,629.129395 
	C580.057251,607.471436 598.246277,595.543274 620.454041,598.495972 
	C621.769287,598.670837 623.081665,598.867920 624.995239,599.139954 
	C624.995239,592.368103 624.995239,585.783875 624.995239,579.199707 
	C624.995239,572.581970 624.995239,565.964233 624.995239,559.161377 
	C637.360046,559.161377 649.293762,559.161377 661.868225,559.161377 
	C661.868225,566.636047 661.868225,574.068115 661.868225,582.000122 
M610.049866,648.184204 
	C610.952637,652.207458 611.408447,656.401306 612.863708,660.213623 
	C614.999146,665.807617 618.863525,667.311951 624.653564,665.771606 
	C624.653564,650.059448 624.653564,634.387024 624.653564,618.752380 
	C617.385437,618.122009 613.485107,620.051147 612.092957,626.601379 
	C610.663635,633.327148 610.655823,640.354919 610.049866,648.184204 
z"/>
<path fill="#030303" opacity="1.000000" stroke="none" 
	d="
M567.294556,747.027527 
	C567.294556,756.633484 567.294556,765.744995 567.294556,774.602356 
	C573.798401,774.154602 579.955994,772.849670 585.902954,773.492493 
	C601.453003,775.173279 611.209961,784.491882 615.615723,799.179565 
	C619.513550,812.174072 618.598450,825.225220 613.678528,837.810730 
	C609.296753,849.019531 600.948669,856.508423 589.492920,859.870117 
	C571.411438,865.176147 553.361633,863.948547 535.541321,858.182983 
	C532.901062,857.328735 531.027222,856.269226 531.040466,852.710938 
	C531.184265,814.093567 531.132324,775.475464 531.146118,736.857605 
	C531.146301,736.390686 531.308167,735.923767 531.440979,735.206055 
	C543.255249,735.206055 555.002991,735.206055 567.294617,735.206055 
	C567.294617,738.980347 567.294617,742.756714 567.294556,747.027527 
M567.236389,796.867554 
	C567.244141,810.503784 567.356995,824.141235 567.188110,837.775269 
	C567.144043,841.328369 568.623657,842.129333 571.674622,841.705505 
	C577.477661,840.899292 580.240173,836.575256 580.603455,831.732910 
	C581.343933,821.864563 581.176758,811.910706 580.952820,802.001770 
	C580.906738,799.959839 579.339905,797.626648 577.843262,796.012634 
	C574.954407,792.897644 569.682251,793.072937 567.236389,796.867554 
z"/>
<path fill="#030303" opacity="1.000000" stroke="none" 
	d="
M480.645508,774.798584 
	C492.510803,774.568481 503.976166,774.568481 515.760742,774.568481 
	C515.859985,776.073120 516.015808,777.342285 516.016663,778.611633 
	C516.032410,803.095764 515.947632,827.580505 516.125305,852.063354 
	C516.150269,855.508057 515.144775,857.079712 511.893585,858.046387 
	C492.703491,863.752197 473.241455,864.863281 453.700378,860.792175 
	C440.448578,858.031311 432.670410,848.988892 432.300842,835.474487 
	C431.750458,815.346924 432.158173,795.193054 432.158173,774.757874 
	C444.021210,774.757874 455.775055,774.757874 468.073822,774.757874 
	C468.073822,781.455811 468.073822,788.058044 468.073853,794.660278 
	C468.073914,806.485962 468.065887,818.311707 468.076874,830.137390 
	C468.084686,838.586609 470.739685,840.490784 480.245575,838.008362 
	C480.245575,817.178711 480.245575,796.103699 480.645508,774.798584 
z"/>
<path fill="#030303" opacity="1.000000" stroke="none" 
	d="
M190.011993,851.914978 
	C192.274567,844.578613 194.461700,837.630737 196.686890,830.562012 
	C201.027267,832.023865 205.080490,833.764465 209.310806,834.724854 
	C215.484833,836.126648 220.370697,834.343262 221.626236,830.864868 
	C222.902679,827.328552 220.136444,823.696960 214.676010,819.979309 
	C208.281540,815.625610 201.138641,811.605835 196.395432,805.758179 
	C187.659973,794.988708 187.777542,782.197632 193.428558,769.930725 
	C199.360199,757.054626 210.286743,750.465637 224.168793,749.180176 
	C235.930481,748.091003 247.357513,749.696167 258.152954,755.770691 
	C255.628525,763.291016 253.163101,770.635620 250.957779,777.205322 
	C245.087143,776.076355 239.639542,774.498108 234.126114,774.218567 
	C231.780655,774.099609 227.757278,776.291687 227.261703,778.165039 
	C226.624649,780.573303 227.975937,784.563293 229.890198,786.356750 
	C233.212631,789.469543 237.557983,791.535828 241.590500,793.837585 
	C258.931519,803.735962 265.084137,816.754272 260.898285,834.923157 
	C257.367584,850.248352 242.772690,861.927795 225.337463,862.837708 
	C213.992996,863.429749 202.724396,862.856934 192.058197,858.044189 
	C189.021530,856.674011 188.397552,855.050476 190.011993,851.914978 
z"/>
<path fill="#040404" opacity="1.000000" stroke="none" 
	d="
M644.093994,810.028198 
	C654.416443,807.455872 664.377502,805.001831 674.669434,802.466309 
	C675.361694,797.673157 673.571655,794.782532 667.878845,795.112610 
	C658.375000,795.663635 648.927917,797.195862 638.721436,798.401978 
	C636.844849,793.370056 634.429260,786.893005 631.549194,779.170288 
	C640.261780,777.317444 648.521667,774.943909 656.944214,773.951355 
	C664.652832,773.043030 672.667297,772.685242 680.318542,773.740784 
	C698.791992,776.289490 707.806824,786.077209 708.614014,804.665405 
	C709.322021,820.968323 708.906616,837.324585 708.713684,853.654053 
	C708.697205,855.045837 706.840027,857.294373 705.457703,857.644897 
	C698.071960,859.517639 690.607849,861.916687 683.090332,862.235657 
	C672.195374,862.697754 661.088684,862.474548 650.332703,860.834961 
	C636.337769,858.701721 628.341614,850.344604 626.969116,839.091858 
	C625.250122,824.997742 629.828064,817.093201 644.093994,810.028198 
M675.060913,831.510132 
	C675.060913,827.559570 675.060913,823.609070 675.060913,819.405640 
	C669.026367,819.982178 663.421448,820.408508 661.031982,826.632324 
	C659.223450,831.343018 659.024963,836.215515 662.603943,840.231689 
	C665.966125,844.004395 670.434326,843.624878 675.060913,842.714233 
	C675.060913,839.111267 675.060913,835.804932 675.060913,831.510132 
z"/>
<path fill="#030304" opacity="1.000000" stroke="none" 
	d="
M743.318359,651.105713 
	C731.908813,652.712769 720.941589,654.264221 709.741760,655.848572 
	C711.178650,660.886780 714.289795,664.061096 718.676941,663.958496 
	C727.714722,663.747070 736.732117,662.591492 745.751099,661.750732 
	C746.859070,661.647522 747.925110,661.094604 749.445374,660.612061 
	C752.055969,667.919373 754.599731,675.039734 757.230408,682.403198 
	C744.735107,688.513000 731.599060,689.680359 718.242737,689.318237 
	C700.992249,688.850464 686.863892,682.258240 679.484314,666.020569 
	C671.584167,648.637268 672.018799,630.929626 682.733276,614.698975 
	C686.048523,609.676941 691.388672,605.216492 696.806580,602.511658 
	C709.896240,595.976746 723.928955,595.676025 737.415405,601.296448 
	C752.910706,607.754150 758.250732,621.330627 759.793274,636.868408 
	C760.168518,640.648254 759.849121,644.497192 759.849121,648.875793 
	C754.473511,649.602295 749.117065,650.326172 743.318359,651.105713 
M709.934570,638.253662 
	C715.266296,637.421265 720.598083,636.588867 726.501770,635.667175 
	C725.756653,631.635071 725.743347,627.787476 724.241638,624.652893 
	C723.077148,622.222168 720.343384,619.809448 717.785034,618.958801 
	C714.279358,617.793030 710.337463,619.436279 709.201294,623.081543 
	C707.766357,627.685547 707.563904,632.679199 706.973450,637.522339 
	C706.947510,637.735046 708.351196,638.122009 709.934570,638.253662 
z"/>
<path fill="#040404" opacity="1.000000" stroke="none" 
	d="
M271.825684,823.318970 
	C269.524780,802.865417 277.717865,785.014587 293.132507,777.674988 
	C306.385101,771.364868 320.187592,770.905945 333.708405,776.707092 
	C347.580109,782.658875 353.048584,794.724670 354.856995,808.773804 
	C355.443726,813.332031 354.949097,818.029480 354.949097,823.239685 
	C338.865509,825.466064 322.624847,827.714172 306.094360,830.002441 
	C307.331818,834.949219 310.509796,837.339783 315.076843,838.176819 
	C325.174683,840.027466 334.850708,837.881714 344.944946,834.720825 
	C347.481628,841.755066 349.985260,848.697632 352.610443,855.977295 
	C345.108734,860.125183 337.197266,861.635925 329.151489,862.439758 
	C317.487885,863.605103 305.809967,863.867920 294.906342,858.600952 
	C280.397217,851.592346 273.462952,839.400635 271.825684,823.318970 
M305.719818,797.368164 
	C302.783020,802.285889 302.504059,807.530518 303.459412,813.314453 
	C309.848358,812.275391 315.846527,811.299927 322.292480,810.251587 
	C321.864380,807.022156 321.683807,804.212891 321.095825,801.491699 
	C319.230194,792.858154 312.771088,790.843140 305.719818,797.368164 
z"/>
<path fill="#010102" opacity="1.000000" stroke="none" 
	d="
M455.995087,672.995239 
	C455.995087,648.051208 455.995087,623.606384 455.995087,598.818848 
	C450.291962,598.818848 445.023285,598.818848 439.393707,598.818848 
	C439.393707,590.104248 439.393707,581.723999 439.393707,573.048584 
	C463.073517,573.048584 486.793671,573.048584 510.812378,573.048584 
	C510.812378,581.444092 510.812378,589.838257 510.812378,598.625854 
	C505.393799,598.625854 500.118042,598.625854 494.399475,598.625854 
	C494.399475,628.418152 494.399475,657.826355 494.399475,687.568726 
	C481.547333,687.568726 469.134094,687.568726 455.995087,687.568726 
	C455.995087,682.993042 455.995087,678.243774 455.995087,672.995239 
z"/>
<path fill="#040404" opacity="1.000000" stroke="none" 
	d="
M376.443237,504.654419 
	C366.344391,498.956360 360.925293,490.245392 358.482178,479.632111 
	C356.100189,469.284302 356.103882,458.836273 358.856842,448.515045 
	C364.837097,426.094269 382.764862,414.987305 405.497040,419.525299 
	C406.462616,419.718079 407.438538,419.859131 408.840424,420.097565 
	C408.840424,406.482880 408.840424,393.074371 408.840424,379.384949 
	C415.635803,379.384949 422.030762,379.384949 428.969788,379.384949 
	C428.969788,381.059784 428.969788,382.666748 428.969757,384.273682 
	C428.969177,422.396545 428.904572,460.519714 429.066711,498.641876 
	C429.083008,502.462860 427.916077,504.362946 424.366669,505.452484 
	C408.413239,510.349731 392.538666,512.194885 376.443237,504.654419 
M376.949249,469.264404 
	C377.884796,473.964569 378.354858,478.819366 379.853912,483.332367 
	C382.868439,492.407745 389.632812,496.900482 399.132690,496.918640 
	C408.164124,496.935913 408.930511,496.180359 408.936493,487.245392 
	C408.939270,483.086914 408.940094,478.928467 408.940216,474.769989 
	C408.940674,460.321350 408.940399,445.872711 408.940399,431.532318 
	C393.227325,427.099152 382.580292,432.743256 378.839722,448.108521 
	C377.255859,454.614471 377.506989,461.567108 376.949249,469.264404 
z"/>
<path fill="#030303" opacity="1.000000" stroke="none" 
	d="
M401.062195,863.089417 
	C385.412476,862.519409 375.622894,855.706726 372.620911,843.039612 
	C371.637878,838.891724 371.594666,834.469055 371.529785,830.165894 
	C371.376862,820.016602 371.472290,809.863586 371.449432,799.712036 
	C371.448700,799.396545 371.251434,799.081482 370.997833,798.324768 
	C368.562347,798.324768 365.969971,798.324768 363.068512,798.324768 
	C363.068512,790.329468 363.068512,782.769653 363.068512,774.698792 
	C365.614685,774.565613 368.193878,774.430786 371.483673,774.258789 
	C371.483673,769.937927 371.584625,765.686157 371.446838,761.442261 
	C371.360535,758.784607 371.923523,757.363159 374.976807,756.686768 
	C385.792175,754.290710 396.515778,751.480591 407.809204,748.695435 
	C407.809204,757.512512 407.809204,765.766907 407.809204,774.421875 
	C411.651428,774.421875 415.082336,774.421875 418.864624,774.421875 
	C418.864624,782.369934 418.864624,789.923157 418.864624,798.008057 
	C415.491699,798.008057 411.930878,798.008057 408.013611,798.008057 
	C408.013611,810.612671 407.790222,822.701660 408.130432,834.774780 
	C408.255554,839.215820 411.356140,840.002930 419.201996,837.946167 
	C419.201996,844.816833 419.320923,851.522400 419.071136,858.214111 
	C419.034546,859.193909 417.362610,860.729980 416.242950,860.945129 
	C411.381805,861.879578 406.444916,862.419922 401.062195,863.089417 
z"/>
<path fill="#010101" opacity="1.000000" stroke="none" 
	d="
M723.909119,772.000000 
	C723.909119,759.523804 723.909119,747.547546 723.909119,735.256226 
	C735.851318,735.256226 747.597107,735.256226 759.676758,735.256226 
	C759.676758,777.166016 759.676758,819.221252 759.676758,861.611023 
	C748.075500,861.611023 736.344177,861.611023 723.909119,861.611023 
	C723.909119,831.977112 723.909119,802.238586 723.909119,772.000000 
z"/>
<path fill="#858897" opacity="1.000000" stroke="none" 
	d="
M879.202515,477.252991 
	C899.428528,454.713165 932.465759,463.115021 942.184143,486.638824 
	C947.689697,499.965240 944.784180,515.568115 934.657288,525.924622 
	C924.198242,536.620789 907.971802,540.108948 894.129578,534.637024 
	C880.296204,529.168579 871.178711,516.055969 870.839661,501.549988 
	C870.627991,492.492828 873.452454,484.582367 879.202515,477.252991 
z"/>
<path fill="#858897" opacity="1.000000" stroke="none" 
	d="
M1281.307129,138.399857 
	C1299.886719,142.330826 1312.133545,156.648132 1312.135254,174.076340 
	C1312.137085,192.526337 1300.292480,206.688675 1281.648804,210.528503 
	C1262.849121,214.400497 1242.902100,201.327927 1238.996094,182.575455 
	C1234.833496,162.590652 1247.043213,143.071869 1266.564209,139.078232 
	C1271.200073,138.129822 1276.107422,138.508072 1281.307129,138.399857 
z"/>
<path fill="#858897" opacity="1.000000" stroke="none" 
	d="
M1204.672119,123.470856 
	C1214.593262,142.746613 1208.189331,164.182693 1189.905273,173.881226 
	C1172.245605,183.248611 1149.914551,176.759979 1140.088989,159.406265 
	C1130.462891,142.404724 1136.117432,120.584328 1152.742065,110.578568 
	C1170.992188,99.594505 1192.970093,104.938293 1204.672119,123.470856 
z"/>
<path fill="#858897" opacity="1.000000" stroke="none" 
	d="
M1208.216797,641.976990 
	C1213.224243,662.407227 1201.707275,681.198120 1181.268433,686.505127 
	C1161.561890,691.621948 1141.346680,679.508545 1136.292114,659.554199 
	C1131.614624,641.087585 1143.383545,621.076782 1161.927979,615.965454 
	C1182.251465,610.363892 1202.499390,621.589722 1208.216797,641.976990 
z"/>
<path fill="#858897" opacity="1.000000" stroke="none" 
	d="
M907.738403,367.207153 
	C921.790405,378.575165 926.232666,396.073578 919.165527,411.339020 
	C912.189392,426.407654 895.657227,435.249359 879.841248,432.370239 
	C861.751099,429.077179 848.998779,415.796875 848.300415,398.208893 
	C847.710693,383.357025 854.179138,371.587860 867.390808,364.466095 
	C881.048462,357.103943 894.597595,358.223114 907.738403,367.207153 
z"/>
<path fill="#858897" opacity="1.000000" stroke="none" 
	d="
M1042.420044,181.670013 
	C1025.531250,166.659210 1023.191040,145.914246 1036.271729,129.517715 
	C1046.552856,116.630501 1065.736938,112.376762 1081.011719,119.597443 
	C1096.361572,126.853615 1104.955688,143.708160 1101.361084,159.505997 
	C1097.320312,177.264633 1083.134155,188.916977 1065.576538,189.107132 
	C1057.114380,189.198776 1049.566162,186.715683 1042.420044,181.670013 
z"/>
<path fill="#858897" opacity="1.000000" stroke="none" 
	d="
M1382.343140,417.179749 
	C1405.165527,406.738098 1429.763672,418.075195 1435.531738,441.370667 
	C1440.518433,461.510132 1426.966675,481.633362 1405.622314,485.783813 
	C1385.945068,489.610077 1365.583618,475.071381 1362.892700,455.273407 
	C1360.686768,439.043732 1367.373169,425.776886 1382.343140,417.179749 
z"/>
<path fill="#858897" opacity="1.000000" stroke="none" 
	d="
M1002.165161,607.076111 
	C988.353027,626.566895 962.309082,627.982422 946.703979,613.947266 
	C936.031250,604.348206 931.770081,592.130066 935.504456,577.907471 
	C939.313477,563.400269 948.950745,554.499451 963.406982,551.073914 
	C977.946899,547.628418 993.623169,553.536377 1001.903137,566.010742 
	C1010.715820,579.287476 1010.704834,593.091675 1002.165161,607.076111 
z"/>
<path fill="#858897" opacity="1.000000" stroke="none" 
	d="
M1384.652588,376.548584 
	C1367.996338,368.762695 1359.622681,352.681305 1363.063599,335.547241 
	C1366.360596,319.130829 1381.661621,306.641968 1398.873779,306.318573 
	C1417.494507,305.968658 1434.426270,320.906769 1436.151978,338.429443 
	C1438.461060,361.877014 1421.141479,377.864655 1404.480713,378.919556 
	C1398.055542,379.326355 1391.490723,377.529419 1384.652588,376.548584 
z"/>
<path fill="#858897" opacity="1.000000" stroke="none" 
	d="
M1362.423218,582.902344 
	C1339.384766,585.797913 1325.326660,572.595520 1320.767212,559.529663 
	C1315.822021,545.358215 1318.307251,532.478516 1328.777832,521.770203 
	C1340.111938,510.178680 1353.997192,507.205292 1369.063965,513.034241 
	C1382.723633,518.318848 1390.880127,528.585876 1392.123901,543.460083 
	C1393.752075,562.929932 1382.868408,577.352661 1362.423218,582.902344 
z"/>
<path fill="#858897" opacity="1.000000" stroke="none" 
	d="
M1243.262939,599.411804 
	C1252.728882,585.127747 1266.015503,579.438477 1282.161621,582.336060 
	C1298.023071,585.182617 1307.979370,595.270813 1311.580200,611.164062 
	C1315.772583,629.668457 1303.517090,648.489685 1284.099121,653.540588 
	C1260.784180,659.605103 1237.108643,641.195618 1238.196899,617.259888 
	C1238.465332,611.352844 1241.373169,605.565796 1243.262939,599.411804 
z"/>
<path fill="#858897" opacity="1.000000" stroke="none" 
	d="
M891.381104,324.806580 
	C876.360596,316.452881 868.960754,302.538513 871.044861,287.049316 
	C873.051270,272.137421 883.925232,259.874359 899.490662,256.509949 
	C923.118835,251.402817 941.522888,267.318573 944.697876,287.191956 
	C947.795654,306.582397 932.473999,326.090637 912.123047,328.215271 
	C904.948914,328.964203 898.236084,327.858765 891.381104,324.806580 
z"/>
<path fill="#858897" opacity="1.000000" stroke="none" 
	d="
M1338.432373,213.267792 
	C1361.191162,203.475632 1384.454346,213.508926 1391.067871,235.645508 
	C1397.128540,255.931717 1384.545532,276.546783 1363.080688,281.497620 
	C1343.045410,286.118744 1322.067505,272.012848 1318.950562,251.823929 
	C1316.473999,235.782242 1323.601074,221.499420 1338.432373,213.267792 
z"/>
<path fill="#858897" opacity="1.000000" stroke="none" 
	d="
M1037.449707,664.521057 
	C1019.398804,642.125427 1028.708130,612.096680 1055.670044,604.724304 
	C1075.314331,599.352844 1096.408203,611.646240 1101.054321,631.173828 
	C1105.872681,651.426025 1093.194946,671.958069 1072.866089,675.749084 
	C1059.488281,678.243835 1047.422363,674.826111 1037.449707,664.521057 
z"/>
<path fill="#858897" opacity="1.000000" stroke="none" 
	d="
M937.661621,221.160095 
	C926.939575,197.515350 943.092102,169.947845 971.542786,169.295731 
	C988.551514,168.905869 1004.993164,182.476593 1007.929504,199.178268 
	C1011.008911,216.694366 1001.203918,233.967209 984.751404,240.009323 
	C966.194092,246.824387 947.466431,239.437469 937.661621,221.160095 
z"/>
<path fill="#060606" opacity="1.000000" stroke="none" 
	d="
M179.248215,433.012573 
	C179.247604,428.382385 179.247604,424.249146 179.247604,419.784241 
	C186.060501,419.784241 192.455597,419.784241 199.388000,419.784241 
	C199.388000,422.080566 199.387909,424.202240 199.388031,426.323883 
	C199.388916,443.484985 199.355820,460.646179 199.400787,477.807159 
	C199.441818,493.460754 209.632111,500.138031 224.461899,494.485779 
	C227.264313,493.417633 227.646790,491.725128 227.637863,489.149872 
	C227.565140,468.156952 227.597305,447.163635 227.597549,426.170441 
	C227.597565,424.189514 227.597534,422.208557 227.597534,419.830505 
	C234.302231,419.830505 240.680450,419.830505 247.446411,419.830505 
	C247.446411,447.395752 247.446411,474.957672 247.446411,502.969055 
	C231.893265,509.903412 215.484039,512.123169 198.611694,507.892670 
	C185.719696,504.660217 179.427597,495.167694 179.286926,479.994080 
	C179.143295,464.500427 179.251099,449.004425 179.248215,433.012573 
z"/>
<path fill="#030304" opacity="1.000000" stroke="none" 
	d="
M317.891663,439.662628 
	C313.719330,431.366943 305.950470,428.796509 294.440002,431.233063 
	C290.497498,432.067657 288.809967,433.545776 288.868652,438.090271 
	C289.167175,461.211945 289.006348,484.339508 289.006348,507.742126 
	C282.327911,507.742126 275.928284,507.742126 269.259155,507.742126 
	C269.259155,479.983795 269.259155,452.235992 269.259155,423.977112 
	C286.155121,417.779144 303.556030,415.355560 321.265045,420.547485 
	C332.061798,423.712860 338.425507,431.610626 338.629761,442.994141 
	C339.014740,464.447632 338.740875,485.912933 338.740875,507.694031 
	C332.187439,507.694031 325.789490,507.694031 319.003235,507.694031 
	C318.936035,506.317261 318.806885,504.889862 318.805756,503.462372 
	C318.791748,485.639038 318.836823,467.815521 318.759735,449.992523 
	C318.745422,446.679718 318.258759,443.368988 317.891663,439.662628 
z"/>
<path fill="#050506" opacity="1.000000" stroke="none" 
	d="
M724.722290,509.665466 
	C702.336609,509.680298 688.774353,496.861359 686.260193,473.105957 
	C685.081909,461.972351 685.520874,450.848602 689.798218,440.182892 
	C695.552551,425.834167 706.688721,418.090454 722.056580,417.968353 
	C737.911377,417.842377 749.398682,425.142944 755.021606,439.808960 
	C760.949829,455.271271 760.970886,471.094879 755.422058,486.662354 
	C750.412354,500.717041 740.132385,508.405029 724.722290,509.665466 
M731.398987,493.066772 
	C733.181885,490.313690 735.791199,487.784271 736.607056,484.769470 
	C740.498047,470.392029 740.606812,455.857025 736.387024,441.514832 
	C734.209778,434.115051 729.483887,430.782196 722.630798,430.731140 
	C715.753296,430.679901 711.049805,433.921570 708.759216,441.337158 
	C704.335999,455.656647 704.278931,470.225220 708.459961,484.550018 
	C711.656189,495.500977 720.533691,498.757660 731.398987,493.066772 
z"/>
<path fill="#060606" opacity="1.000000" stroke="none" 
	d="
M658.679626,506.732910 
	C645.679077,509.861755 632.974854,510.862915 620.236206,507.921539 
	C608.569763,505.227814 601.367065,497.909332 599.977600,487.897369 
	C598.170044,474.873108 602.110229,464.688690 613.393982,459.431030 
	C622.114502,455.367676 631.942932,453.655945 641.319458,451.044495 
	C643.673401,450.388885 646.183472,450.293427 648.559021,449.949646 
	C650.068726,436.412201 644.989136,430.329742 631.695801,431.005829 
	C624.206909,431.386688 616.804810,433.472656 608.725342,434.903534 
	C607.685852,432.313507 606.228271,428.681763 604.618164,424.669922 
	C619.652771,418.018677 634.794189,415.306885 650.381287,420.384033 
	C662.603882,424.365295 667.383789,434.323212 667.635132,446.382050 
	C668.009949,464.363953 667.843628,482.358826 667.701050,500.346527 
	C667.690063,501.729584 666.343872,503.550690 665.094666,504.367249 
	C663.344177,505.511475 661.101868,505.903320 658.679626,506.732910 
M619.104492,487.730865 
	C621.009277,490.348145 622.377319,493.819397 624.921936,495.418518 
	C631.854614,499.775299 639.544189,498.914764 647.058838,496.708069 
	C647.864807,496.471436 648.872864,495.101532 648.881897,494.247711 
	C649.003113,482.823975 648.962952,471.398529 648.962952,459.939392 
	C623.675232,461.979462 616.499451,470.603821 619.104492,487.730865 
z"/>
<path fill="#060606" opacity="1.000000" stroke="none" 
	d="
M495.684052,508.715393 
	C485.810944,508.521210 476.220490,509.224457 466.974396,507.757355 
	C454.896545,505.841003 447.741699,497.787231 446.193787,487.132629 
	C444.430695,474.997070 449.211853,464.080811 460.546509,459.009155 
	C469.055359,455.201874 478.534637,453.538422 487.620941,451.063843 
	C489.983124,450.420532 492.491425,450.313782 494.855988,449.971680 
	C496.363770,436.199097 491.521576,430.347504 478.107819,431.009338 
	C470.614746,431.379028 463.208038,433.499542 455.199738,434.931763 
	C454.115814,432.206604 452.671112,428.574493 451.105286,424.637726 
	C465.282318,418.320038 479.602478,415.818298 494.535828,419.662750 
	C506.080627,422.634857 513.437256,431.300049 513.779785,443.482849 
	C514.318359,462.631805 514.068359,481.804993 513.930359,500.966309 
	C513.921204,502.240326 512.275757,504.214447 510.987061,504.640717 
	C506.121826,506.249969 501.089600,507.354218 495.684052,508.715393 
M489.262329,460.485687 
	C485.108398,461.606384 480.785400,462.313812 476.834290,463.930237 
	C467.366699,467.803497 463.215942,476.076172 465.189575,486.128082 
	C466.818604,494.424835 472.775513,498.369385 483.630096,498.338959 
	C494.603088,498.308197 495.283081,497.633392 495.288239,486.721710 
	C495.292480,477.809113 495.289093,468.896484 495.289093,459.782257 
	C493.092438,459.996857 491.606903,460.141968 489.262329,460.485687 
z"/>
<path fill="#040405" opacity="1.000000" stroke="none" 
	d="
M109.961845,486.999878 
	C109.961845,456.371796 109.961845,426.243622 109.961845,395.802551 
	C128.266724,395.802551 146.325684,395.802551 164.627823,395.802551 
	C164.627823,400.257080 164.627823,404.527863 164.627823,409.366882 
	C153.796783,409.366882 142.902756,409.366882 131.603607,409.366882 
	C131.603607,420.939606 131.603607,431.955566 131.603607,443.454407 
	C141.212753,443.454407 150.800217,443.454407 160.698776,443.454407 
	C160.698776,448.300385 160.698776,452.678467 160.698776,457.531769 
	C151.074005,457.531769 141.479889,457.531769 131.345139,457.531769 
	C131.345139,474.694244 131.345139,491.397034 131.345139,508.377716 
	C124.056290,508.377716 117.314995,508.377716 109.961845,508.377716 
	C109.961845,501.354736 109.961845,494.427277 109.961845,486.999878 
z"/>
<path fill="#040404" opacity="1.000000" stroke="none" 
	d="
M560.962280,674.987183 
	C560.962280,679.445312 560.962280,683.405762 560.962280,687.636719 
	C548.704102,687.636719 536.793030,687.636719 524.491699,687.636719 
	C524.491699,658.438477 524.491699,629.124329 524.491699,599.503540 
	C536.391724,599.503540 548.296387,599.503540 560.962280,599.503540 
	C560.962280,624.435059 560.962280,649.462280 560.962280,674.987183 
z"/>
<path fill="#060606" opacity="1.000000" stroke="none" 
	d="
M579.354126,493.638916 
	C580.899353,492.883209 582.085571,492.319000 583.516602,491.638367 
	C585.040222,495.646118 586.497803,499.479858 587.925659,503.235565 
	C575.157898,514.390869 551.910156,510.934845 541.261658,496.484375 
	C528.800598,479.574219 529.056274,447.219788 541.782715,430.545746 
	C551.533691,417.770203 570.387939,413.911957 584.499084,421.679596 
	C587.118164,423.121307 588.108398,424.623779 586.638550,427.505463 
	C585.447815,429.840057 584.645874,432.373016 583.672668,434.815094 
	C581.187744,433.838928 578.976440,432.615051 576.611023,432.102783 
	C566.566528,429.927551 559.116150,433.720612 555.650452,443.450287 
	C551.042908,456.385406 551.136719,469.645477 555.652161,482.553650 
	C559.597717,493.832886 567.415161,497.271149 579.354126,493.638916 
z"/>
<path fill="#050506" opacity="1.000000" stroke="none" 
	d="
M531.630005,560.492065 
	C539.844482,556.175293 547.651917,556.161133 554.907043,561.572083 
	C563.398804,567.905396 563.370178,578.817749 555.106323,585.394897 
	C548.234436,590.864319 537.548950,591.023071 530.478271,585.760986 
	C521.411316,579.013306 521.779541,568.224182 531.630005,560.492065 
z"/>
<path fill="#0E0E0E" opacity="1.000000" stroke="none" 
	d="
M560.966003,533.474243 
	C561.850403,533.213379 562.481750,533.267517 562.800964,532.977722 
	C564.595947,531.347961 566.315796,529.635437 568.061340,527.951233 
	C566.012878,526.620422 564.086304,524.459778 561.889709,524.136963 
	C557.710266,523.522705 553.376526,523.958862 548.688293,523.958862 
	C549.986267,519.438293 552.137634,516.878723 556.774292,517.334412 
	C562.681274,517.914917 568.666443,518.071838 574.473083,519.174133 
	C578.597412,519.957092 581.476501,522.918335 581.877869,527.492310 
	C582.279785,532.072510 579.972961,535.803040 576.031189,536.950256 
	C568.646362,539.099548 560.993103,540.576294 553.350830,541.500488 
	C548.510803,542.085693 543.488770,541.165710 538.496216,540.918213 
	C539.770020,535.497925 542.585266,533.347839 548.165771,534.112183 
	C552.202393,534.665100 556.427673,533.840637 560.966003,533.474243 
z"/>
<path fill="#0B0B0B" opacity="1.000000" stroke="none" 
	d="
M638.558594,406.410522 
	C637.160278,405.753082 636.093140,405.301178 635.042175,404.814423 
	C625.367981,400.333435 622.280457,400.978546 615.587769,409.178497 
	C614.123047,405.055908 609.193726,402.051514 613.372070,396.902283 
	C617.280212,392.085968 624.045837,390.146820 630.477783,392.527649 
	C632.792908,393.384583 634.971985,394.612427 637.203369,395.691284 
	C645.666199,399.783142 649.943115,398.734924 655.572876,391.042847 
	C656.114014,391.914612 656.649841,392.703979 657.112305,393.534180 
	C661.373657,401.185059 658.808167,406.815704 649.995178,407.896332 
	C646.402893,408.336884 642.602844,407.082886 638.558594,406.410522 
z"/>
<path fill="#F9F9FA" opacity="1.000000" stroke="none" 
	d="
M610.037842,647.717407 
	C610.655823,640.354919 610.663635,633.327148 612.092957,626.601379 
	C613.485107,620.051147 617.385437,618.122009 624.653564,618.752380 
	C624.653564,634.387024 624.653564,650.059448 624.653564,665.771606 
	C618.863525,667.311951 614.999146,665.807617 612.863708,660.213623 
	C611.408447,656.401306 610.952637,652.207458 610.037842,647.717407 
z"/>
<path fill="#F4F4F4" opacity="1.000000" stroke="none" 
	d="
M567.249268,796.406921 
	C569.682251,793.072937 574.954407,792.897644 577.843262,796.012634 
	C579.339905,797.626648 580.906738,799.959839 580.952820,802.001770 
	C581.176758,811.910706 581.343933,821.864563 580.603455,831.732910 
	C580.240173,836.575256 577.477661,840.899292 571.674622,841.705505 
	C568.623657,842.129333 567.144043,841.328369 567.188110,837.775269 
	C567.356995,824.141235 567.244141,810.503784 567.249268,796.406921 
z"/>
<path fill="#F9F9FA" opacity="1.000000" stroke="none" 
	d="
M675.060913,832.004333 
	C675.060913,835.804932 675.060913,839.111267 675.060913,842.714233 
	C670.434326,843.624878 665.966125,844.004395 662.603943,840.231689 
	C659.024963,836.215515 659.223450,831.343018 661.031982,826.632324 
	C663.421448,820.408508 669.026367,819.982178 675.060913,819.405640 
	C675.060913,823.609070 675.060913,827.559570 675.060913,832.004333 
z"/>
<path fill="#F9F9FA" opacity="1.000000" stroke="none" 
	d="
M709.511780,638.340759 
	C708.351196,638.122009 706.947510,637.735046 706.973450,637.522339 
	C707.563904,632.679199 707.766357,627.685547 709.201294,623.081543 
	C710.337463,619.436279 714.279358,617.793030 717.785034,618.958801 
	C720.343384,619.809448 723.077148,622.222168 724.241638,624.652893 
	C725.743347,627.787476 725.756653,631.635071 726.501770,635.667175 
	C720.598083,636.588867 715.266296,637.421265 709.511780,638.340759 
z"/>
<path fill="#F9F9FA" opacity="1.000000" stroke="none" 
	d="
M305.934814,797.053223 
	C312.771088,790.843140 319.230194,792.858154 321.095825,801.491699 
	C321.683807,804.212891 321.864380,807.022156 322.292480,810.251587 
	C315.846527,811.299927 309.848358,812.275391 303.459412,813.314453 
	C302.504059,807.530518 302.783020,802.285889 305.934814,797.053223 
z"/>
<path fill="#FBFBFB" opacity="1.000000" stroke="none" 
	d="
M376.936707,468.790588 
	C377.506989,461.567108 377.255859,454.614471 378.839722,448.108521 
	C382.580292,432.743256 393.227325,427.099152 408.940399,431.532318 
	C408.940399,445.872711 408.940674,460.321350 408.940216,474.769989 
	C408.940094,478.928467 408.939270,483.086914 408.936493,487.245392 
	C408.930511,496.180359 408.164124,496.935913 399.132690,496.918640 
	C389.632812,496.900482 382.868439,492.407745 379.853912,483.332367 
	C378.354858,478.819366 377.884796,473.964569 376.936707,468.790588 
z"/>
<path fill="#FBFBFC" opacity="1.000000" stroke="none" 
	d="
M731.116943,493.324097 
	C720.533691,498.757660 711.656189,495.500977 708.459961,484.550018 
	C704.278931,470.225220 704.335999,455.656647 708.759216,441.337158 
	C711.049805,433.921570 715.753296,430.679901 722.630798,430.731140 
	C729.483887,430.782196 734.209778,434.115051 736.387024,441.514832 
	C740.606812,455.857025 740.498047,470.392029 736.607056,484.769470 
	C735.791199,487.784271 733.181885,490.313690 731.116943,493.324097 
z"/>
<path fill="#FBFBFB" opacity="1.000000" stroke="none" 
	d="
M619.032349,487.303162 
	C616.499451,470.603821 623.675232,461.979462 648.962952,459.939392 
	C648.962952,471.398529 649.003113,482.823975 648.881897,494.247711 
	C648.872864,495.101532 647.864807,496.471436 647.058838,496.708069 
	C639.544189,498.914764 631.854614,499.775299 624.921936,495.418518 
	C622.377319,493.819397 621.009277,490.348145 619.032349,487.303162 
z"/>
<path fill="#FBFBFC" opacity="1.000000" stroke="none" 
	d="
M489.691833,460.386383 
	C491.606903,460.141968 493.092438,459.996857 495.289093,459.782257 
	C495.289093,468.896484 495.292480,477.809113 495.288239,486.721710 
	C495.283081,497.633392 494.603088,498.308197 483.630096,498.338959 
	C472.775513,498.369385 466.818604,494.424835 465.189575,486.128082 
	C463.215942,476.076172 467.366699,467.803497 476.834290,463.930237 
	C480.785400,462.313812 485.108398,461.606384 489.691833,460.386383 
z"/>
</svg>