<svg version="1.1" id="Layer_1" xmlns="http://www.w3.org/2000/svg" xmlns:xlink="http://www.w3.org/1999/xlink" x="0px" y="0px"
	 width="100%" viewBox="0 0 500 373" enable-background="new 0 0 500 373" xml:space="preserve">
<path fill="#FDFDFD" opacity="1.000000" stroke="none" 
	d="
M1.000000,359.000000 
	C1.000000,239.708878 1.000000,120.417747 1.000000,1.063311 
	C167.565491,1.063311 334.131012,1.063311 501.000000,1.063311 
	C501.000000,120.023155 501.000000,239.046570 500.582977,358.472900 
	C498.356049,358.746399 496.546143,358.503784 494.736237,358.503601 
	C332.450989,358.485992 170.165756,358.485138 7.880530,358.508636 
	C5.925188,358.508911 3.969894,358.838379 1.760605,359.034119 
	C1.337754,359.036041 1.168877,359.018036 1.000000,359.000000 
M161.066986,206.050659 
	C157.555634,176.404190 154.044266,146.757706 150.526932,117.060692 
	C147.560608,117.060692 145.018143,117.060692 142.563705,117.060692 
	C142.563705,174.216064 142.563705,230.989075 142.563705,287.838135 
	C144.533981,287.838135 146.247437,287.838135 148.294373,287.838135 
	C148.294373,256.039673 148.294373,224.567780 148.798981,193.167679 
	C149.136688,193.134247 149.474411,193.100815 149.928864,193.944397 
	C151.713226,210.625992 153.464722,227.311188 155.291824,243.988098 
	C156.896408,258.634155 158.585709,273.270966 160.235275,287.891296 
	C162.748596,287.891296 164.994431,287.891296 167.327271,287.891296 
	C167.327271,230.751846 167.327271,173.890335 167.327271,116.670601 
	C165.603729,116.783165 164.224106,116.873268 162.632492,116.977219 
	C162.632492,147.216492 162.632492,177.025024 162.134232,206.759171 
	C161.807022,206.811829 161.479828,206.864502 161.066986,206.050659 
M166.500153,330.323547 
	C119.387589,330.323547 72.275017,330.323547 25.019957,330.323547 
	C25.019957,335.236237 25.019957,339.633148 25.019957,344.024902 
	C176.043716,344.024902 326.770142,344.024902 477.518311,344.024902 
	C477.518311,339.433441 477.518311,335.157990 477.518311,330.323547 
	C374.015808,330.323547 270.757996,330.323547 166.500153,330.323547 
M67.113304,55.627041 
	C62.193207,57.055973 57.246155,58.401855 52.375271,59.982464 
	C51.376450,60.306583 49.982761,61.468826 49.932415,62.313927 
	C49.681301,66.529335 49.817623,70.767815 49.817623,75.302124 
	C51.502007,74.935150 52.475067,74.777405 53.417061,74.510178 
	C117.686653,56.277733 181.949753,38.022366 246.240402,19.864548 
	C248.161575,19.321953 250.492935,19.337206 252.425537,19.859798 
	C308.724182,35.083416 364.994202,50.412952 421.274750,65.703613 
	C432.076691,68.638351 442.903412,71.481964 454.307678,74.524757 
	C454.307678,70.653328 454.009796,67.321571 454.387177,64.068123 
	C454.807495,60.444309 453.193604,59.247288 449.985931,58.339836 
	C384.600555,39.842255 319.247528,21.230431 253.862640,2.731121 
	C252.108353,2.234787 249.954636,2.327764 248.184402,2.834655 
	C224.364914,9.655190 200.577942,16.589375 176.788025,23.513008 
	C140.467438,34.083466 104.150856,44.667625 67.113304,55.627041 
M135.500198,301.356659 
	C107.385368,301.356659 79.270546,301.356659 50.963329,301.356659 
	C50.963329,306.228546 50.963329,310.629242 50.963329,315.047729 
	C185.802505,315.047729 320.364471,315.047729 455.040649,315.047729 
	C455.040649,310.460022 455.040649,306.170715 455.040649,301.356689 
	C348.731964,301.356689 242.616089,301.356689 135.500198,301.356659 
M56.581497,92.061378 
	C54.677025,92.061378 52.772552,92.061378 50.898422,92.061378 
	C50.898422,97.098396 50.898422,101.383636 50.898422,105.772118 
	C185.766037,105.772118 320.442383,105.772118 455.023743,105.772118 
	C455.023743,101.122314 455.023743,96.828995 455.023743,92.062019 
	C322.407745,92.062019 189.985123,92.062019 56.581497,92.061378 
M255.751862,45.704708 
	C282.708893,52.983791 309.660492,60.283031 336.625702,67.531738 
	C346.998718,70.320175 357.265472,74.196709 367.828796,75.401672 
	C379.868164,76.775002 392.184631,75.719330 404.380646,75.719330 
	C402.964935,74.593323 401.478119,73.973900 399.941193,73.526619 
	C351.990387,59.571636 304.040588,45.612965 256.057892,31.768375 
	C254.157440,31.220039 251.811646,31.343458 249.883194,31.891815 
	C206.025650,44.362797 162.195465,56.930046 118.365868,69.499207 
	C112.111198,71.292877 105.885971,73.189217 99.757706,75.005272 
	C111.003441,75.005272 122.161613,75.054024 133.318741,74.967323 
	C135.778107,74.948204 138.309525,74.741142 140.679626,74.126488 
	C172.052841,65.990257 203.388504,57.708958 234.770920,49.608707 
	C241.435959,47.888363 248.250610,46.747665 255.751862,45.704708 
M406.182526,255.499893 
	C406.184082,262.330383 406.084534,269.162842 406.216156,275.990845 
	C406.343262,282.583466 409.727844,287.395355 415.083160,288.986877 
	C423.649353,291.532562 432.501617,286.899292 432.394409,275.979248 
	C432.060760,241.996613 432.277069,208.008652 432.272583,174.022751 
	C432.270508,158.196182 432.230682,142.369583 432.251343,126.543053 
	C432.258057,121.398232 430.166412,117.452225 425.501282,115.295372 
	C420.207153,112.847717 415.056396,113.646873 410.582123,117.329964 
	C406.610138,120.599564 406.167877,125.265045 406.170532,130.051559 
	C406.193695,171.534348 406.183075,213.017120 406.182526,255.499893 
M89.757347,280.361969 
	C84.673004,281.145935 83.076431,279.433868 83.075768,273.044983 
	C83.070572,222.883652 83.078606,172.722336 83.082520,122.561005 
	C83.082664,120.752731 83.082542,118.944458 83.082542,116.987671 
	C80.353279,116.987671 77.942146,116.987671 75.449623,116.987671 
	C75.373573,117.936348 75.275917,118.586357 75.275848,119.236374 
	C75.270012,170.064285 75.261330,220.892227 75.302834,271.720093 
	C75.305000,274.373474 75.575935,277.053345 76.006371,279.674133 
	C76.908447,285.166626 81.166672,288.850433 86.610229,289.086792 
	C93.247063,289.375031 97.532867,286.595825 98.806602,280.590057 
	C99.525383,277.200958 99.696152,273.644257 99.699959,270.162598 
	C99.753960,220.834564 99.736961,171.506470 99.737129,122.178391 
	C99.737137,120.541824 99.737129,118.905258 99.737129,116.974815 
	C97.325645,116.974815 95.252228,116.974815 92.882599,116.974815 
	C92.882599,118.972664 92.882576,120.784348 92.882599,122.596024 
	C92.883186,171.924103 92.928391,221.252319 92.778824,270.579956 
	C92.769371,273.696259 91.242294,276.808014 89.757347,280.361969 
M270.983643,141.501526 
	C269.990051,162.382034 275.451477,182.257706 280.396423,202.220276 
	C282.980286,212.651215 286.666626,223.000397 287.643829,233.590530 
	C288.923798,247.461670 288.020691,261.534393 288.048767,275.520416 
	C288.050079,276.185486 288.231415,277.062897 287.888611,277.476349 
	C286.832275,278.750397 285.709259,280.456116 284.321625,280.791229 
	C283.447937,281.002258 281.540680,279.273407 281.016022,278.027740 
	C280.276031,276.270905 280.177490,274.156891 280.167542,272.193726 
	C280.101929,259.256317 280.133667,246.318420 280.133667,233.269867 
	C277.178558,233.269867 274.762787,233.269867 271.856049,233.269867 
	C271.856049,247.422104 271.869385,261.372284 271.851166,275.322418 
	C271.839905,283.950714 275.303955,288.020447 282.824799,288.129486 
	C291.581726,288.256439 296.902863,283.481201 297.057709,275.134583 
	C297.184387,268.306427 296.789337,261.458160 297.152283,254.646881 
	C298.146179,235.994980 295.271393,217.954346 289.488403,200.266830 
	C282.139160,177.789032 278.826202,154.738876 280.346710,131.088181 
	C280.543274,128.031372 279.480194,123.297882 284.226654,123.246033 
	C289.160736,123.192146 287.796997,127.845413 287.961609,130.940079 
	C288.111847,133.764221 287.993835,136.602646 287.993866,139.434769 
	C287.993927,148.205917 287.993866,156.977066 287.993866,165.807571 
	C291.275269,165.807571 293.876282,165.807571 296.077789,165.807571 
	C296.077789,152.512909 296.335846,139.413559 295.970917,126.331596 
	C295.783325,119.605461 291.557678,116.109093 284.655151,115.560555 
	C278.081299,115.038147 273.299683,117.822418 272.045044,124.171486 
	C270.996307,129.478745 271.284454,135.050171 270.983643,141.501526 
M363.044647,258.499969 
	C363.044647,250.036270 363.044647,241.572556 363.044647,233.046631 
	C360.472809,233.046631 358.266113,233.046631 355.882782,233.046631 
	C355.882782,241.722031 355.883728,250.046402 355.882507,258.370789 
	C355.881561,264.869232 355.855469,271.367737 355.885223,277.866058 
	C355.899323,280.941864 354.265625,282.609650 351.372650,282.643799 
	C348.481812,282.677917 346.723206,281.096039 346.747620,277.977173 
	C346.756744,276.811676 346.695923,275.645813 346.695923,274.480103 
	C346.695679,226.158386 346.697540,177.836685 346.706970,129.514969 
	C346.707245,128.017731 346.286041,126.220985 346.955200,125.095078 
	C347.903503,123.499435 349.829926,121.218094 351.073273,121.371933 
	C352.791595,121.584518 354.975922,123.507896 355.655396,125.217400 
	C356.457977,127.236496 355.879974,129.808868 355.880859,132.141373 
	C355.885101,143.417923 355.882751,154.694473 355.882751,165.985474 
	C358.511383,165.985474 360.590424,165.985474 363.012421,165.985474 
	C363.012421,152.124557 363.201294,138.491745 362.931610,124.868011 
	C362.799561,118.199127 357.726410,113.925140 351.103912,113.988533 
	C344.201538,114.054604 338.998474,118.865944 338.987305,125.847443 
	C338.906128,176.501694 338.911346,227.156189 338.977295,277.810455 
	C338.986328,284.749023 344.160278,289.653046 351.036407,289.797974 
	C358.022369,289.945221 362.866211,285.260864 363.010376,277.994965 
	C363.132629,271.832153 363.041412,265.665100 363.044647,258.499969 
M218.997879,140.501160 
	C218.997879,135.045395 218.997879,129.589645 218.997879,123.731277 
	C222.815125,123.731277 226.226120,123.731277 229.844955,123.731277 
	C229.844955,121.251602 229.844955,119.185234 229.844955,116.926971 
	C222.881775,116.926971 216.144669,116.926971 209.320511,116.926971 
	C209.320511,174.102539 209.320511,231.086273 209.320511,287.796661 
	C217.066849,287.796661 224.469406,287.796661 231.668533,287.796661 
	C231.668533,285.512756 231.668533,283.596649 231.668533,281.228882 
	C227.284012,281.228882 223.220291,281.228882 219.289093,281.228882 
	C219.289093,253.869431 219.289093,226.969879 219.289093,199.697144 
	C223.005096,199.697144 226.434357,199.697144 230.120209,199.697144 
	C230.019867,197.579346 229.938263,195.857040 229.839722,193.777344 
	C225.991730,193.777344 222.572128,193.777344 218.997879,193.777344 
	C218.997879,176.092896 218.997879,158.796921 218.997879,140.501160 
z"/>
<path fill="#030303" opacity="1.000000" stroke="none" 
	d="
M2.014578,359.014191 
	C3.969894,358.838379 5.925188,358.508911 7.880530,358.508636 
	C170.165756,358.485138 332.450989,358.485992 494.736237,358.503601 
	C496.546143,358.503784 498.356049,358.746399 500.582977,358.937927 
	C501.000000,363.356903 501.000000,367.713806 500.537262,372.485321 
	C335.444153,372.901123 170.813797,372.902771 6.183424,372.895874 
	C4.855882,372.895844 3.528345,372.780365 2.198596,372.272034 
	C2.135784,367.554932 2.075181,363.284546 2.014578,359.014191 
z"/>
<path fill="#FFFFFF" opacity="1.000000" stroke="none" 
	d="
M2.200805,372.718781 
	C3.528345,372.780365 4.855882,372.895844 6.183424,372.895874 
	C170.813797,372.902771 335.444153,372.901123 500.537262,372.949951 
	C499.666656,373.333313 498.334045,373.954010 496.999908,373.957306 
	C473.000031,374.015961 449.000000,374.000000 425.000000,374.000000 
	C283.666656,374.000000 142.333328,374.000000 1.288314,373.378906 
	C1.784687,372.744812 1.992746,372.731812 2.200805,372.718781 
z"/>
<path fill="#818181" opacity="1.000000" stroke="none" 
	d="
M2.198596,372.272034 
	C1.992746,372.731812 1.784687,372.744812 1.288314,372.878906 
	C1.000000,368.643097 1.000000,364.286194 1.000000,359.464661 
	C1.168877,359.018036 1.337754,359.036041 1.760605,359.034119 
	C2.075181,363.284546 2.135784,367.554932 2.198596,372.272034 
z"/>
<path fill="#080808" opacity="1.000000" stroke="none" 
	d="
M167.000153,330.323547 
	C270.757996,330.323547 374.015808,330.323547 477.518311,330.323547 
	C477.518311,335.157990 477.518311,339.433441 477.518311,344.024902 
	C326.770142,344.024902 176.043716,344.024902 25.019957,344.024902 
	C25.019957,339.633148 25.019957,335.236237 25.019957,330.323547 
	C72.275017,330.323547 119.387589,330.323547 167.000153,330.323547 
z"/>
<path fill="#030303" opacity="1.000000" stroke="none" 
	d="
M67.472939,55.436508 
	C104.150856,44.667625 140.467438,34.083466 176.788025,23.513008 
	C200.577942,16.589375 224.364914,9.655190 248.184402,2.834655 
	C249.954636,2.327764 252.108353,2.234787 253.862640,2.731121 
	C319.247528,21.230431 384.600555,39.842255 449.985931,58.339836 
	C453.193604,59.247288 454.807495,60.444309 454.387177,64.068123 
	C454.009796,67.321571 454.307678,70.653328 454.307678,74.524757 
	C442.903412,71.481964 432.076691,68.638351 421.274750,65.703613 
	C364.994202,50.412952 308.724182,35.083416 252.425537,19.859798 
	C250.492935,19.337206 248.161575,19.321953 246.240402,19.864548 
	C181.949753,38.022366 117.686653,56.277733 53.417061,74.510178 
	C52.475067,74.777405 51.502007,74.935150 49.817623,75.302124 
	C49.817623,70.767815 49.681301,66.529335 49.932415,62.313927 
	C49.982761,61.468826 51.376450,60.306583 52.375271,59.982464 
	C57.246155,58.401855 62.193207,57.055973 67.472939,55.436508 
z"/>
<path fill="#080808" opacity="1.000000" stroke="none" 
	d="
M136.000214,301.356689 
	C242.616089,301.356689 348.731964,301.356689 455.040649,301.356689 
	C455.040649,306.170715 455.040649,310.460022 455.040649,315.047729 
	C320.364471,315.047729 185.802505,315.047729 50.963329,315.047729 
	C50.963329,310.629242 50.963329,306.228546 50.963329,301.356659 
	C79.270546,301.356659 107.385368,301.356659 136.000214,301.356689 
z"/>
<path fill="#020202" opacity="1.000000" stroke="none" 
	d="
M57.072006,92.061699 
	C189.985123,92.062019 322.407745,92.062019 455.023743,92.062019 
	C455.023743,96.828995 455.023743,101.122314 455.023743,105.772118 
	C320.442383,105.772118 185.766037,105.772118 50.898422,105.772118 
	C50.898422,101.383636 50.898422,97.098396 50.898422,92.061378 
	C52.772552,92.061378 54.677025,92.061378 57.072006,92.061699 
z"/>
<path fill="#050505" opacity="1.000000" stroke="none" 
	d="
M255.374084,45.522308 
	C248.250610,46.747665 241.435959,47.888363 234.770920,49.608707 
	C203.388504,57.708958 172.052841,65.990257 140.679626,74.126488 
	C138.309525,74.741142 135.778107,74.948204 133.318741,74.967323 
	C122.161613,75.054024 111.003441,75.005272 99.757706,75.005272 
	C105.885971,73.189217 112.111198,71.292877 118.365868,69.499207 
	C162.195465,56.930046 206.025650,44.362797 249.883194,31.891815 
	C251.811646,31.343458 254.157440,31.220039 256.057892,31.768375 
	C304.040588,45.612965 351.990387,59.571636 399.941193,73.526619 
	C401.478119,73.973900 402.964935,74.593323 404.380646,75.719330 
	C392.184631,75.719330 379.868164,76.775002 367.828796,75.401672 
	C357.265472,74.196709 346.998718,70.320175 336.625702,67.531738 
	C309.660492,60.283031 282.708893,52.983791 255.374084,45.522308 
z"/>
<path fill="#0E0E0E" opacity="1.000000" stroke="none" 
	d="
M148.294373,193.095901 
	C148.294373,224.567780 148.294373,256.039673 148.294373,287.838135 
	C146.247437,287.838135 144.533981,287.838135 142.563705,287.838135 
	C142.563705,230.989075 142.563705,174.216064 142.563705,117.060692 
	C145.018143,117.060692 147.560608,117.060692 150.526932,117.060692 
	C154.044266,146.757706 157.555634,176.404190 161.023071,206.869293 
	C161.373093,209.301361 161.767029,210.914795 162.160965,212.528229 
	C162.445312,212.474121 162.729675,212.419998 163.014023,212.365875 
	C162.886841,210.521774 162.759674,208.677658 162.632507,206.833557 
	C162.632492,177.025024 162.632492,147.216492 162.632492,116.977219 
	C164.224106,116.873268 165.603729,116.783165 167.327271,116.670601 
	C167.327271,173.890335 167.327271,230.751846 167.327271,287.891296 
	C164.994431,287.891296 162.748596,287.891296 160.235275,287.891296 
	C158.585709,273.270966 156.896408,258.634155 155.291824,243.988098 
	C153.464722,227.311188 151.713226,210.625992 149.948822,193.113647 
	C149.536743,190.121643 149.104721,187.960403 148.672684,185.799164 
	C148.546585,185.832397 148.420471,185.865616 148.294373,185.898849 
	C148.294373,188.297867 148.294373,190.696884 148.294373,193.095901 
z"/>
<path fill="#060606" opacity="1.000000" stroke="none" 
	d="
M406.182526,254.999908 
	C406.183075,213.017120 406.193695,171.534348 406.170532,130.051559 
	C406.167877,125.265045 406.610138,120.599564 410.582123,117.329964 
	C415.056396,113.646873 420.207153,112.847717 425.501282,115.295372 
	C430.166412,117.452225 432.258057,121.398232 432.251343,126.543053 
	C432.230682,142.369583 432.270508,158.196182 432.272583,174.022751 
	C432.277069,208.008652 432.060760,241.996613 432.394409,275.979248 
	C432.501617,286.899292 423.649353,291.532562 415.083160,288.986877 
	C409.727844,287.395355 406.343262,282.583466 406.216156,275.990845 
	C406.084534,269.162842 406.184082,262.330383 406.182526,254.999908 
M414.042725,208.500000 
	C414.042664,230.649734 413.975739,252.799957 414.144135,274.948425 
	C414.161346,277.208557 415.028992,280.035980 416.553680,281.518738 
	C417.657013,282.591736 421.078827,282.686035 422.416382,281.736725 
	C423.898834,280.684662 424.886658,277.950897 424.891998,275.946198 
	C425.022888,226.650909 424.994446,177.355179 424.994019,128.059540 
	C424.994019,127.393394 425.264954,126.504578 424.938385,126.099670 
	C423.529602,124.353012 421.928711,121.400658 420.428375,121.418808 
	C418.362793,121.443787 415.973175,123.442833 414.414581,125.207535 
	C413.557922,126.177475 414.054138,128.400879 414.053223,130.059204 
	C414.038818,155.872803 414.042908,181.686401 414.042725,208.500000 
z"/>
<path fill="#0C0C0C" opacity="1.000000" stroke="none" 
	d="
M90.089294,280.141907 
	C91.242294,276.808014 92.769371,273.696259 92.778824,270.579956 
	C92.928391,221.252319 92.883186,171.924103 92.882599,122.596024 
	C92.882576,120.784348 92.882599,118.972664 92.882599,116.974815 
	C95.252228,116.974815 97.325645,116.974815 99.737129,116.974815 
	C99.737129,118.905258 99.737137,120.541824 99.737129,122.178391 
	C99.736961,171.506470 99.753960,220.834564 99.699959,270.162598 
	C99.696152,273.644257 99.525383,277.200958 98.806602,280.590057 
	C97.532867,286.595825 93.247063,289.375031 86.610229,289.086792 
	C81.166672,288.850433 76.908447,285.166626 76.006371,279.674133 
	C75.575935,277.053345 75.305000,274.373474 75.302834,271.720093 
	C75.261330,220.892227 75.270012,170.064285 75.275848,119.236374 
	C75.275917,118.586357 75.373573,117.936348 75.449623,116.987671 
	C77.942146,116.987671 80.353279,116.987671 83.082542,116.987671 
	C83.082542,118.944458 83.082664,120.752731 83.082520,122.561005 
	C83.078606,172.722336 83.070572,222.883652 83.075768,273.044983 
	C83.076431,279.433868 84.673004,281.145935 90.089294,280.141907 
z"/>
<path fill="#050505" opacity="1.000000" stroke="none" 
	d="
M270.982117,141.003067 
	C271.284454,135.050171 270.996307,129.478745 272.045044,124.171486 
	C273.299683,117.822418 278.081299,115.038147 284.655151,115.560555 
	C291.557678,116.109093 295.783325,119.605461 295.970917,126.331596 
	C296.335846,139.413559 296.077789,152.512909 296.077789,165.807571 
	C293.876282,165.807571 291.275269,165.807571 287.993866,165.807571 
	C287.993866,156.977066 287.993927,148.205917 287.993866,139.434769 
	C287.993835,136.602646 288.111847,133.764221 287.961609,130.940079 
	C287.796997,127.845413 289.160736,123.192146 284.226654,123.246033 
	C279.480194,123.297882 280.543274,128.031372 280.346710,131.088181 
	C278.826202,154.738876 282.139160,177.789032 289.488403,200.266830 
	C295.271393,217.954346 298.146179,235.994980 297.152283,254.646881 
	C296.789337,261.458160 297.184387,268.306427 297.057709,275.134583 
	C296.902863,283.481201 291.581726,288.256439 282.824799,288.129486 
	C275.303955,288.020447 271.839905,283.950714 271.851166,275.322418 
	C271.869385,261.372284 271.856049,247.422104 271.856049,233.269867 
	C274.762787,233.269867 277.178558,233.269867 280.133667,233.269867 
	C280.133667,246.318420 280.101929,259.256317 280.167542,272.193726 
	C280.177490,274.156891 280.276031,276.270905 281.016022,278.027740 
	C281.540680,279.273407 283.447937,281.002258 284.321625,280.791229 
	C285.709259,280.456116 286.832275,278.750397 287.888611,277.476349 
	C288.231415,277.062897 288.050079,276.185486 288.048767,275.520416 
	C288.020691,261.534393 288.923798,247.461670 287.643829,233.590530 
	C286.666626,223.000397 282.980286,212.651215 280.396423,202.220276 
	C275.451477,182.257706 269.990051,162.382034 270.982117,141.003067 
z"/>
<path fill="#080808" opacity="1.000000" stroke="none" 
	d="
M363.044678,258.999939 
	C363.041412,265.665100 363.132629,271.832153 363.010376,277.994965 
	C362.866211,285.260864 358.022369,289.945221 351.036407,289.797974 
	C344.160278,289.653046 338.986328,284.749023 338.977295,277.810455 
	C338.911346,227.156189 338.906128,176.501694 338.987305,125.847443 
	C338.998474,118.865944 344.201538,114.054604 351.103912,113.988533 
	C357.726410,113.925140 362.799561,118.199127 362.931610,124.868011 
	C363.201294,138.491745 363.012421,152.124557 363.012421,165.985474 
	C360.590424,165.985474 358.511383,165.985474 355.882751,165.985474 
	C355.882751,154.694473 355.885101,143.417923 355.880859,132.141373 
	C355.879974,129.808868 356.457977,127.236496 355.655396,125.217400 
	C354.975922,123.507896 352.791595,121.584518 351.073273,121.371933 
	C349.829926,121.218094 347.903503,123.499435 346.955200,125.095078 
	C346.286041,126.220985 346.707245,128.017731 346.706970,129.514969 
	C346.697540,177.836685 346.695679,226.158386 346.695923,274.480103 
	C346.695923,275.645813 346.756744,276.811676 346.747620,277.977173 
	C346.723206,281.096039 348.481812,282.677917 351.372650,282.643799 
	C354.265625,282.609650 355.899323,280.941864 355.885223,277.866058 
	C355.855469,271.367737 355.881561,264.869232 355.882507,258.370789 
	C355.883728,250.046402 355.882782,241.722031 355.882782,233.046631 
	C358.266113,233.046631 360.472809,233.046631 363.044647,233.046631 
	C363.044647,241.572556 363.044647,250.036270 363.044678,258.999939 
z"/>
<path fill="#010101" opacity="1.000000" stroke="none" 
	d="
M218.997879,141.001068 
	C218.997879,158.796921 218.997879,176.092896 218.997879,193.777344 
	C222.572128,193.777344 225.991730,193.777344 229.839722,193.777344 
	C229.938263,195.857040 230.019867,197.579346 230.120209,199.697144 
	C226.434357,199.697144 223.005096,199.697144 219.289093,199.697144 
	C219.289093,226.969879 219.289093,253.869431 219.289093,281.228882 
	C223.220291,281.228882 227.284012,281.228882 231.668533,281.228882 
	C231.668533,283.596649 231.668533,285.512756 231.668533,287.796661 
	C224.469406,287.796661 217.066849,287.796661 209.320511,287.796661 
	C209.320511,231.086273 209.320511,174.102539 209.320511,116.926971 
	C216.144669,116.926971 222.881775,116.926971 229.844955,116.926971 
	C229.844955,119.185234 229.844955,121.251602 229.844955,123.731277 
	C226.226120,123.731277 222.815125,123.731277 218.997879,123.731277 
	C218.997879,129.589645 218.997879,135.045395 218.997879,141.001068 
z"/>
<path fill="#BDBDBD" opacity="1.000000" stroke="none" 
	d="
M148.546677,193.131790 
	C148.294373,190.696884 148.294373,188.297867 148.294373,185.898849 
	C148.420471,185.865616 148.546585,185.832397 148.672684,185.799164 
	C149.104721,187.960403 149.536743,190.121643 149.890442,192.675140 
	C149.474411,193.100815 149.136688,193.134247 148.546677,193.131790 
z"/>
<path fill="#A3A3A3" opacity="1.000000" stroke="none" 
	d="
M162.383362,206.796356 
	C162.759674,208.677658 162.886841,210.521774 163.014023,212.365875 
	C162.729675,212.419998 162.445312,212.474121 162.160965,212.528229 
	C161.767029,210.914795 161.373093,209.301361 161.065887,207.302536 
	C161.479828,206.864502 161.807022,206.811829 162.383362,206.796356 
z"/>
<path fill="#FDFDFD" opacity="1.000000" stroke="none" 
	d="
M414.042725,208.000000 
	C414.042908,181.686401 414.038818,155.872803 414.053223,130.059204 
	C414.054138,128.400879 413.557922,126.177475 414.414581,125.207535 
	C415.973175,123.442833 418.362793,121.443787 420.428375,121.418808 
	C421.928711,121.400658 423.529602,124.353012 424.938385,126.099670 
	C425.264954,126.504578 424.994019,127.393394 424.994019,128.059540 
	C424.994446,177.355179 425.022888,226.650909 424.891998,275.946198 
	C424.886658,277.950897 423.898834,280.684662 422.416382,281.736725 
	C421.078827,282.686035 417.657013,282.591736 416.553680,281.518738 
	C415.028992,280.035980 414.161346,277.208557 414.144135,274.948425 
	C413.975739,252.799957 414.042664,230.649734 414.042725,208.000000 
z"/>
</svg>