<svg width="23" height="23" viewBox="0 0 23 23" fill="none" xmlns="http://www.w3.org/2000/svg">
<path fill-rule="evenodd" clip-rule="evenodd" d="M18.4666 0.923359C19.9963 0.923359 21.2363 2.16342 21.2363 3.69311V18.4651C21.2363 19.9949 19.9963 21.2349 18.4666 21.2349H3.69456C2.16487 21.2349 0.924805 19.9949 0.924805 18.4651V3.69311C0.924805 2.16342 2.16487 0.923359 3.69456 0.923359H18.4666ZM18.4666 2.76986C18.9765 2.76986 19.3898 3.18322 19.3898 3.69311V18.4651C19.3898 18.975 18.9765 19.3884 18.4666 19.3884H13.8503V12.9255H15.7672C16.1645 12.9255 16.5173 12.6713 16.6431 12.2942L17.052 11.0672C17.2015 10.6188 16.8678 10.1558 16.3952 10.1558H13.8503V8.30929C13.8503 7.84766 14.3119 7.38604 14.7736 7.38604H16.6201C17.13 7.38604 17.5433 6.97268 17.5433 6.46279V5.82945C17.5433 5.53122 17.3528 5.26384 17.0644 5.18773C15.8542 4.86836 14.7736 4.86836 14.7736 4.86836C12.4654 4.86836 11.0806 6.46279 11.0806 7.84766V10.1558H9.23406C8.72417 10.1558 8.31081 10.5691 8.31081 11.079V12.0023C8.31081 12.5122 8.72416 12.9255 9.23406 12.9255H11.0806V19.3884H3.69456C3.18466 19.3884 2.77131 18.975 2.77131 18.4651V3.69311C2.77131 3.18322 3.18466 2.76986 3.69456 2.76986H18.4666Z" fill="#0F0F0F"/>
</svg>
