<svg width="23" height="23" viewBox="0 0 23 23" fill="none" xmlns="http://www.w3.org/2000/svg">
<g clip-path="url(#clip0_589_80)">
<path fill-rule="evenodd" clip-rule="evenodd" d="M11.0776 16.6181C14.137 16.6181 16.6171 14.1379 16.6171 11.0786C16.6171 8.01917 14.137 5.53905 11.0776 5.53905C8.0182 5.53905 5.53809 8.01917 5.53809 11.0786C5.53809 14.1379 8.0182 16.6181 11.0776 16.6181ZM11.0776 14.7716C13.1171 14.7716 14.7706 13.1181 14.7706 11.0786C14.7706 9.03896 13.1171 7.38555 11.0776 7.38555C9.038 7.38555 7.38459 9.03896 7.38459 11.0786C7.38459 13.1181 9.038 14.7716 11.0776 14.7716Z" fill="#0F0F0F"/>
<path d="M16.6156 4.61569C16.1057 4.61569 15.6924 5.02905 15.6924 5.53894C15.6924 6.04884 16.1057 6.46219 16.6156 6.46219C17.1255 6.46219 17.5389 6.04884 17.5389 5.53894C17.5389 5.02905 17.1255 4.61569 16.6156 4.61569Z" fill="#0F0F0F"/>
<path fill-rule="evenodd" clip-rule="evenodd" d="M1.52467 3.94798C0.920898 5.13295 0.920898 6.68416 0.920898 9.78656V12.3717C0.920898 15.4741 0.920898 17.0253 1.52467 18.2102C2.05576 19.2526 2.90319 20.1 3.94552 20.6311C5.13049 21.2349 6.6817 21.2349 9.7841 21.2349H12.3692C15.4716 21.2349 17.0228 21.2349 18.2077 20.6311C19.2501 20.1 20.0975 19.2526 20.6286 18.2102C21.2324 17.0253 21.2324 15.4741 21.2324 12.3717V9.78656C21.2324 6.68416 21.2324 5.13295 20.6286 3.94798C20.0975 2.90565 19.2501 2.05822 18.2077 1.52713C17.0228 0.923359 15.4716 0.923359 12.3692 0.923359H9.7841C6.6817 0.923359 5.13049 0.923359 3.94552 1.52713C2.90319 2.05822 2.05576 2.90565 1.52467 3.94798ZM12.3692 2.76986H9.7841C8.20243 2.76986 7.12722 2.7713 6.29614 2.8392C5.48659 2.90534 5.07261 3.02522 4.78382 3.17237C4.08893 3.52644 3.52398 4.09139 3.16991 4.78628C3.02276 5.07507 2.90288 5.48905 2.83674 6.2986C2.76884 7.12968 2.7674 8.20489 2.7674 9.78656V12.3717C2.7674 13.9534 2.76884 15.0285 2.83674 15.8596C2.90288 16.6692 3.02276 17.0832 3.16991 17.372C3.52398 18.0668 4.08893 18.6318 4.78382 18.9858C5.07261 19.133 5.48659 19.2529 6.29614 19.319C7.12722 19.3869 8.20243 19.3884 9.7841 19.3884H12.3692C13.9509 19.3884 15.026 19.3869 15.8572 19.319C16.6667 19.2529 17.0807 19.133 17.3695 18.9858C18.0644 18.6318 18.6293 18.0668 18.9834 17.372C19.1305 17.0832 19.2505 16.6692 19.3166 15.8596C19.3844 15.0285 19.3859 13.9534 19.3859 12.3717V9.78656C19.3859 8.20489 19.3844 7.12968 19.3166 6.2986C19.2505 5.48905 19.1305 5.07507 18.9834 4.78628C18.6293 4.09139 18.0644 3.52644 17.3695 3.17237C17.0807 3.02522 16.6667 2.90534 15.8572 2.8392C15.026 2.7713 13.9509 2.76986 12.3692 2.76986Z" fill="#0F0F0F"/>
</g>
<defs>
<clipPath id="clip0_589_80">
<rect width="22.158" height="22.158" fill="white"/>
</clipPath>
</defs>
</svg>
