<svg width="23" height="23" viewBox="0 0 23 23" fill="none" xmlns="http://www.w3.org/2000/svg">
<path d="M5.99791 7.38544C6.76276 7.38544 7.38279 6.76542 7.38279 6.00057C7.38279 5.23572 6.76276 4.61569 5.99791 4.61569C5.23306 4.61569 4.61304 5.23572 4.61304 6.00057C4.61304 6.76542 5.23306 7.38544 5.99791 7.38544Z" fill="#0F0F0F"/>
<path d="M4.61304 9.23295C4.61304 8.72305 5.02639 8.3097 5.53629 8.3097H6.45954C6.96943 8.3097 7.38279 8.72304 7.38279 9.23295V16.6189C7.38279 17.1289 6.96943 17.5422 6.45954 17.5422H5.53629C5.02639 17.5422 4.61304 17.1289 4.61304 16.6189V9.23295Z" fill="#0F0F0F"/>
<path d="M10.1537 17.5422H11.077C11.5869 17.5422 12.0002 17.1289 12.0002 16.6189V12.4643C12.0002 11.0794 14.77 10.1562 14.77 12.0027V16.6193C14.77 17.1292 15.1833 17.5422 15.6932 17.5422H16.6165C17.1264 17.5422 17.5397 17.1289 17.5397 16.6189V11.0794C17.5397 9.23295 16.1548 8.3097 14.3083 8.3097C12.4618 8.3097 12.0002 9.69457 12.0002 9.69457V9.23295C12.0002 8.72304 11.5869 8.3097 11.077 8.3097H10.1537C9.64381 8.3097 9.23047 8.72305 9.23047 9.23295V16.6189C9.23047 17.1289 9.64381 17.5422 10.1537 17.5422Z" fill="#0F0F0F"/>
<path fill-rule="evenodd" clip-rule="evenodd" d="M18.4612 0.923359C19.9909 0.923359 21.2309 2.16342 21.2309 3.69311V18.4651C21.2309 19.9949 19.9909 21.2349 18.4612 21.2349H3.68918C2.1595 21.2349 0.919434 19.9949 0.919434 18.4651V3.69311C0.919434 2.16342 2.1595 0.923359 3.68918 0.923359H18.4612ZM18.4612 2.76986C18.9711 2.76986 19.3844 3.18322 19.3844 3.69311V18.4651C19.3844 18.975 18.9711 19.3884 18.4612 19.3884H3.68918C3.17929 19.3884 2.76593 18.975 2.76593 18.4651V3.69311C2.76593 3.18322 3.17929 2.76986 3.68918 2.76986H18.4612Z" fill="#0F0F0F"/>
</svg>
